<svg width="690" height="124" viewBox="0 0 690 124" fill="none" xmlns="http://www.w3.org/2000/svg">
<g clip-path="url(#clip0_2558_750)">
<path fill-rule="evenodd" clip-rule="evenodd" d="M197.547 52.8525C190.068 53.7906 185.394 55.9798 182.279 59.1083C179.785 61.6094 178.54 64.7367 178.54 67.864C178.54 73.4936 182.59 77.5595 187.576 77.5595C190.691 77.5595 193.807 76.3071 195.365 74.4323C195.988 73.8061 196.612 72.5555 196.612 71.305L197.547 52.8525ZM210.322 86.3152C204.09 86.3152 198.48 82.2498 196.923 75.9965C193.807 81.6243 187.887 86.3152 180.097 86.3152C171.373 86.3152 163.895 79.435 163.895 70.6788C163.895 58.4815 175.424 49.7259 197.234 49.4128V46.2855C197.546 37.5292 192.561 32.2115 183.836 32.2115C177.603 32.2115 171.061 36.2787 166.699 41.594C166.388 41.9071 164.518 40.0316 164.518 39.7178C170.126 28.4605 180.409 22.2053 191.003 22.2053C203.153 22.2053 211.879 30.9622 211.567 45.6599L210.634 70.0538C210.634 75.6834 213.126 78.1845 215.93 78.1845C219.045 78.1845 221.226 75.6828 222.473 72.2412C222.473 71.9293 224.341 72.8674 224.341 73.1799C224.341 81.6243 218.11 86.3152 210.32 86.3152H210.322ZM287.906 84.126H271.392C271.081 84.126 271.081 80.9993 271.392 80.9993C278.247 80.0606 279.182 79.435 279.182 65.9879V47.2242C279.182 38.7798 274.197 32.8383 267.03 32.8383C262.045 32.8383 257.371 35.34 255.19 38.4679C253.632 40.3447 252.697 43.7844 252.697 48.1629V65.9879C252.697 79.4357 254.254 80.0606 261.11 80.9993C261.11 80.9993 261.421 84.126 261.11 84.126H229.327C229.016 84.126 229.016 80.9993 229.016 80.9993C236.493 79.7469 237.429 79.435 237.429 65.9879V43.1582C237.429 29.3973 235.871 28.7724 227.768 27.5218C227.146 27.5218 227.457 24.3939 227.768 24.3939H251.45V38.1548H251.762C257.059 28.1462 265.161 22.2047 275.131 22.2047C286.349 22.2047 295.073 30.9616 295.073 45.3474V65.6754C295.073 79.1232 296.318 79.7481 303.797 80.6868C304.42 80.6868 304.108 83.8135 303.797 83.8135C299.123 84.126 292.268 84.126 287.906 84.126M338.072 86.3152C319.377 86.3152 307.225 71.6168 307.225 54.7293C307.225 36.5906 319.377 22.2041 339.319 22.2041C348.667 22.2041 353.34 25.332 356.145 25.332C357.391 25.332 358.638 24.3939 359.26 22.8303C359.26 22.5172 363 22.5172 363 22.8303V45.3468C363 45.6599 359.261 45.6599 359.261 45.3468C354.276 35.0263 347.421 26.2707 339.321 26.2707C329.348 26.2707 323.428 36.9037 323.428 51.6014C323.428 67.2378 331.529 77.5595 342.747 77.5595C350.225 77.5595 358.639 72.2424 362.065 66.3003C362.377 65.6741 364.87 66.9265 364.87 67.5527C360.82 78.1845 350.225 86.3152 338.073 86.3152M413.788 46.598V42.2195C413.788 32.5246 409.114 26.8956 403.194 26.8956C395.715 26.8956 390.108 35.0263 388.86 46.598H413.789H413.788ZM388.86 53.79C388.86 67.2378 396.34 77.5583 409.114 77.5583C416.592 77.5583 424.069 72.5549 428.121 66.2991C428.121 65.9872 430.613 66.9253 430.613 67.5515C427.187 78.1845 415.969 86.3146 403.506 86.3146C383.876 86.3146 372.347 71.9287 372.347 54.7287C372.347 37.5286 384.499 22.2047 405.064 22.2047C420.643 22.2047 430.926 32.5246 431.861 46.598V50.9764H389.485C388.861 51.6014 388.861 53.165 388.861 53.7912L388.86 53.79ZM463.02 86.3152C453.36 86.3152 444.947 83.8147 442.143 81.9367C441.832 81.6243 440.897 73.4936 440.897 65.3623C440.897 65.0504 444.636 64.7361 444.636 65.3623C449.621 76.3078 456.787 82.5623 464.578 82.5623C471.121 82.5623 475.794 79.1232 475.794 73.8061C475.794 67.5521 468.316 64.7367 460.839 61.2969C451.802 57.8572 441.521 53.1656 441.521 41.5952C441.521 32.5246 449.311 23.1428 463.955 23.1428C470.188 23.1428 474.237 25.6445 477.042 25.6445C478.288 25.6445 479.534 24.707 480.468 23.1428C480.468 22.8303 484.208 22.8303 484.208 23.1428V43.7844C484.208 44.0969 480.468 44.0969 480.468 43.7844C475.483 34.402 469.563 27.8343 462.396 27.8343C455.852 27.8343 452.735 32.2127 452.735 35.6537C452.735 41.9077 459.903 44.4094 467.38 47.5373C476.416 51.2895 487.01 55.9817 487.01 67.8646C487.01 77.8714 477.664 86.3146 463.019 86.3146M493.866 30.961C492.932 30.961 492.621 28.4586 493.555 27.8337C500.099 21.891 511.005 11.8842 516.924 5.629C517.236 5.3159 519.417 5.62899 519.417 6.25519V24.7052H540.605C541.229 24.7052 541.229 30.6472 540.605 30.6472H519.417V65.361C519.417 73.1792 524.091 76.619 529.076 76.619C532.815 76.619 536.866 73.493 538.736 69.7389C538.736 69.427 541.229 70.6775 541.229 70.9913C538.737 79.4357 530.635 86.0015 521.599 86.0015C511.939 86.0015 504.149 79.7469 504.149 67.5503V30.9603L493.866 30.961ZM592.33 40.9696C590.459 40.9696 585.785 35.34 582.358 35.34C580.8 35.34 578.93 36.2781 577.373 37.8417C574.88 40.3434 572.699 46.2861 572.699 51.2895V66.301C572.699 80.0612 574.881 80.3737 582.047 81.3112C582.047 81.3112 582.359 84.4378 582.047 84.4378H549.02C548.708 84.4378 548.708 81.3118 549.02 81.3118C556.498 80.0606 557.434 79.7475 557.434 66.3016V43.4701C557.434 30.0223 555.876 29.0842 547.774 27.8337C547.15 27.8337 547.462 24.7058 547.774 24.7058H571.764V40.3422H572.388C573.012 38.4661 574.257 36.2768 575.193 34.0876C579.554 26.8944 584.854 22.5159 590.46 22.5159C595.757 22.5159 600.12 26.5819 600.12 30.9603C600.429 35.9637 593.887 40.9671 592.331 40.9671M656.826 49.0997L636.574 101.327C629.408 119.778 622.864 123.531 614.139 123.531C609.154 123.531 603.545 121.029 603.545 119.466C603.234 116.964 606.661 107.895 608.53 107.895C609.154 107.895 616.632 111.333 620.37 111.333C625.667 111.333 629.095 107.895 631.899 100.389L635.638 90.3805C634.392 85.3771 619.435 52.5401 617.567 48.161C613.828 39.4041 611.334 32.5246 608.842 30.0223C607.285 28.458 605.727 27.8337 601.364 27.2075C601.053 27.2075 601.053 24.0796 601.364 24.0796C605.415 24.0796 613.828 24.3921 618.502 24.3921C623.176 24.3921 631.277 24.079 635.328 24.079C635.639 24.079 635.639 27.2069 635.328 27.2069C625.979 28.4568 626.914 31.5841 631.9 44.0944L642.806 70.6763L651.53 47.8467C654.646 40.0285 656.204 35.3375 656.204 32.5227C656.204 29.0817 654.022 27.8312 647.479 27.5193C647.168 27.5193 647.168 24.0783 647.479 24.0783C651.842 24.0783 657.451 24.3908 661.189 24.3908C663.994 24.3908 666.798 24.0777 672.095 24.0777C672.407 24.0777 672.718 27.5187 672.095 27.5187C668.668 27.8306 667.11 28.7686 665.24 30.6448C662.748 33.1471 660.878 38.1505 656.827 49.096L656.826 49.0997Z" fill="black"/>
<path fill-rule="evenodd" clip-rule="evenodd" d="M93.1654 20.641C82.2601 8.75688 71.3554 10.6342 69.4855 10.9461C70.4201 11.2586 71.3554 31.8996 82.884 42.8451C90.6735 50.0371 106.565 47.5354 106.565 47.5354C106.565 47.5354 103.759 32.2121 93.1654 20.641ZM106.254 60.9844C102.825 60.9844 88.8043 62.2356 79.4569 73.806C69.7975 86.0033 70.1088 95.6982 67.9276 97.8868C69.7975 98.513 89.4276 100.389 97.8404 87.5669C105.941 75.6815 106.254 62.8606 106.254 60.9844ZM20.8773 52.5388C23.0579 52.8525 30.5367 62.5475 43.9351 63.798C58.5796 65.3629 63.5646 57.8572 63.8772 57.8572C63.8772 56.9185 52.0366 44.0969 38.9501 44.0969C29.9128 44.4087 20.8773 52.5388 20.8773 52.5388ZM74.1586 59.1077C73.8473 59.4202 61.696 75.6828 33.0292 71.3043C9.97133 67.5515 1.55852 54.7286 0 54.4162C1.86986 51.9138 19.3194 37.8411 39.5715 38.1536C59.5142 38.7798 74.158 50.0377 74.158 50.0377H86.9326C76.6511 46.9104 64.1879 41.2815 58.579 28.7717C53.5939 17.2013 54.5285 10.3205 52.3473 0.6262C52.3473 0.6262 75.4046 -1.25054 93.1654 10.3205C109.368 20.9535 118.404 49.0997 118.716 50.0377H128.686L126.506 0L138.969 0.31248C136.789 13.4478 139.593 107.269 138.969 107.269C137.723 107.581 127.129 108.205 126.195 105.704C126.195 105.704 128.687 59.732 128.999 58.7934H119.338C119.338 59.4196 118.404 85.3759 98.7744 99.1368C79.1431 112.897 50.7894 108.831 50.7894 108.831C54.2178 103.515 50.7894 97.8856 60.7595 82.5617C72.2888 65.0485 87.5565 58.7934 87.2458 58.7934C86.3112 59.1071 74.4712 59.1077 74.1586 59.1077Z" fill="black"/>
<path fill-rule="evenodd" clip-rule="evenodd" d="M684.198 29.853C685.103 29.853 685.736 29.5213 685.736 28.7345C685.736 28.0401 685.372 27.5875 684.288 27.5875H683.325V29.8536L684.198 29.853ZM682.362 26.7406H684.439C685.613 26.7406 686.757 27.1641 686.757 28.675C686.757 29.4302 686.244 30.1568 685.552 30.3676L687.029 32.9654H685.913L684.739 30.6689H683.324V32.9654H682.362V26.7406ZM688.955 29.9739C688.955 27.0723 686.938 24.9271 684.408 24.9271C681.881 24.9271 679.862 27.0723 679.862 29.9739C679.862 32.8445 681.88 34.9296 684.408 34.9296C686.938 34.9296 688.955 32.8451 688.955 29.9739ZM678.93 29.9739C678.93 26.438 681.428 24.0814 684.409 24.0814C687.419 24.0814 689.888 26.4387 689.888 29.9745C689.888 33.48 687.419 35.8069 684.409 35.8069C681.428 35.8069 678.93 33.4794 678.93 29.9739Z" fill="black"/>
</g>
<defs>
<clipPath id="clip0_2558_750">
<rect width="690" height="124" fill="white"/>
</clipPath>
</defs>
</svg>
