<svg width="3000" height="493" viewBox="0 0 3000 493" fill="none" xmlns="http://www.w3.org/2000/svg">
<g clip-path="url(#clip0_1214_31639)">
<path d="M1864.77 276.106C1864.77 223.752 1836.66 198.952 1758.4 181.869C1714.86 172.5 1704.4 162.582 1704.4 148.804C1704.4 131.72 1719.83 124.005 1748.48 124.005C1783.2 124.005 1817.37 134.475 1849.88 149.355V80.4684C1827.29 68.8955 1792.02 60.0781 1750.69 60.0781C1672.99 60.0781 1632.76 93.6946 1632.76 149.355C1632.76 193.442 1653.14 228.712 1733.6 244.143C1781.56 254.062 1791.46 261.777 1791.46 277.758C1791.46 293.189 1781.56 303.109 1747.39 303.109C1708.25 303.109 1661.42 289.883 1631.09 271.697V343.889C1655.36 356.014 1687.31 369.24 1746.83 369.24C1831.69 369.24 1864.77 331.766 1864.77 276.106Z" fill="#1A1D21"/>
<path d="M2712.89 64.4531V364.797H2776.81V135.544L2803.81 196.716L2894.2 364.797H2974.66V64.4531H2910.74V258.437L2886.48 202.226L2813.74 64.4531H2712.89Z" fill="#1A1D21"/>
<path d="M2306.2 64.4531H2236.21V364.246H2306.2V64.4531Z" fill="#1A1D21"/>
<path d="M2155.77 276.106C2155.77 223.752 2127.66 198.952 2049.42 181.869C2005.88 172.5 1995.4 162.582 1995.4 148.804C1995.4 131.72 2010.83 124.005 2039.49 124.005C2074.2 124.005 2108.37 134.475 2140.89 149.355V80.4684C2118.29 68.8955 2083.03 60.0781 2041.69 60.0781C1963.99 60.0781 1923.76 93.6946 1923.76 149.355C1923.76 193.442 1944.16 228.712 2024.62 244.143C2072.56 254.062 2082.48 261.777 2082.48 277.758C2082.48 293.189 2072.56 303.109 2038.39 303.109C1999.26 303.109 1952.42 289.883 1922.11 271.697V343.889C1946.36 356.014 1978.32 369.24 2037.83 369.24C2122.71 369.24 2155.77 331.766 2155.77 276.106Z" fill="#1A1D21"/>
<path d="M1090.51 64.4531V364.797H1234.34L1256.94 299.769H1161.05V64.4531H1090.51Z" fill="#1A1D21"/>
<path d="M807.227 64.4531V129.482H884.379V364.797H954.919V129.482H1038.13V64.4531H807.227Z" fill="#1A1D21"/>
<path d="M705.295 64.4531H613.262L508.555 364.246H588.464L603.342 313.546C620.978 318.506 639.715 321.812 659.555 321.812C678.842 321.812 697.579 319.057 715.765 313.546L730.645 364.246H810.553L705.295 64.4531ZM659.002 260.091C645.776 260.091 632.55 257.886 620.427 254.579L659.002 123.42L697.579 254.579C685.455 257.886 672.229 260.091 659.002 260.091Z" fill="#1A1D21"/>
<path d="M1481.78 64.4531H1389.75L1285.04 364.246H1364.95L1379.83 313.546C1397.46 318.506 1416.2 321.812 1436.04 321.812C1455.33 321.812 1474.06 319.057 1492.25 313.546L1507.13 364.246H1587.04L1481.78 64.4531ZM1436.04 260.091C1422.81 260.091 1409.59 257.886 1397.46 254.579L1436.04 123.42L1474.61 254.579C1461.94 257.886 1449.26 260.091 1436.04 260.091Z" fill="#1A1D21"/>
<path d="M2558.03 64.4531H2466L2361.29 364.246H2441.2L2456.07 313.546C2473.72 318.506 2492.44 321.812 2512.29 321.812C2531.58 321.812 2550.32 319.057 2568.5 313.546L2583.38 364.246H2663.29L2558.03 64.4531ZM2511.74 260.091C2498.52 260.091 2485.29 257.886 2473.17 254.579L2511.74 123.42L2550.32 254.579C2538.2 257.886 2525.52 260.091 2511.74 260.091Z" fill="#1A1D21"/>
<path d="M105.144 170.261C103.49 168.056 100.184 166.953 97.4282 166.953C95.2238 167.505 93.0195 169.158 91.9172 171.362L0.987336 353.222C-1.21703 357.079 0.436245 362.039 4.29388 363.693C5.39606 364.244 6.49825 364.795 7.60043 364.795H134.351C137.107 364.795 140.413 363.142 141.516 360.387C168.518 305.278 151.986 219.858 105.144 170.261Z" fill="#1A1D21"/>
<path d="M364.689 353.249C362.484 349.943 194.401 12.6751 189.993 4.40872C188.89 1.65328 186.686 0 183.93 0H183.379C180.624 0 177.869 1.65328 176.215 4.40872C130.475 76.6015 125.515 164.225 162.438 238.071L223.609 359.862C224.712 362.618 227.467 364.271 230.773 364.271H357.524C361.933 364.271 365.239 360.965 365.239 356.555C365.239 355.454 365.239 354.351 364.689 353.249Z" fill="#1A1D21"/>
</g>
<defs>
<clipPath id="clip0_1214_31639">
<rect width="3000" height="492.308" fill="white"/>
</clipPath>
</defs>
</svg>
