<svg width="318" height="51" viewBox="0 0 318 51" fill="none" xmlns="http://www.w3.org/2000/svg">
<g clip-path="url(#clip0_5362_9368)">
<path d="M102 14.57C98.3647 14.5675 94.8171 15.6848 91.8397 17.77V0H84.1797V50.11H91.7897V46.92C94.0766 48.5134 96.7063 49.5464 99.4662 49.9357C102.226 50.325 105.039 50.0597 107.677 49.161C110.316 48.2624 112.706 46.7557 114.654 44.7627C116.603 42.7697 118.055 40.3463 118.894 37.6883C119.733 35.0303 119.935 32.2122 119.484 29.4617C119.032 26.7113 117.94 24.1056 116.295 21.8552C114.651 19.6048 112.5 17.7728 110.017 16.5073C107.533 15.2417 104.787 14.5781 102 14.57ZM102 42.5C99.9905 42.5099 98.0236 41.9233 96.3481 40.8145C94.6726 39.7056 93.3639 38.1245 92.5877 36.2713C91.8115 34.4181 91.6028 32.3763 91.9879 30.4043C92.3731 28.4324 93.3348 26.6192 94.7513 25.1943C96.1678 23.7694 97.9753 22.7969 99.9449 22.4001C101.915 22.0032 103.958 22.1999 105.815 22.9651C107.673 23.7303 109.262 25.0296 110.381 26.6985C111.499 28.3674 112.098 30.3308 112.1 32.34C112.1 35.0242 111.038 37.5994 109.145 39.5031C107.253 41.4067 104.684 42.4841 102 42.5Z" fill="#0C0E1C"/>
<path d="M126.5 14.5699H134.12V50.1099H126.5V14.5699ZM126.5 3.1499H134.12V10.7699H126.5V3.1499Z" fill="#0C0E1C"/>
<path d="M163.24 42.5001H157.34C155.23 42.5001 153.97 40.7901 153.97 38.6901V22.1901H164.55L161.87 14.5801H154V4.3501L146.34 7.0001V14.5401H140.05V22.1501H146.36V41.1501C146.358 42.3166 146.587 43.4719 147.033 44.5499C147.479 45.6279 148.133 46.6073 148.958 47.4321C149.783 48.257 150.762 48.911 151.84 49.3568C152.918 49.8026 154.073 50.0314 155.24 50.0301H163.24V42.5001Z" fill="#0C0E1C"/>
<path d="M195.14 14.5801L184.92 40.7301L174.7 14.5801H167.09L181 50.1101H188.92L202.8 14.5801H195.14Z" fill="#0C0E1C"/>
<path d="M222.24 42.5001C220.233 42.4981 218.272 41.9014 216.604 40.7853C214.937 39.6693 213.637 38.0839 212.87 36.2297C212.103 34.3754 211.903 32.3354 212.295 30.3675C212.687 28.3995 213.654 26.5918 215.072 25.1729C216.491 23.754 218.299 22.7876 220.267 22.3956C222.235 22.0036 224.275 22.2038 226.129 22.9708C227.983 23.7378 229.569 25.0372 230.685 26.7048C231.801 28.3724 232.398 30.3334 232.4 32.3401C232.401 33.6747 232.139 34.9964 231.629 36.2297C231.119 37.4629 230.37 38.5835 229.427 39.5272C228.483 40.4709 227.362 41.2192 226.129 41.7294C224.896 42.2395 223.574 42.5014 222.24 42.5001ZM232.4 17.7701C229.841 15.9848 226.857 14.9046 223.749 14.638C220.641 14.3715 217.517 14.9281 214.692 16.2517C211.866 17.5754 209.44 19.6196 207.655 22.1787C205.87 24.7377 204.791 27.7215 204.525 30.8301C204.26 33.9386 204.817 37.0623 206.142 39.8871C207.466 42.7118 209.511 45.1381 212.071 46.9219C214.63 48.7057 217.614 49.7842 220.723 50.049C223.832 50.3137 226.955 49.7554 229.78 48.4301C230.694 48.0011 231.57 47.496 232.4 46.9201V50.1101H240V14.5701H232.4V17.7701Z" fill="#0C0E1C"/>
<path d="M280.75 14.5701H273.14L262.92 40.7201L252.71 14.5701H245.09L259 50.1101H266.9L280.75 14.5701Z" fill="#0C0E1C"/>
<path d="M300.24 42.5001C298.233 42.5001 296.271 41.905 294.602 40.7902C292.933 39.6753 291.632 38.0907 290.864 36.2366C290.095 34.3825 289.893 32.3422 290.284 30.3736C290.675 28.4049 291.641 26.5964 293.059 25.1765C294.478 23.7566 296.285 22.7891 298.254 22.3963C300.222 22.0036 302.262 22.2031 304.117 22.9698C305.972 23.7365 307.558 25.0359 308.675 26.7038C309.791 28.3716 310.388 30.333 310.39 32.3401C310.391 33.6738 310.13 34.9948 309.62 36.2274C309.111 37.46 308.363 38.5801 307.421 39.5237C306.478 40.4672 305.359 41.2158 304.127 41.7265C302.894 42.2372 301.574 42.5001 300.24 42.5001ZM300.24 14.5701C296.725 14.5681 293.288 15.6086 290.365 17.56C287.441 19.5114 285.162 22.286 283.815 25.5329C282.469 28.7797 282.116 32.353 282.8 35.8007C283.485 39.2484 285.176 42.4156 287.661 44.9018C290.146 47.388 293.312 49.0814 296.76 49.7679C300.207 50.4544 303.78 50.103 307.028 48.7584C310.276 47.4137 313.051 45.1361 315.004 42.2136C316.958 39.2911 318 35.8551 318 32.3401C318 27.6272 316.128 23.1073 312.795 19.7748C309.463 16.4423 304.943 14.5701 300.23 14.5701H300.24Z" fill="#0C0E1C"/>
<path fill-rule="evenodd" clip-rule="evenodd" d="M27.94 3.28003H46.88L18.94 50.15H0L27.94 3.28003Z" fill="#0C0E1C"/>
<path fill-rule="evenodd" clip-rule="evenodd" d="M45.3196 26.5601H64.2596L50.2596 50.1501H31.3496L45.3196 26.5601Z" fill="#0C0E1C"/>
</g>
<defs>
<clipPath id="clip0_5362_9368">
<rect width="318.01" height="50.15" fill="white"/>
</clipPath>
</defs>
</svg>
