<svg width="200" height="64" viewBox="0 0 200 64" fill="none" xmlns="http://www.w3.org/2000/svg">
<g clip-path="url(#clip0_5362_9383)">
<path d="M198.2 43.7C197.9 43.7 197.6 43.9 197.4 44.4C195.4 50.2 192.6 53.7 190.3 53.7C189 53.7 188.5 52.2 188.5 50C188.5 44.3 191.9 32.2 193.6 26.6C193.8 25.9 193.9 25.3 193.9 24.8C193.9 23.2 193 22.4 190.8 22.4C188.5 22.4 185.9 23.3 183.5 27.6C182.7 23.8 180.1 22.2 176.5 22.2C172.4 22.2 168.4 24.9 165.1 29.2C161.8 33.5 157.9 34.9 155 34.2C157.1 29.1 157.9 25.2 157.9 22.4C157.9 17.9 155.7 15.2 152.1 15.2C146.7 15.2 143.6 20.4 143.6 25.8C143.6 30 145.5 34.3 149.7 36.4C146.2 44.3 141.1 51.5 139.1 51.5C136.6 51.5 135.8 39.2 136 30.4C136.1 25.4 136.5 25.1 136.5 23.6C136.5 22.7 135.9 22.1 133.6 22.1C128.3 22.1 126.6 26.6 126.4 31.8C126.3 33.8 126 35.7 125.5 37.6C123.3 45.5 118.7 51.6 115.7 51.6C114.3 51.6 113.9 50.2 113.9 48.4C113.9 42.7 117.1 35.5 117.1 29.4C117.1 24.9 115.1 22.1 111.4 22.1C107 22.1 101.3 27.3 95.8 37C97.6 29.6 98.3 22.4 93 22.4C91.8 22.4 90.7 22.7 89.7 23.3C89 23.6 88.6 24.3 88.6 25.1C89.1 33 82.2 53.3 75.7 53.3C74.5 53.3 73.9 52 73.9 49.9C73.9 44.2 77.3 32.1 79 26.5C79.2 25.8 79.3 25.2 79.3 24.6C79.3 23.1 78.4 22.3 76.2 22.3C73.9 22.3 71.3 23.2 68.9 27.5C68 23.7 65.5 22.1 61.9 22.1C56 22.1 49.5 28.3 46.6 36.4C42.7 47.2 35 57.7 24.5 57.7C15 57.7 10 49.8 10 37.3C10 19.2 23.3 4.5 33.1 4.5C37.8 4.5 40 7.5 40 12.1C40 17.7 36.9 20.2 36.9 22.4C36.9 23 37.4 23.7 38.5 23.7C42.8 23.7 47.8 18.7 47.8 11.8C47.8 4.9 42.4 0 32.6 0C16.3 0 0 16.3 0 37.3C0 54 8.2 64 22.4 64C32.1 64 40.6 56.5 45.1 47.7C45.6 55 48.9 58.8 54 58.8C58.5 58.8 62.1 56.1 64.9 51.4C66 56.3 68.8 58.7 72.5 58.7C76.7 58.7 80.3 56 83.6 51.1C83.6 55 84.4 58.7 87.8 58.7C89.4 58.7 91.3 58.3 91.6 56.9C95.2 42.2 104 30.1 106.7 30.1C107.5 30.1 107.7 30.9 107.7 31.8C107.7 35.8 104.9 44 104.9 49.2C104.9 54.9 107.3 58.6 112.3 58.6C117.8 58.6 123.4 51.9 127.1 42C128.3 51.2 130.8 58.6 134.7 58.6C139.5 58.6 148.2 48.4 153.4 37.6C155.4 37.9 158.5 37.8 161.5 35.7C160.2 38.9 159.5 42.4 159.5 45.8C159.5 55.8 164.3 58.6 168.4 58.6C172.9 58.6 176.5 55.9 179.3 51.2C180.2 55.4 182.6 58.5 186.9 58.5C193.6 58.5 199.5 51.6 199.5 45.9C199.6 44.7 198.9 43.7 198.2 43.7ZM58.2 53.2C55.5 53.2 54.4 50.5 54.4 46.4C54.4 39.3 59.3 27.4 64.4 27.4C66.6 27.4 67.5 30 67.5 33.3C67.5 40.5 62.9 53.2 58.2 53.2ZM151.5 32C149.9 30.1 149.3 27.4 149.3 25.1C149.3 22.2 150.4 19.8 151.6 19.8C152.8 19.8 153.3 21 153.3 22.8C153.2 25.6 152.2 29.9 151.5 32ZM172.6 53.2C169.9 53.2 168.8 50 168.8 46.4C168.8 39.5 173.7 27.4 178.8 27.4C181 27.4 181.8 30 181.8 33.3C181.9 40.5 177.4 53.2 172.6 53.2Z" fill="#0C0E1C"/>
</g>
<defs>
<clipPath id="clip0_5362_9383">
<rect width="199.6" height="64" fill="white"/>
</clipPath>
</defs>
</svg>
