<svg width="120" height="24" viewBox="0 0 120 24" fill="none" xmlns="http://www.w3.org/2000/svg">
<path d="M0 17.8658H22.6416V20.2704H0V17.8658Z" fill="#0C0E1C" fill-opacity="0.4"/>
<path d="M0 2.38351H22.6416V4.78811H0V2.38351Z" fill="#0C0E1C" fill-opacity="0.4"/>
<path d="M0 10.1246H14.8847V12.5292H0V10.1246Z" fill="#0C0E1C" fill-opacity="0.4"/>
<path d="M18.4363 3.57961L14.8786 7.1592L12.5219 4.78811H8.24147L6.93922 6.09835V8.80198L8.2538 10.1246H14.8847V12.5292H8.24147L6.93922 13.8395V16.5431L8.2538 17.8658H12.5096L14.8786 15.4823L18.4363 19.0619L14.8786 22.6415L12.5219 20.2704H8.24147L5.88484 22.6415L2.32705 19.0619L4.84278 16.5307V13.8519L2.32705 11.3207L4.84278 8.78958V6.11075L2.32705 3.57961L5.88484 0L8.2538 2.38351H12.5096L14.8786 0L18.4363 3.57961Z" fill="#0C0E1C"/>
<path d="M26.415 19.2084V3.7749H37.3535V6.20017H28.9563V16.7831H37.464V19.2084H26.415ZM27.4978 12.5941V10.1688H36.1381V12.5941H27.4978Z" fill="#0C0E1C"/>
<path d="M52.2345 19.2084V5.20801H54.5547V17.1139H58.0904V19.2084H52.2345ZM50.614 10.0585V7.964H58.2377V10.0585H50.614Z" fill="#0C0E1C"/>
<path d="M64.8615 19.4289C63.7714 19.4289 62.7769 19.1717 61.8783 18.6572C60.9797 18.1428 60.2652 17.4446 59.7348 16.5627C59.2192 15.6661 58.9614 14.6739 58.9614 13.5862C58.9614 12.4985 59.2192 11.5137 59.7348 10.6318C60.2652 9.73518 60.9797 9.02965 61.8783 8.51519C62.7769 8.00074 63.7714 7.74352 64.8615 7.74352C65.9369 7.74352 66.9093 7.99339 67.7784 8.49315C68.6624 8.9929 69.3621 9.70578 69.8777 10.6318C70.3934 11.5431 70.6512 12.6014 70.6512 13.8067C70.6512 13.9096 70.6512 14.0051 70.6512 14.0933C70.6512 14.1668 70.6512 14.255 70.6512 14.3579H60.2652V12.4838H69.2148L68.3088 13.0791C68.2499 12.4912 68.0731 11.9547 67.7784 11.4696C67.4985 10.9699 67.1081 10.573 66.6073 10.279C66.1064 9.98505 65.5245 9.83807 64.8615 9.83807C64.1838 9.83807 63.5798 9.99975 63.0495 10.3231C62.5339 10.6318 62.1287 11.0727 61.8341 11.646C61.5395 12.2045 61.3921 12.8513 61.3921 13.5862C61.3921 14.3211 61.5395 14.9752 61.8341 15.5485C62.1287 16.107 62.5339 16.548 63.0495 16.8713C63.5798 17.18 64.1838 17.3343 64.8615 17.3343C65.657 17.3343 66.2979 17.1727 66.784 16.8493C67.2849 16.5259 67.6753 16.0997 67.9552 15.5705H70.386C70.1797 16.2319 69.8335 16.8566 69.3474 17.4446C68.8612 18.0325 68.2351 18.5102 67.4691 18.8777C66.7177 19.2452 65.8486 19.4289 64.8615 19.4289Z" fill="#0C0E1C"/>
<path d="M80.188 23.3975V7.964H82.3978V9.61759H82.5083C82.8471 9.07374 83.348 8.62543 84.011 8.27267C84.6886 7.9199 85.4399 7.74352 86.2649 7.74352C87.2225 7.74352 88.0917 7.98605 88.8725 8.4711C89.668 8.95615 90.2941 9.64699 90.7508 10.5436C91.2222 11.4255 91.4579 12.4397 91.4579 13.5862C91.4579 14.7327 91.2222 15.7542 90.7508 16.6509C90.2941 17.5328 89.668 18.2163 88.8725 18.7013C88.0917 19.1864 87.2225 19.4289 86.2649 19.4289C85.4399 19.4289 84.696 19.2525 84.0331 18.8997C83.3848 18.547 82.9134 18.1354 82.6188 17.6651H82.5083V23.3975H80.188ZM85.7125 17.3343C86.3754 17.3343 86.9573 17.1947 87.4582 16.9154C87.9591 16.6215 88.3421 16.1952 88.6073 15.6367C88.8872 15.0634 89.0272 14.3799 89.0272 13.5862C89.0272 12.7925 88.8872 12.1163 88.6073 11.5578C88.3421 10.9846 87.9591 10.5583 87.4582 10.279C86.9573 9.98505 86.3754 9.83807 85.7125 9.83807C85.079 9.83807 84.5192 9.98505 84.0331 10.279C83.5616 10.573 83.186 10.9993 82.9061 11.5578C82.6409 12.1163 82.5083 12.7925 82.5083 13.5862C82.5083 14.3799 82.6409 15.0561 82.9061 15.6146C83.186 16.1732 83.5616 16.5994 84.0331 16.8934C84.5192 17.1874 85.079 17.3343 85.7125 17.3343Z" fill="#0C0E1C"/>
<path d="M106.089 19.4289C104.999 19.4289 104.005 19.1717 103.106 18.6572C102.207 18.1428 101.493 17.4446 100.963 16.5627C100.447 15.6661 100.189 14.6739 100.189 13.5862C100.189 12.4985 100.447 11.5137 100.963 10.6318C101.493 9.73518 102.207 9.02965 103.106 8.51519C104.005 8.00074 105.146 7.74352 106.237 7.74352C107.312 7.74352 108.137 7.99339 109.006 8.49315C109.89 8.9929 110.59 9.70578 111.106 10.6318C111.621 11.5431 111.879 12.6014 111.879 13.8067C111.879 13.9096 111.879 14.0051 111.879 14.0933C111.879 14.1668 111.879 14.255 111.879 14.3579H101.493V12.4838H110.443L109.537 13.0791C109.478 12.4912 109.301 11.9547 109.006 11.4696C108.726 10.9699 108.336 10.573 107.835 10.279C107.334 9.98505 106.752 9.83807 106.089 9.83807C105.412 9.83807 104.808 9.99975 104.277 10.3231C103.762 10.6318 103.357 11.0727 103.062 11.646C102.767 12.2045 102.62 12.8513 102.62 13.5862C102.62 14.3211 102.767 14.9752 103.062 15.5485C103.357 16.107 103.762 16.548 104.277 16.8713C104.808 17.18 105.412 17.3343 106.089 17.3343C106.885 17.3343 107.526 17.1727 108.012 16.8493C108.513 16.5259 108.903 16.0997 109.183 15.5705H111.614C111.408 16.2319 111.061 16.8566 110.575 17.4446C110.089 18.0325 109.463 18.5102 108.697 18.8777C107.946 19.2452 107.076 19.4289 106.089 19.4289Z" fill="#0C0E1C"/>
<path d="M113.997 19.2084V8.00074H116.317V17.1139H119.853V19.2084H113.997ZM112.376 10.0585V7.964H120V10.0585H112.376Z" fill="#0C0E1C"/>
<path d="M93.0074 19.2084V7.964H95.2172V9.61759L97.0218 7.85376H99.9682V10.0585H98.4214C97.5227 10.0585 96.7788 10.3452 96.1895 10.9184C95.6149 11.477 95.3277 12.2192 95.3277 13.1452V19.2084H93.0074Z" fill="#0C0E1C"/>
<path d="M72.0104 19.2084V7.964H74.2201V9.61759L76.0248 7.85376H78.9712V10.0585H77.4243C76.5257 10.0585 75.7817 10.3452 75.1925 10.9184C74.6179 11.477 74.3306 12.2192 74.3306 13.1452V19.2084H72.0104Z" fill="#0C0E1C"/>
<path d="M39.3397 19.2084V7.964H41.5495V9.61759L43.3199 7.74352H45.4166C46.3006 7.74352 47.0666 7.92725 47.7148 8.29472C48.363 8.64748 48.8565 9.18398 49.1954 9.90421C49.5489 10.6097 49.7257 11.4696 49.7257 12.4838V19.2084H47.4054V12.8586C47.4054 11.9032 47.1845 11.1609 46.7425 10.6318C46.3006 10.1026 45.6523 9.83807 44.7979 9.83807C44.2086 9.83807 43.6709 9.9777 43.1848 10.257C42.7133 10.5216 42.3377 10.8964 42.0578 11.3814C41.7926 11.8665 41.66 12.4177 41.66 13.035V19.2084H39.3397Z" fill="#0C0E1C"/>
<path d="M115.175 4.43634L116.832 6.08993L115.175 7.74352L113.518 6.08993L115.175 4.43634Z" fill="#0C0E1C"/>
</svg>
