<svg width="675" height="141" viewBox="0 0 675 141" fill="none" xmlns="http://www.w3.org/2000/svg">
<g clip-path="url(#clip0_2497_274)">
<path d="M546.837 48.2771C546.837 35.2016 526.761 35.2016 526.761 48.2771C526.761 61.3525 546.837 61.3525 546.837 48.2771ZM528.516 134.747H544.794C545.297 134.747 545.709 134.341 545.709 133.845V68.9229C545.709 68.4187 545.297 68.0203 544.794 68.0203H528.516C528.005 68.0203 527.602 68.4269 527.602 68.9229V133.845C527.593 134.341 528.005 134.747 528.516 134.747ZM305.324 68.9148C305.324 68.4188 305.736 68.0122 306.239 68.0122H322.36C322.871 68.0122 323.275 68.4188 323.275 68.9148V133.837C323.275 134.341 322.863 134.739 322.36 134.739H306.23C305.728 134.739 305.316 134.333 305.316 133.837L305.3 128.941C299.632 134.113 293.017 134.219 287.094 134.316L286.089 134.333C276.425 134.333 268.229 131.332 262.363 125.648C256.185 119.655 252.914 110.89 252.914 100.286C252.914 79.9086 266.078 66.7437 286.459 66.7437H286.772C293.206 66.7437 299.838 67.386 305.3 71.6469L305.324 68.9148ZM301.831 112.06C304.558 108.914 305.761 104.661 305.761 100.083C305.761 91.7317 300.579 83.0148 288.165 83.0148C277.916 83.0148 271.038 89.9591 271.038 100.294C271.038 110.702 277.925 117.704 288.165 117.704C293.396 117.712 298.783 115.573 301.831 112.06ZM517.749 134.747C518.26 134.747 518.672 134.341 518.672 133.845V119.314C518.672 118.81 518.26 118.411 517.757 118.411C516.11 118.411 510.854 118.403 509.766 118.354C505.054 118.151 502.954 115.866 502.954 110.93V86.1129H517.757C518.26 86.1129 518.672 85.7063 518.672 85.2103V69.0693C518.672 68.5651 518.26 68.1667 517.757 68.1667H503.077V54.0504C503.077 53.5544 502.665 53.1478 502.163 53.1478H485.868C485.365 53.1478 484.945 53.5544 484.945 54.0504L484.962 110.938C484.962 126.071 493.603 134.747 508.737 134.747L511.743 134.755L517.749 134.747ZM601.916 113.923C601.579 113.573 601.035 113.549 600.648 113.858C597.468 116.419 593.481 117.866 589.584 117.866C579.715 117.866 572.82 110.857 572.82 100.815C572.82 90.7722 579.715 83.7629 589.584 83.7629C593.481 83.7629 597.468 85.2184 600.648 87.7717C601.027 88.0807 601.57 88.0563 601.916 87.7066L612.346 76.8511C612.7 76.4852 612.684 75.8916 612.313 75.5419C605.599 69.2888 598.671 66.6054 589.329 66.6054C568.198 66.6054 554.548 80.0305 554.548 100.806C554.548 121.582 568.198 135.008 589.329 135.008C598.671 135.008 605.599 132.324 612.313 126.071C612.684 125.721 612.7 125.136 612.346 124.762L601.916 113.923ZM257.19 51.92V36.3075C257.19 35.6814 256.679 35.1772 256.045 35.1772H197.448C196.814 35.1772 196.303 35.6814 196.303 36.3075V133.609C196.303 134.235 196.814 134.739 197.448 134.739H213.265C213.899 134.739 214.41 134.235 214.41 133.609V93.9028C214.41 93.2767 214.921 92.7725 215.555 92.7725H245.063C245.698 92.7725 246.208 92.2684 246.208 91.6423V76.0298C246.208 75.4037 245.698 74.8995 245.063 74.8995H215.555C214.921 74.8995 214.41 74.3954 214.41 73.7611V54.1968C214.41 53.5707 214.921 53.0665 215.555 53.0665H256.036C256.679 53.0502 257.19 52.5461 257.19 51.92ZM457.513 68.9148C457.513 68.4188 457.925 68.0122 458.435 68.0122H474.557C475.068 68.0122 475.472 68.4188 475.472 68.9148V133.837C475.472 134.341 475.06 134.739 474.557 134.739H458.427C457.916 134.739 457.513 134.333 457.513 133.837L457.496 128.941C451.837 134.113 445.222 134.219 439.29 134.316L438.285 134.333C428.622 134.333 420.417 131.332 414.56 125.648C408.381 119.655 405.111 110.89 405.111 100.286C405.111 79.9086 418.275 66.7437 438.656 66.7437H438.969C445.403 66.7437 452.035 67.386 457.496 71.6469L457.513 68.9148ZM454.02 112.06C456.747 108.914 457.949 104.661 457.949 100.083C457.949 91.7317 452.768 83.0148 440.353 83.0148C430.105 83.0148 423.218 89.9591 423.218 100.294C423.218 110.702 430.105 117.704 440.353 117.704C445.584 117.712 450.972 115.573 454.02 112.06ZM617.478 122.997C617.206 123.355 617.247 123.867 617.569 124.184C627.182 133.715 637.735 135.016 646.822 135.016C659.648 135.016 669.254 130.186 673.175 121.761C674.37 119.192 674.979 116.403 674.979 113.467C674.979 96.3911 660.044 93.2442 647.028 92.4148C636.648 91.7643 636.648 88.1701 636.648 86.9911C636.648 82.6651 643.675 82.1935 646.69 82.1935C652.539 82.1935 656.847 83.5921 660.513 86.7065C660.9 87.0399 661.485 87.0155 661.815 86.6252L671.008 76.0705C671.338 75.6883 671.297 75.1028 670.91 74.7776C664.187 69.2156 657.029 66.9307 646.443 66.9307C639.762 66.9307 633.163 68.557 628.327 71.3949C622.083 75.0622 618.788 80.6241 618.788 87.4871C618.788 99.3672 628.393 106.612 645.858 107.913C655.727 108.466 656.996 111.304 656.996 113.711C656.996 117.273 652.226 119.135 647.514 119.135L647.102 119.127C639.482 118.988 632.158 116.216 627.281 111.654C626.878 111.28 626.235 111.312 625.905 111.76L617.478 122.997ZM369.597 67.2641C386.213 67.2641 397.376 79.9411 397.376 98.8061V133.845C397.376 134.349 396.964 134.747 396.461 134.747H380.183C379.68 134.747 379.268 134.341 379.268 133.845V98.9281C379.268 91.6016 375.668 83.771 365.552 83.771L365.214 83.7791C357.479 83.9092 350.946 90.6584 350.946 98.5134V133.845C350.946 134.349 350.534 134.747 350.032 134.747H333.885C333.383 134.747 332.971 134.341 332.971 133.845V69.0449C332.971 68.5407 333.383 68.1423 333.885 68.1423H349.496C349.999 68.1423 350.411 68.5488 350.411 69.0449L350.435 74.8182C356.515 69.6059 362.529 67.2641 369.597 67.2641Z" fill="black"/>
<path d="M119.706 90.6157C120.019 90.7621 120.39 90.6645 120.58 90.3718L141.1 59.0574C141.356 58.6671 141.125 58.1874 140.689 58.0329C111.122 47.9742 83.4757 67.2946 41.2808 68.3517C40.1851 68.3355 39.0648 69.6284 39.8309 70.9945L85.3952 140.389C86.0625 141.56 87.6277 140.836 87.4382 139.754L77.6268 95.8118C77.5444 95.4215 77.7915 95.0718 78.1705 94.9417C81.7128 93.6732 107.506 85.0213 119.706 90.6157ZM168.912 16.4159L152.04 42.2903C151.695 42.8189 150.986 43.0872 150.418 42.8026C111.46 23.4578 66.5055 59.033 26.8231 50.5519C26.4524 50.4706 26.1229 50.2673 25.9252 49.9583C25.9252 49.9583 6.74715 20.8069 0.354473 11.0979C-0.461088 9.88634 0.552185 8.15433 2.17507 8.43893C5.64326 9.21954 20.5458 12.4722 32.1531 13.3016C92.3481 16.5054 124.954 -19.1431 168.591 14.6351C169.126 15.0661 169.291 15.8304 168.912 16.4159Z" fill="black"/>
</g>
<defs>
<clipPath id="clip0_2497_274">
<rect width="675" height="141" fill="white"/>
</clipPath>
</defs>
</svg>
