<svg xmlns="http://www.w3.org/2000/svg" version="1.1" viewBox="0 0 474.7281105990784 364" style="max-height: 500px" width="474.7281105990784" height="364">
<path transform="translate(167.09765625,248.87109375)" fill="#040304" d="M0 0 C12.14253372 8.64522252 19.91848492 18.2943808 22.90234375 33.12890625 C23.84047573 43.67116437 21.58179173 51.7700103 16.90234375 61.12890625 C16.24234375 61.12890625 15.58234375 61.12890625 14.90234375 61.12890625 C14.43828125 62.30453125 14.43828125 62.30453125 13.96484375 63.50390625 C12.90234375 66.12890625 12.90234375 66.12890625 11.90234375 68.12890625 C11.24234375 68.12890625 10.58234375 68.12890625 9.90234375 68.12890625 C9.67546875 68.66515625 9.44859375 69.20140625 9.21484375 69.75390625 C6.41139497 74.82681357 2.62817913 78.80804895 -2.09765625 82.12890625 C-2.75765625 82.12890625 -3.41765625 82.12890625 -4.09765625 82.12890625 C-4.59265625 83.61390625 -4.59265625 83.61390625 -5.09765625 85.12890625 C-7.07840652 86.49067206 -9.07845288 87.82483741 -11.09765625 89.12890625 C-11.42765625 89.78890625 -11.75765625 90.44890625 -12.09765625 91.12890625 C-13.08765625 91.12890625 -14.07765625 91.12890625 -15.09765625 91.12890625 C-15.59265625 92.61390625 -15.59265625 92.61390625 -16.09765625 94.12890625 C-18.0234375 95.48046875 -18.0234375 95.48046875 -20.41015625 96.75390625 C-21.19003906 97.17929687 -21.96992188 97.6046875 -22.7734375 98.04296875 C-25.09765625 99.12890625 -25.09765625 99.12890625 -27.328125 99.65234375 C-27.91207031 99.80960937 -28.49601562 99.966875 -29.09765625 100.12890625 C-29.42765625 100.78890625 -29.75765625 101.44890625 -30.09765625 102.12890625 C-36.06179034 105.90097196 -41.62480902 107.71129257 -48.66015625 106.50390625 C-53.01745565 105.43651412 -55.12994813 103.52057267 -58.09765625 100.12890625 C-60.26386169 98.8337063 -60.26386169 98.8337063 -62.09765625 98.12890625 C-62.09765625 97.46890625 -62.09765625 96.80890625 -62.09765625 96.12890625 C-62.69578125 95.90203125 -63.29390625 95.67515625 -63.91015625 95.44140625 C-66.87947701 93.65981379 -67.70047402 92.32246564 -69.09765625 89.12890625 C-70.39033661 82.11416651 -69.95050587 75.5721255 -68.91015625 68.56640625 C-68.77287109 67.58551025 -68.63558594 66.60461426 -68.49414062 65.59399414 C-68.0450743 62.43630941 -67.57461699 59.28249218 -67.09765625 56.12890625 C-66.93571777 55.04867187 -66.7737793 53.9684375 -66.60693359 52.85546875 C-64.79356576 40.86837775 -62.90701382 28.92820804 -60.09765625 17.12890625 C-59.78054687 15.57429688 -59.78054687 15.57429688 -59.45703125 13.98828125 C-57.84841795 6.84304543 -57.84841795 6.84304543 -54.53515625 3.69140625 C-53.40078125 3.17578125 -52.26640625 2.66015625 -51.09765625 2.12890625 C-50.06511719 1.64744141 -50.06511719 1.64744141 -49.01171875 1.15625 C-32.84591607 -5.90621861 -15.97478349 -9.64933328 0 0 Z M-34.09765625 26.12890625 C-35.18146026 28.1991252 -35.18146026 28.1991252 -35.34765625 30.69140625 C-35.4765625 31.67238281 -35.60546875 32.65335937 -35.73828125 33.6640625 C-35.856875 34.80746094 -35.97546875 35.95085937 -36.09765625 37.12890625 C-36.25743263 38.48197051 -36.41898987 39.83482529 -36.58203125 41.1875 C-37.12862697 45.8304521 -37.61424373 50.47902502 -38.09765625 55.12890625 C-38.2873948 56.92321578 -38.47750504 58.71748605 -38.66796875 60.51171875 C-39.14888155 65.05033327 -39.62458837 69.58946763 -40.09765625 74.12890625 C-36.20208632 73.32008029 -34.13708197 71.71241811 -31.09765625 69.12890625 C-30.33453125 68.59265625 -29.57140625 68.05640625 -28.78515625 67.50390625 C-28.22828125 67.05015625 -27.67140625 66.59640625 -27.09765625 66.12890625 C-27.09765625 65.46890625 -27.09765625 64.80890625 -27.09765625 64.12890625 C-26.56140625 63.90203125 -26.02515625 63.67515625 -25.47265625 63.44140625 C-19.96886005 60.39983466 -15.80141089 56.13986841 -12.09765625 51.12890625 C-12.09765625 50.13890625 -12.09765625 49.14890625 -12.09765625 48.12890625 C-11.43765625 48.12890625 -10.77765625 48.12890625 -10.09765625 48.12890625 C-5.32943389 39.06822056 -5.32943389 39.06822056 -5.09765625 29.12890625 C-7.27340041 26.43785427 -9.00831481 24.67357697 -12.09765625 23.12890625 C-14.69553154 22.97746061 -17.24874446 22.89753644 -19.84765625 22.87890625 C-20.90339844 22.84796875 -20.90339844 22.84796875 -21.98046875 22.81640625 C-26.70805229 22.78125693 -30.08756794 23.35974466 -34.09765625 26.12890625 Z"/>
<path transform="translate(72.5,120.3125)" fill="#040304" d="M0 0 C1.93359375 0.11794922 1.93359375 0.11794922 3.90625 0.23828125 C7.15259731 0.64407466 9.56073572 1.30265433 12.5 2.6875 C12.5 3.3475 12.5 4.0075 12.5 4.6875 C13.16 4.6875 13.82 4.6875 14.5 4.6875 C15.33064983 9.1910232 15.84448343 12.65404971 14.375 17.0625 C9.29501077 24.17448493 -2.69894717 28.81066938 -11.140625 30.3203125 C-11.91921875 30.44148438 -12.6978125 30.56265625 -13.5 30.6875 C-14.50546875 30.87054688 -15.5109375 31.05359375 -16.546875 31.2421875 C-21.25489655 32.080445 -25.7059737 32.80997512 -30.5 32.6875 C-35.1541576 40.90309994 -36.0770336 51.41221922 -35.5 60.6875 C-34.943125 60.543125 -34.38625 60.39875 -33.8125 60.25 C-24.85747814 58.07175144 -18.61134063 57.85521197 -10.5 62.6875 C-10.18242953 68.6154821 -10.53194643 73.43980072 -13.5 78.6875 C-20.46487319 86.16199806 -30.90019124 88.27842252 -40.5 90.6875 C-40.91758883 92.89565914 -41.33397843 95.10404505 -41.75 97.3125 C-41.88349854 98.01020508 -42.01699707 98.70791016 -42.15454102 99.42675781 C-42.98030412 103.77863783 -43.7434031 108.13477733 -44.44921875 112.5078125 C-44.69526855 113.98193604 -44.69526855 113.98193604 -44.94628906 115.48583984 C-45.2697295 117.42937604 -45.58061558 119.37504987 -45.87792969 121.32275391 C-47.0135476 128.02001854 -47.0135476 128.02001854 -49.37890625 131.265625 C-52.19998198 133.15673285 -54.07910611 133.85699033 -57.46484375 133.453125 C-67.16134335 130.91859441 -67.16134335 130.91859441 -69.8125 126.5 C-70.039375 125.901875 -70.26625 125.30375 -70.5 124.6875 C-71.16 124.6875 -71.82 124.6875 -72.5 124.6875 C-73.05370374 109.3376018 -71.61824915 94.98913332 -69.02587891 79.86962891 C-68.20220186 74.88550329 -67.53544458 69.88293803 -66.875 64.875 C-65.50231063 54.63262543 -64.11987372 44.41986596 -62 34.30078125 C-61.19885836 30.1135644 -60.63864167 25.89129294 -60.0625 21.66796875 C-59.02497533 16.17052899 -59.02497533 16.17052899 -57.5 13.6875 C-54.55078125 12.71875 -54.55078125 12.71875 -50.8125 12.1875 C-41.11508788 10.61233373 -32.18024075 7.48460006 -23 4 C-15.14823598 1.05558849 -8.37566803 -0.56116976 0 0 Z"/>
<path transform="translate(279.765625,132.78515625)" fill="#050506" d="M0 0 C3.7344621 2.03045055 7.28679074 4.31967523 9.234375 8.21484375 C10.25081822 20.89134275 8.77080131 33.20748207 6.859375 45.71484375 C6.69293488 46.82027023 6.69293488 46.82027023 6.52313232 47.94802856 C4.11470599 63.75236409 4.11470599 63.75236409 -0.015625 66.96484375 C-3.34998954 68.48046399 -5.14865547 68.89302554 -8.765625 68.21484375 C-12.93060861 64.14451886 -15.61279234 60.32244125 -15.90625 54.35546875 C-15.83924517 47.51650862 -14.64013428 40.70315854 -13.74414062 33.93554688 C-13.60556641 32.84564453 -13.46699219 31.75574219 -13.32421875 30.6328125 C-13.19329834 29.64047607 -13.06237793 28.64813965 -12.92749023 27.62573242 C-12.5605583 25.20320605 -12.5605583 25.20320605 -13.765625 23.21484375 C-17.59175203 24.71796508 -19.46654467 26.84285926 -21.765625 30.21484375 C-24.40123725 36.59579973 -24.76528561 43.0306863 -25.203125 49.83984375 C-25.54522524 54.69144714 -25.95874363 59.51518891 -26.578125 64.33984375 C-26.70832031 65.37367188 -26.83851563 66.4075 -26.97265625 67.47265625 C-27.92314201 70.75955773 -29.08029982 72.12843936 -31.765625 74.21484375 C-36.93959488 74.88554355 -40.38584144 74.0304189 -44.765625 71.21484375 C-45.095625 70.22484375 -45.425625 69.23484375 -45.765625 68.21484375 C-46.425625 68.21484375 -47.085625 68.21484375 -47.765625 68.21484375 C-52.23516593 58.54567753 -49.61884265 47.99929257 -46.765625 38.21484375 C-46.36231947 36.63339722 -45.9654296 35.05028489 -45.578125 33.46484375 C-45.31 32.39234375 -45.041875 31.31984375 -44.765625 30.21484375 C-45.29671875 30.55257812 -45.8278125 30.8903125 -46.375 31.23828125 C-47.08140625 31.68429688 -47.7878125 32.1303125 -48.515625 32.58984375 C-49.21171875 33.03070313 -49.9078125 33.4715625 -50.625 33.92578125 C-52.765625 35.21484375 -52.765625 35.21484375 -54.9921875 36.05859375 C-57.00776685 37.08294046 -57.00776685 37.08294046 -57.3046875 39.47265625 C-57.33304688 40.41882813 -57.36140625 41.365 -57.390625 42.33984375 C-57.89609967 52.13194603 -59.16618974 61.84465162 -60.703125 71.52734375 C-60.83589844 72.36910156 -60.96867187 73.21085937 -61.10546875 74.078125 C-61.88442381 76.59935823 -62.65766434 77.64122661 -64.765625 79.21484375 C-68.69561224 80.34461421 -72.88960719 80.66835043 -76.765625 79.21484375 C-76.765625 78.55484375 -76.765625 77.89484375 -76.765625 77.21484375 C-77.425625 77.21484375 -78.085625 77.21484375 -78.765625 77.21484375 C-86.30247579 64.26025671 -80.64975866 45.99787118 -77.765625 32.21484375 C-77.55180176 31.16135742 -77.33797852 30.10787109 -77.11767578 29.02246094 C-76.47014039 25.83407897 -75.80887151 22.6489447 -75.140625 19.46484375 C-74.93477783 18.4701709 -74.72893066 17.47549805 -74.5168457 16.45068359 C-74.31792725 15.5323877 -74.11900879 14.6140918 -73.9140625 13.66796875 C-73.74052246 12.85489258 -73.56698242 12.04181641 -73.38818359 11.20410156 C-72.765625 9.21484375 -72.765625 9.21484375 -70.765625 7.21484375 C-66.78816723 7.44431247 -64.29427133 7.86241286 -60.953125 10.08984375 C-57.91005956 11.58323895 -57.91005956 11.58323895 -55.66015625 10.2265625 C-54.86996094 9.74832031 -54.07976562 9.27007812 -53.265625 8.77734375 C-47.50846667 5.44885009 -43.25994209 6.44235851 -36.96484375 7.89453125 C-33.08965627 8.28252316 -31.78439655 7.59087511 -28.765625 5.21484375 C-27.940625 4.20421875 -27.115625 3.19359375 -26.265625 2.15234375 C-19.60308627 -5.67613926 -8.5212559 -3.81285495 0 0 Z"/>
<path transform="translate(159,16)" fill="#050405" d="M0 0 C0 0.66 0 1.32 0 2 C0.60457031 2.09023438 1.20914063 2.18046875 1.83203125 2.2734375 C5.25161309 3.41945952 6.19994381 5.79090387 7.95703125 8.796875 C9.40380225 11.85297554 9.86551156 14.63778912 10 18 C9 20 9 20 5.3125 21.375 C-2.63549787 23.876207 -10.65466422 26.21158926 -18.75 28.1875 C-21.86215877 28.8406917 -21.86215877 28.8406917 -24 30 C-23.81139404 31.29744141 -23.62278809 32.59488281 -23.4284668 33.93164062 C-22.88716685 38.84960353 -23.33243654 43.23607681 -24.14453125 48.09375 C-24.27437912 48.92531616 -24.40422699 49.75688232 -24.53800964 50.61364746 C-24.95190092 53.24430529 -25.38223553 55.87197655 -25.8125 58.5 C-26.09020579 60.26155934 -26.36690667 62.02327741 -26.64257812 63.78515625 C-26.91315723 65.49233123 -27.18461264 67.19936759 -27.45703125 68.90625 C-27.64311699 70.0738385 -27.64311699 70.0738385 -27.83296204 71.26501465 C-30.24920903 85.99536168 -30.24920903 85.99536168 -33 91.9375 C-33.33 92.66839844 -33.66 93.39929688 -34 94.15234375 C-35 96 -35 96 -37 98 C-43.21380314 99.22151686 -50.8941553 100.03117818 -57 98 C-59.18338871 96.1823289 -60.37009779 94.39691501 -62 92 C-62.61875 91.505 -63.2375 91.01 -63.875 90.5 C-65 89 -65 89 -64.72265625 86.4375 C-63.87115083 82.38709585 -62.73244098 78.46753373 -61.5625 74.5 C-59.6234859 67.76017388 -58.31505936 61.18875838 -57.46875 54.21484375 C-56.75929402 49.34915819 -55.43727306 44.695092 -54 40 C-58.07010085 40.4400109 -61.48124299 41.54965144 -65.25 43.0625 C-70.57858955 45.04438685 -75.34520546 46.00211549 -81 45 C-86.52835867 41.94175904 -88.22697465 37.27839051 -90.1875 31.5 C-91.60406583 25.39787028 -91.60406583 25.39787028 -91 22 C-86.52123637 18.47446306 -81.77244447 16.53180311 -76.4375 14.625 C-75.61032471 14.32609863 -74.78314941 14.02719727 -73.9309082 13.71923828 C-58.06814815 8.0978606 -41.79254832 3.98457571 -25.34082031 0.49755859 C-23.3360631 0.07143269 -21.33551644 -0.37442008 -19.3359375 -0.82421875 C-12.45663133 -2.21963357 -6.79425851 -1.7386882 0 0 Z"/>
<path transform="translate(175,0)" fill="#050405" d="M0 0 C3.22868746 -0.14584064 6.45652365 -0.23424106 9.6875 -0.3125 C10.59951172 -0.35439453 11.51152344 -0.39628906 12.45117188 -0.43945312 C19.29272853 -0.56384506 19.29272853 -0.56384506 23.08203125 2.45703125 C23.71496094 3.29621094 24.34789062 4.13539063 25 5 C25.495 5.495 25.495 5.495 26 6 C26.78619978 14.05854774 25.25771279 21.29958673 23 29 C24.134375 28.67 25.26875 28.34 26.4375 28 C34.01596547 26.12877396 40.57264862 26.83931596 48 29 C48 29.66 48 30.32 48 31 C49.13695312 31.33064453 49.13695312 31.33064453 50.296875 31.66796875 C53.71358589 33.35163698 54.52407803 34.95603597 56.25 38.3125 C56.75015625 39.25738281 57.2503125 40.20226563 57.765625 41.17578125 C62.96820413 53.07915059 61.79312408 74.17633302 57.15234375 86.1953125 C55.13937948 90.0908466 52.59717214 92.57658867 49 95 C45.7734375 95.6796875 45.7734375 95.6796875 42.375 95.875 C40.68503906 95.99488281 40.68503906 95.99488281 38.9609375 96.1171875 C36 96 36 96 33 94 C29.01239811 83.4050345 32.95495434 69.18675519 34.63623047 58.41943359 C35.15735557 54.95342708 35.5836892 51.48003492 36 48 C35.05125 48.763125 34.1025 49.52625 33.125 50.3125 C32.59132812 50.74175781 32.05765625 51.17101563 31.5078125 51.61328125 C29.74707893 53.12270545 29.74707893 53.12270545 28 56 C24.875 57.1875 24.875 57.1875 22 58 C22.18046875 58.51949219 22.3609375 59.03898437 22.546875 59.57421875 C24.44548531 69.73833082 20.33148432 89.43466454 15 98 C12.1986646 99.67754387 9.17146241 100.27464048 6 101 C4.783125 101.28875 3.56625 101.5775 2.3125 101.875 C-1.84231707 102.03178555 -3.66684138 101.49986897 -7 99 C-10.67237546 92.512613 -11.30619503 85.44402891 -10.25 78.1796875 C-10.15710693 77.53329315 -10.06421387 76.8868988 -9.96850586 76.22091675 C-8.72309039 67.7742733 -7.1558631 59.37950364 -5.60449219 50.98486328 C-4.13217958 42.98943859 -2.78922497 35.00247071 -1.8125 26.9296875 C-1.72863037 26.25213409 -1.64476074 25.57458069 -1.55834961 24.87649536 C-0.90350494 19.15163767 -0.51109287 13.49342635 -1.625 7.8125 C-2.06234272 4.53242959 -1.31114945 2.97761039 0 0 Z"/>
<path transform="translate(297.0625,242.4375)" fill="#040404" d="M0 0 C0.639375 0.515625 1.27875 1.03125 1.9375 1.5625 C1.9375 2.2225 1.9375 2.8825 1.9375 3.5625 C2.9275 3.8925 3.9175 4.2225 4.9375 4.5625 C4.9375 5.2225 4.9375 5.8825 4.9375 6.5625 C5.5975 6.5625 6.2575 6.5625 6.9375 6.5625 C7.73436606 8.10148561 8.52473141 9.64383784 9.3125 11.1875 C9.75335938 12.04601562 10.19421875 12.90453125 10.6484375 13.7890625 C16.05586228 25.42321885 15.52746021 37.00550527 12.51025391 49.23632812 C11.84225871 51.94931117 11.20973657 54.66985542 10.57421875 57.390625 C4.3966472 83.37377919 4.3966472 83.37377919 -1.0625 91.5625 C-1.7225 91.5625 -2.3825 91.5625 -3.0625 91.5625 C-3.7225 93.2125 -4.3825 94.8625 -5.0625 96.5625 C-5.7225 96.5625 -6.3825 96.5625 -7.0625 96.5625 C-7.30613281 97.12195313 -7.54976563 97.68140625 -7.80078125 98.2578125 C-11.73634516 105.44661345 -18.63819749 111.58038785 -25.0625 116.5625 C-25.7225 116.5625 -26.3825 116.5625 -27.0625 116.5625 C-27.0625 117.2225 -27.0625 117.8825 -27.0625 118.5625 C-28.17578125 120.17578125 -28.17578125 120.17578125 -30.0625 121.5625 C-32.98046875 121.85546875 -32.98046875 121.85546875 -36.25 121.75 C-37.33667969 121.72292969 -38.42335938 121.69585937 -39.54296875 121.66796875 C-40.79013672 121.61576172 -40.79013672 121.61576172 -42.0625 121.5625 C-45.31891577 116.32391811 -46.47588885 110.73637259 -46.0625 104.5625 C-43.65764179 99.1838924 -39.07928574 95.46885669 -34.88867188 91.46679688 C-32.18545817 88.83824039 -29.8013054 86.3462471 -27.77734375 83.15234375 C-27.21144531 82.29769531 -26.64554687 81.44304687 -26.0625 80.5625 C-25.4025 80.5625 -24.7425 80.5625 -24.0625 80.5625 C-22.59423403 77.13654607 -21.80863857 74.29319283 -21.0625 70.5625 C-24.6925 69.2425 -28.3225 67.9225 -32.0625 66.5625 C-32.0625 65.9025 -32.0625 65.2425 -32.0625 64.5625 C-32.66707031 64.33820313 -33.27164062 64.11390625 -33.89453125 63.8828125 C-38.44293158 61.11279572 -39.64928108 55.44548775 -41.0625 50.5625 C-43.01781548 37.95322195 -42.54837243 25.80467888 -36.0625 14.5625 C-35.4025 14.5625 -34.7425 14.5625 -34.0625 14.5625 C-33.98128906 13.985 -33.90007812 13.4075 -33.81640625 12.8125 C-31.88878162 7.05958918 -24.95721177 2.79712183 -19.75 0.125 C-13.09634596 -2.98561813 -6.71564187 -3.15224006 0 0 Z M-16.5546875 26.375 C-18.43676637 27.85725901 -19.21951955 29.34009701 -20.0625 31.5625 C-21.0525 32.0575 -21.0525 32.0575 -22.0625 32.5625 C-24.16827649 37.99318673 -24.24210487 41.86107647 -23.0625 47.5625 C-20.53774538 48.82487731 -18.75049534 48.66106404 -15.9375 48.625 C-15.02742188 48.61597656 -14.11734375 48.60695313 -13.1796875 48.59765625 C-12.48101562 48.58605469 -11.78234375 48.57445312 -11.0625 48.5625 C-8.03177851 40.71017614 -6.99248579 32.86672604 -6.0625 24.5625 C-10.72583811 23.31840808 -12.58540558 23.90064244 -16.5546875 26.375 Z"/>
<path transform="translate(116,154)" fill="#050405" d="M0 0 C11.34382567 4.53753027 11.34382567 4.53753027 14.1875 8.765625 C15.23841532 11.65564212 15.01242117 13.76293865 14.6875 16.8125 C14.58824219 17.80894531 14.48898438 18.80539063 14.38671875 19.83203125 C14.13276879 21.91236882 13.85230622 23.98967456 13.54296875 26.0625 C12.75740349 31.75926106 12.16418184 37.46265749 11.625 43.1875 C11.49222656 44.36248047 11.35945313 45.53746094 11.22265625 46.74804688 C11.12082031 47.87662109 11.01898438 49.00519531 10.9140625 50.16796875 C10.7586499 51.70360474 10.7586499 51.70360474 10.60009766 53.27026367 C10.74199145 56.22463924 10.74199145 56.22463924 13.38818359 58.2199707 C14.68103271 59.10108521 14.68103271 59.10108521 16 60 C18.57686741 63.17813647 19.00774885 64.54281789 18.9375 68.6875 C18 72 18 72 16.19140625 73.21484375 C8.79095217 75.86634334 -0.07074498 71.52079497 -7 69 C-7.61875 69.825 -8.2375 70.65 -8.875 71.5 C-9.57625 72.325 -10.2775 73.15 -11 74 C-11.66 74 -12.32 74 -13 74 C-13 74.66 -13 75.32 -13 76 C-19.87232122 78.98232808 -27.05025855 81.3158509 -34.52734375 79.328125 C-40.30156098 76.67640461 -42.86958362 72.92809244 -45.125 67.0859375 C-50.08505903 49.59287218 -43.31610924 33.42044726 -34.9296875 18.1953125 C-30.66465657 11.13297383 -26.15623908 4.25728766 -18.125 1.3125 C-11.78865007 0.38068383 -7.62648642 1.24416992 -2 4 C-1.34 2.68 -0.68 1.36 0 0 Z M-14 25 C-16.15581024 28.55285458 -17.65045473 32.33409633 -19.1875 36.1875 C-19.61224609 37.20392578 -20.03699219 38.22035156 -20.47460938 39.26757812 C-21.67849933 42.16777338 -22.84674486 45.0793516 -24 48 C-24.3192041 48.79744629 -24.6384082 49.59489258 -24.96728516 50.41650391 C-26.14099423 53.42194172 -27 55.74394433 -27 59 C-23.45621284 60.18126239 -22.79728809 59.79078416 -19.5 58.3125 C-18.7265625 57.97863281 -17.953125 57.64476562 -17.15625 57.30078125 C-13.88984821 55.33028886 -12.3613525 53.30001371 -11.33984375 49.625 C-11.20707031 48.75875 -11.07429688 47.8925 -10.9375 47 C-10.7828125 46.03578125 -10.628125 45.0715625 -10.46875 44.078125 C-10.3140625 43.06234375 -10.159375 42.0465625 -10 41 C-9.64754622 38.9163762 -9.29339604 36.8330386 -8.9375 34.75 C-8.23576035 30.50640905 -7.58114059 26.26169767 -7 22 C-9.96994703 22 -11.5865251 23.37271094 -14 25 Z"/>
<path transform="translate(234,256)" fill="#050405" d="M0 0 C0 0.66 0 1.32 0 2 C0.86625 2.4021875 0.86625 2.4021875 1.75 2.8125 C4.05550043 4.02929189 6.02056192 5.30333879 8 7 C8 7.66 8 8.32 8 9 C8.66 9 9.32 9 10 9 C10.98414433 10.91411557 11.96213349 12.8313967 12.9375 14.75 C13.48277344 15.81734375 14.02804688 16.8846875 14.58984375 17.984375 C17.64894985 24.5262861 18.23064603 31.74147734 16.2109375 38.73046875 C15.22894837 41.20792989 14.16647442 43.60433748 13 46 C12.69191406 46.64582031 12.38382813 47.29164063 12.06640625 47.95703125 C11.40104191 49.31641198 10.70489852 50.66069281 10 52 C9.34 52 8.68 52 8 52 C7.84724609 52.83724609 7.84724609 52.83724609 7.69140625 53.69140625 C5.62082162 60.60505324 0.32873892 66.75709012 -5.96875 70.16015625 C-12.03747117 72.66933904 -16.81558098 72.27615328 -22.90234375 69.9375 C-30.58726529 66.50289819 -35.47496312 60.83467187 -38.8125 53.1875 C-41.87131414 44.9769989 -42.65537557 35.22222425 -39.4375 26.875 C-38.65692603 25.23442524 -37.84115544 23.61035362 -37 22 C-36.49082031 20.92621094 -35.98164063 19.85242188 -35.45703125 18.74609375 C-30.13140473 8.03390677 -24.23122596 2.12033142 -13 -2 C-8.1750546 -3.60831513 -4.54540006 -1.9480286 0 0 Z M-5 20 C-8.30347992 22.22984895 -10.86456293 24.62825726 -13 28 C-13 28.66 -13 29.32 -13 30 C-13.99 30.495 -13.99 30.495 -15 31 C-17.68029846 36.61879081 -18.335321 41.85244834 -18 48 C-15.05939563 48.32455964 -15.05939563 48.32455964 -13.53515625 46.75 C-7.65598272 39.76360812 -2 30.40581119 -2 21 C-2.99 20.67 -3.98 20.34 -5 20 Z"/>
<path transform="translate(340,122)" fill="#050405" d="M0 0 C5.87615276 5.4354413 8.94055716 10.76222864 10.875 18.5 C11.03146195 22.88093452 10.17902636 25.20427666 8 29 C4.31923006 32.51718016 0.24087746 35.20487622 -4 38 C-4.66 38.66 -5.32 39.32 -6 40 C-7.33333333 41.33333333 -8.66666667 42.66666667 -10 44 C-9.30132812 44.17015625 -8.60265625 44.3403125 -7.8828125 44.515625 C-6.97273438 44.75796875 -6.06265625 45.0003125 -5.125 45.25 C-4.22007812 45.48203125 -3.31515625 45.7140625 -2.3828125 45.953125 C0.48392149 47.21260813 0.83995481 48.18435634 2 51 C2.99 51.495 2.99 51.495 4 52 C4.02708567 53.60407328 4.04643483 55.2082785 4.0625 56.8125 C4.07410156 57.70582031 4.08570313 58.59914062 4.09765625 59.51953125 C4 62 4 62 3 65 C-5.16917969 69.61736243 -13.80371179 70.32453557 -23 69 C-31.51989698 66.5044741 -39.36715418 61.63017713 -43.8125 53.8125 C-46.32198308 45.75573854 -44.96942497 38.04895422 -43 30 C-42.78214844 29.08992188 -42.56429688 28.17984375 -42.33984375 27.2421875 C-39.90571328 17.69188326 -36.74612264 6.88814864 -28.125 1.25 C-19.37073023 -3.74555578 -8.99190243 -5.53347842 0 0 Z M-21 20.25 C-22.75981787 22.66974957 -23.67467334 24.07206006 -24 27 C-23.01 27.495 -23.01 27.495 -22 28 C-19.70040581 26.80291048 -17.56020931 25.56726357 -15.375 24.1875 C-14.76398438 23.81818359 -14.15296875 23.44886719 -13.5234375 23.06835938 C-11.97608232 22.10644326 -10.48274264 21.05880355 -9 20 C-9 19.34 -9 18.68 -9 18 C-15.42042904 17.36614928 -15.42042904 17.36614928 -21 20.25 Z"/>
<path transform="translate(269.4375,21.75)" fill="#060607" d="M0 0 C1.91619141 -0.00773437 1.91619141 -0.00773437 3.87109375 -0.015625 C7.48662489 0.2445402 10.20350007 0.93478594 13.5625 2.25 C14.25214844 2.51039062 14.94179688 2.77078125 15.65234375 3.0390625 C22.15713311 5.98203274 26.52020933 10.6093949 30 16.8125 C30.73563779 20.00026376 30.690265 22.99199254 30.5625 26.25 C25.80365149 29.09670137 21.13619081 31.39530236 15.9375 33.3125 C14.90677368 33.699823 14.90677368 33.699823 13.85522461 34.0949707 C8.29145457 36.124518 2.77477475 37.45956517 -3.05859375 38.51171875 C-3.84363281 38.75535156 -4.62867188 38.99898437 -5.4375 39.25 C-5.7675 40.24 -6.0975 41.23 -6.4375 42.25 C-1.9892962 42.48829663 1.33036507 42.53534641 5.4375 40.75 C10.09841826 38.82483811 14.58098568 38.46530128 19.5625 39.25 C22.66271993 41.21599313 23.32086143 42.58549393 24.5625 46 C24.5625 50.55234694 23.34500983 53.65046512 20.5625 57.25 C14.03408125 62.43203023 3.53192583 64.72030075 -4.625 64.1875 C-13.78035043 62.78123817 -20.86162243 58.7282358 -26.4375 51.25 C-27.81335322 48.30786405 -28.68540501 45.40134016 -29.4375 42.25 C-29.9325 40.765 -29.9325 40.765 -30.4375 39.25 C-30.95552968 29.21468094 -28.01863138 18.04145439 -21.4375 10.25 C-19.52086384 8.41080369 -17.56068525 6.86546704 -15.4375 5.25 C-14.921875 4.693125 -14.40625 4.13625 -13.875 3.5625 C-9.8845663 -0.08093947 -5.15590229 -0.02076899 0 0 Z M-9.4375 23.25 C-2.08737044 22.67351925 4.57674576 20.53953836 11.5625 18.25 C4.63771174 13.63347449 -4.21352723 17.46216985 -9.4375 23.25 Z"/>
<path transform="translate(465,87)" fill="#060506" d="M0 0 C2.17823427 2.15692082 3.84457601 4.39228854 5.5546875 6.93359375 C6.83768794 9.11743475 6.83768794 9.11743475 9 10 C9 13.96 9 17.92 9 22 C4.01925087 24.62144691 -0.54292351 26.63573088 -6 28 C-6.90678583 30.16022805 -6.90678583 30.16022805 -7 33 C-5.67667842 35.50318572 -4.37211875 37.64730499 -2.75 39.9375 C5.43925363 51.85970993 5.43925363 51.85970993 5.375 57 C5.38660156 57.928125 5.38660156 57.928125 5.3984375 58.875 C4.32591254 64.59513315 0.82045119 68.67932593 -3 72.875 C-4.299375 74.32519531 -4.299375 74.32519531 -5.625 75.8046875 C-8 78 -8 78 -11 78 C-11 78.66 -11 79.32 -11 80 C-20.1263036 83.60690308 -29.15320985 86.72769629 -39 84 C-41.5625 82.0625 -41.5625 82.0625 -43 79 C-43.43363222 74.94426339 -43.85795892 70.71591784 -42 67 C-37.01224128 63.72678334 -31.54426132 61.27297731 -26.08203125 58.91015625 C-21.20398058 56.98155896 -21.20398058 56.98155896 -17 54 C-17.83144531 53.31164062 -17.83144531 53.31164062 -18.6796875 52.609375 C-19.40414063 51.99578125 -20.12859375 51.3821875 -20.875 50.75 C-21.59429687 50.14671875 -22.31359375 49.5434375 -23.0546875 48.921875 C-24.97052118 47.02912366 -25.96449045 45.46342273 -27 43 C-27.66 43 -28.32 43 -29 43 C-32.33742456 37.39741581 -32.07051525 30.22659931 -30.50048828 24.02783203 C-29.22223337 19.92998577 -27.66152048 15.95797914 -26 12 C-25.34 12 -24.68 12 -24 12 C-23.74734375 11.40445313 -23.4946875 10.80890625 -23.234375 10.1953125 C-20.63976107 5.58084089 -15.7104337 2.78394878 -11 0.625 C-3.11011236 -1.01872659 -3.11011236 -1.01872659 0 0 Z"/>
<path transform="translate(191.3125,151.3125)" fill="#050405" d="M0 0 C2.96990799 1.82805796 3.54818347 2.26955041 4.6875 5.6875 C5.3475 5.6875 6.0075 5.6875 6.6875 5.6875 C7.5 7.8125 7.5 7.8125 7.6875 10.6875 C5.5554814 15.03353791 5.5554814 15.03353791 2.6875 16.6875 C-1.68968393 17.2009061 -5.92614833 17.03429794 -10.3125 16.6875 C-10.6425 17.3475 -10.9725 18.0075 -11.3125 18.6875 C-12.281875 19.491875 -13.25125 20.29625 -14.25 21.125 C-17.40420406 23.5193759 -17.40420406 23.5193759 -19.3125 26.6875 C-19.9725 26.6875 -20.6325 26.6875 -21.3125 26.6875 C-23.57307907 32.0160078 -25.21580277 37.30482421 -25.875 43.0625 C-26.3125 46.6875 -26.3125 46.6875 -27.3125 47.6875 C-27.51671348 50.96626092 -27.6585239 54.23768796 -27.7421875 57.52148438 C-27.95139837 62.24180462 -28.76308638 65.57594568 -31.3125 69.6875 C-35.02768607 72.20071411 -38.81084616 71.83227996 -43.12890625 71.66015625 C-46.65404645 70.08992385 -47.97409066 67.13036829 -49.3125 63.6875 C-49.7818424 60.83446713 -50.05496471 58.35489315 -50.125 55.5 C-50.16898926 54.33694336 -50.16898926 54.33694336 -50.21386719 53.15039062 C-51.37183386 13.46227273 -51.37183386 13.46227273 -43.125 0.875 C-40.20711101 -1.03672037 -37.71086453 -0.60546246 -34.3125 -0.3125 C-33.425625 0.05875 -32.53875 0.43 -31.625 0.8125 C-29.37293868 1.95880077 -29.37293868 1.95880077 -27.375 0.9375 C-26.694375 0.525 -26.01375 0.1125 -25.3125 -0.3125 C-17.22136135 -3.45775477 -7.83256168 -4.16732449 0 0 Z"/>
<path transform="translate(375,111)" fill="#050405" d="M0 0 C2.4375 2.0625 2.4375 2.0625 4 4 C4.9075 3.525625 5.815 3.05125 6.75 2.5625 C11.68376321 0.19049846 15.47664427 -0.54328089 21 0 C26.3838549 2.19173823 30.95296648 4.9216108 34 10 C35.30392004 13.39019211 35.11801228 14.67218811 33.875 18.125 C31.81485069 21.28389561 30.48338742 22.59005747 27 24 C25.32706064 23.69972883 23.66014616 23.36442233 22 23 C15.99220088 24.11773007 10.50787011 27.97602555 6 32 C4.81729124 35.33283192 4.83134816 38.64554988 4.75390625 42.15625 C4.72103516 43.34347656 4.68816406 44.53070313 4.65429688 45.75390625 C4.59310123 48.25120947 4.53580914 50.7486114 4.48242188 53.24609375 C4.44826172 54.43332031 4.41410156 55.62054688 4.37890625 56.84375 C4.3538501 57.92849609 4.32879395 59.01324219 4.30297852 60.13085938 C4.0047701 62.95482822 3.51920392 64.62699185 2 67 C-1.43868806 69.50931291 -5.06417935 70.85602759 -9.25 71.5 C-12.71478778 70.87003858 -13.87151322 69.75914953 -16 67 C-17.50407511 62.48777467 -17.19121397 58.04075646 -17.1875 53.3125 C-17.18669434 52.25264893 -17.18588867 51.19279785 -17.18505859 50.10083008 C-17.12741128 42.43430316 -16.75687761 34.8274747 -16.125 27.1875 C-16.04660889 26.22948486 -15.96821777 25.27146973 -15.88745117 24.28442383 C-14.2788467 6.57126724 -14.2788467 6.57126724 -11 1 C-7.43300025 -1.77433314 -4.20504308 -1.05126077 0 0 Z"/>
<path transform="translate(421,69)" fill="#060506" d="M0 0 C5.42244184 0.43379535 8.84966227 1.41561741 13 5 C16.08317893 10.24140418 16.79072159 15.05945062 16 21 C15.18961755 23.80373697 14.17166281 26.3149394 13 29 C12.34 29 11.68 29 11 29 C10.86980469 29.72058594 10.73960937 30.44117187 10.60546875 31.18359375 C9.31755797 37.17445615 7.70064079 42.48027844 3.0625 46.625 C-1.81750742 48.81602374 -1.81750742 48.81602374 -5 48 C-8.9540509 44.41376779 -11.03694083 40.87473722 -11.98046875 35.6015625 C-12.01293854 31.27658712 -10.62774051 27.5351004 -9.2109375 23.484375 C-7.57918808 18.78914763 -6.37325794 14.00054287 -5.125 9.19140625 C-3.85258261 5.58180554 -2.23478848 3.08680158 0 0 Z"/>
<path transform="translate(396,111)" fill="#111013" d="M0 0 C5.38378871 2.20080552 9.95004026 4.91673377 13 10 C14.04701353 13.3826591 14.13517413 14.59447761 13 18 C12.34 18 11.68 18 11 18 C11 17.34 11 16.68 11 16 C10.34 16 9.68 16 9 16 C8.67 13.36 8.34 10.72 8 8 C7.01 8.33 6.02 8.66 5 9 C4.566875 8.54625 4.13375 8.0925 3.6875 7.625 C1.23732705 5.03593109 1.23732705 5.03593109 -2 4 C-3.52317036 3.67751403 -5.0436541 3.34227513 -6.5625 3 C-7.80193359 2.7215625 -7.80193359 2.7215625 -9.06640625 2.4375 C-10.02353516 2.2209375 -10.02353516 2.2209375 -11 2 C-7.06707343 -0.12429223 -4.52452717 -0.51920804 0 0 Z"/>
<path transform="translate(142,208)" fill="#141014" d="M0 0 C0.33 0 0.66 0 1 0 C1.66 2.31 2.32 4.62 3 7 C5.97 7.495 5.97 7.495 9 8 C9 8.66 9 9.32 9 10 C9.9075 9.62875 10.815 9.2575 11.75 8.875 C15 8 15 8 17.375 8.875 C17.91125 9.24625 18.4475 9.6175 19 10 C18 13 18 13 16 14.25 C11.79490002 15.30127499 8.13218923 15.44164064 4 14 C0.64737302 10.8346208 0.03558122 7.56040417 -0.25 3.0625 C-0.1675 2.051875 -0.085 1.04125 0 0 Z"/>
<path transform="translate(145,340)" fill="#080709" d="M0 0 C1.32 0.66 2.64 1.32 4 2 C4 2.66 4 3.32 4 4 C0.27721813 6.21935073 -2.77365392 8.02468937 -7 9 C-7.33 9.66 -7.66 10.32 -8 11 C-10.9737344 12.09036928 -11.88407501 12.03864166 -15 11 C-15.33 10.01 -15.66 9.02 -16 8 C-15.34 8 -14.68 8 -14 8 C-14.33 7.01 -14.66 6.02 -15 5 C-11.5275795 4.13189487 -9.41868609 4.11775843 -6 5 C-3.73317694 4.5999724 -2.06007225 4.03003612 0 3 C0 2.01 0 1.02 0 0 Z"/>
<path transform="translate(297.0625,242.4375)" fill="#100E12" d="M0 0 C0.639375 0.515625 1.27875 1.03125 1.9375 1.5625 C1.9375 2.2225 1.9375 2.8825 1.9375 3.5625 C2.9275 3.8925 3.9175 4.2225 4.9375 4.5625 C4.9375 5.2225 4.9375 5.8825 4.9375 6.5625 C5.5975 6.5625 6.2575 6.5625 6.9375 6.5625 C6.6075 7.2225 6.2775 7.8825 5.9375 8.5625 C4.9475 8.8925 3.9575 9.2225 2.9375 9.5625 C2.9375 8.9025 2.9375 8.2425 2.9375 7.5625 C2.2775 7.2325 1.6175 6.9025 0.9375 6.5625 C0.6075 5.9025 0.2775 5.2425 -0.0625 4.5625 C-1.0525 5.0575 -1.0525 5.0575 -2.0625 5.5625 C-4.625 4.875 -4.625 4.875 -7.0625 3.5625 C-7.6875 1.5 -7.6875 1.5 -8.0625 -0.4375 C-9.0525 -0.7675 -10.0425 -1.0975 -11.0625 -1.4375 C-10.7325 -0.4475 -10.4025 0.5425 -10.0625 1.5625 C-11.0525 2.0575 -11.0525 2.0575 -12.0625 2.5625 C-14.6875 1.625 -14.6875 1.625 -17.0625 0.5625 C-16.0625 -1.4375 -16.0625 -1.4375 -14.27734375 -2.078125 C-9.30635294 -2.88470552 -4.52976579 -2.1262166 0 0 Z"/>
<path transform="translate(270,193)" fill="#100F12" d="M0 0 C1.34187818 0.6492959 2.67479497 1.31731862 4 2 C4.99 2 5.98 2 7 2 C8.67099977 2.31088368 10.33871537 2.64080332 12 3 C12 3.66 12 4.32 12 5 C9.2851449 7.07606567 7.33338639 7.95237337 3.9375 8.4375 C0.36011426 7.90469787 -0.75828653 6.75903196 -3 4 C-2.67 3.01 -2.34 2.02 -2 1 C-1.34 0.67 -0.68 0.34 0 0 Z"/>
<path transform="translate(316,121)" fill="#0C0A0D" d="M0 0 C0.66 0.33 1.32 0.66 2 1 C2 2.65 2 4.3 2 6 C1.113125 6.268125 0.22625 6.53625 -0.6875 6.8125 C-3.80707281 7.93083742 -6.3080828 9.077202 -9 11 C-9.33 11.99 -9.66 12.98 -10 14 C-10.99 14.33 -11.98 14.66 -13 15 C-12.26287236 10.20867032 -9.84615788 6.43305721 -6.02734375 3.46875 C-2.14968553 0.93525279 -2.14968553 0.93525279 0 0 Z"/>
<path transform="translate(10,160)" fill="#1D1C1E" d="M0 0 C0.33 0 0.66 0 1 0 C0.98839844 0.61746094 0.97679687 1.23492187 0.96484375 1.87109375 C0.90300337 7.67525544 1.25721044 13.24338088 2 19 C1.01 19 0.02 19 -1 19 C-1.99 23.95 -2.98 28.9 -4 34 C-4.33 34 -4.66 34 -5 34 C-4.35347954 22.3456181 -2.6059439 11.35446985 0 0 Z"/>
<path transform="translate(72.5,120.3125)" fill="#222127" d="M0 0 C1.93359375 0.11794922 1.93359375 0.11794922 3.90625 0.23828125 C7.15259731 0.64407466 9.56073572 1.30265433 12.5 2.6875 C12.5 3.3475 12.5 4.0075 12.5 4.6875 C13.16 4.6875 13.82 4.6875 14.5 4.6875 C14.72174933 6.14385371 14.92698698 7.60272956 15.125 9.0625 C15.29902344 10.28066406 15.29902344 10.28066406 15.4765625 11.5234375 C15.48429687 12.23757812 15.49203125 12.95171875 15.5 13.6875 C14.84 14.3475 14.18 15.0075 13.5 15.6875 C13.17 12.7175 12.84 9.7475 12.5 6.6875 C11.18 6.6875 9.86 6.6875 8.5 6.6875 C8.5 5.6975 8.5 4.7075 8.5 3.6875 C5.84081834 2.80110611 4.01935359 2.50760975 1.26953125 2.37109375 C0.06586914 2.30825195 0.06586914 2.30825195 -1.16210938 2.24414062 C-1.99548828 2.20482422 -2.82886719 2.16550781 -3.6875 2.125 C-4.53248047 2.08181641 -5.37746094 2.03863281 -6.24804688 1.99414062 C-8.33184433 1.88818482 -10.41590103 1.7873498 -12.5 1.6875 C-12.5 1.3575 -12.5 1.0275 -12.5 0.6875 C-8.22041299 -0.40708668 -4.39386528 -0.29438897 0 0 Z"/>
<path transform="translate(69,46)" fill="#141314" d="M0 0 C0.66 0 1.32 0 2 0 C2.66 1.65 3.32 3.3 4 5 C4.78375 4.484375 5.5675 3.96875 6.375 3.4375 C7.24125 2.963125 8.1075 2.48875 9 2 C9.66 2.33 10.32 2.66 11 3 C10.9278125 3.63808594 10.855625 4.27617188 10.78125 4.93359375 C10.6884375 5.75988281 10.595625 6.58617187 10.5 7.4375 C10.4071875 8.26121094 10.314375 9.08492187 10.21875 9.93359375 C10.05543721 11.4639499 10.05543721 11.4639499 10 13 C9.67 13.66 9.34 14.32 9 15 C4.02656672 11.50515499 1.72661494 8.03857156 0.3125 2.125 C0.209375 1.42375 0.10625 0.7225 0 0 Z"/>
<path transform="translate(157,151)" fill="#070509" d="M0 0 C0 0.33 0 0.66 0 1 C-1.98 1.33 -3.96 1.66 -6 2 C-6 2.99 -6 3.98 -6 5 C-5.34 5.66 -4.68 6.32 -4 7 C-6.66666667 9.66666667 -9.33333333 12.33333333 -12 15 C-13.13089582 11.60731255 -12.86432909 10.77743849 -11.75 7.5 C-11.49734375 6.7265625 -11.2446875 5.953125 -10.984375 5.15625 C-8.48461249 -0.31942026 -5.78890678 -0.32767397 0 0 Z"/>
<path transform="translate(207,80)" fill="#1F1D1F" d="M0 0 C0.33 0 0.66 0 1 0 C1.061875 1.258125 1.12375 2.51625 1.1875 3.8125 C1.38370156 6.01154235 1.38370156 6.01154235 2 8 C4.46115547 9.84434349 4.46115547 9.84434349 7 11 C7 11.99 7 12.98 7 14 C8.32 14 9.64 14 11 14 C11 13.01 11 12.02 11 11 C11.66 11.33 12.32 11.66 13 12 C14.66194453 12.35613097 16.328451 12.69208308 18 13 C17.67 13.66 17.34 14.32 17 15 C14.1640625 15.484375 14.1640625 15.484375 10.625 15.75 C9.46226562 15.84796875 8.29953125 15.9459375 7.1015625 16.046875 C4 16 4 16 1 14 C-0.16216154 10.94517539 -0.10513524 7.99027838 -0.0625 4.75 C-0.05347656 3.85796875 -0.04445312 2.9659375 -0.03515625 2.046875 C-0.02355469 1.37140625 -0.01195312 0.6959375 0 0 Z"/>
<path transform="translate(198,157)" fill="#151316" d="M0 0 C0.8125 2.125 0.8125 2.125 1 5 C-1.2084898 9.33518367 -1.2084898 9.33518367 -4 11 C-8.04818628 11.50996632 -11.94234173 11.34946339 -16 11 C-14 9 -14 9 -12.0546875 8.8046875 C-10.03645833 8.86979167 -8.01822917 8.93489583 -6 9 C-6.268125 8.443125 -6.53625 7.88625 -6.8125 7.3125 C-7 5 -7 5 -4.6875 2.25 C-2 0 -2 0 0 0 Z"/>
<path transform="translate(233,160)" fill="#100E12" d="M0 0 C1.32 0 2.64 0 4 0 C4.85691641 3.42766564 5.01174497 5.62751675 4 9 C4 9.99 4 10.98 4 12 C4.66 12 5.32 12 6 12 C5.34 13.32 4.68 14.64 4 16 C3.67 15.67 3.34 15.34 3 15 C2.34 15.66 1.68 16.32 1 17 C0.34 16.67 -0.32 16.34 -1 16 C-0.01 11.71 0.98 7.42 2 3 C0.68 3.33 -0.64 3.66 -2 4 C-1.34 2.68 -0.68 1.36 0 0 Z"/>
<path transform="translate(185,302)" fill="#0F0D0F" d="M0 0 C0.66 0.33 1.32 0.66 2 1 C0.125 5.75 0.125 5.75 -1 8 C-1.66 8 -2.32 8 -3 8 C-3.28875 8.78375 -3.5775 9.5675 -3.875 10.375 C-5 13 -5 13 -7 15 C-8.125 11.25 -8.125 11.25 -7 9 C-6.34 9 -5.68 9 -5 9 C-5.99 8.01 -6.98 7.02 -8 6 C-7.67 5.01 -7.34 4.02 -7 3 C-5.5459375 2.814375 -5.5459375 2.814375 -4.0625 2.625 C-2.5465625 2.315625 -2.5465625 2.315625 -1 2 C-0.67 1.34 -0.34 0.68 0 0 Z"/>
<path transform="translate(197,311)" fill="#0E0D0E" d="M0 0 C0.7425 0.350625 1.485 0.70125 2.25 1.0625 C5.17937817 2.06115165 6.15369057 1.91488517 9 1 C10 2 10 2 11 5 C10.34742127 6.672233 9.68132451 8.33927151 9 10 C9.33 10.66 9.66 11.32 10 12 C6.60812721 10.58426179 4.90302459 8.95769034 2.75 6 C2.22921875 5.29875 1.7084375 4.5975 1.171875 3.875 C0 2 0 2 0 0 Z"/>
<path transform="translate(85,32)" fill="#151115" d="M0 0 C-1.65 0.33 -3.3 0.66 -5 1 C-4.67 1.99 -4.34 2.98 -4 4 C-9.31373725 8.0779844 -9.31373725 8.0779844 -12.75 7.6875 C-13.4925 7.460625 -14.235 7.23375 -15 7 C-15.99 7.495 -15.99 7.495 -17 8 C-16 5 -16 5 -13.8203125 3.6484375 C-12.93085937 3.22820313 -12.04140625 2.80796875 -11.125 2.375 C-9.79855469 1.73691406 -9.79855469 1.73691406 -8.4453125 1.0859375 C-3.42739726 -1.14246575 -3.42739726 -1.14246575 0 0 Z"/>
<path transform="translate(277,308)" fill="#191718" d="M0 0 C0.99 0.33 1.98 0.66 3 1 C3 1.99 3 2.98 3 4 C2.34 4 1.68 4 1 4 C1.33 5.32 1.66 6.64 2 8 C1.34 8 0.68 8 0 8 C0.20625 8.61875 0.4125 9.2375 0.625 9.875 C0.74875 10.57625 0.8725 11.2775 1 12 C0.34 12.66 -0.32 13.32 -1 14 C-1 14.66 -1 15.32 -1 16 C-1.66 16 -2.32 16 -3 16 C-3.33 16.66 -3.66 17.32 -4 18 C-4.66 17.67 -5.32 17.34 -6 17 C-6 16.34 -6 15.68 -6 15 C-5.34 15 -4.68 15 -4 15 C-2.5783681 11.6828589 -1.60990891 8.55780196 -1 5 C-3.31 4.34 -5.62 3.68 -8 3 C-8 2.34 -8 1.68 -8 1 C-5.69 1.66 -3.38 2.32 -1 3 C-0.67 2.01 -0.34 1.02 0 0 Z"/>
<path transform="translate(108,261)" fill="#1C1A1C" d="M0 0 C0.33 0 0.66 0 1 0 C0.67 3.63 0.34 7.26 0 11 C0.66 11 1.32 11 2 11 C1.125 15.875 1.125 15.875 0 17 C-0.04063832 18.66617115 -0.042721 20.33388095 0 22 C-0.66 22 -1.32 22 -2 22 C-2.66 22.99 -3.32 23.98 -4 25 C-3.24595285 16.55467195 -1.62171958 8.31258777 0 0 Z"/>
<path transform="translate(142,208)" fill="#1C191C" d="M0 0 C0.33 0 0.66 0 1 0 C1.66 2.31 2.32 4.62 3 7 C5.97 7.495 5.97 7.495 9 8 C9 8.66 9 9.32 9 10 C9.66 10.33 10.32 10.66 11 11 C7.66248432 13.97992472 7.66248432 13.97992472 4.9375 14.0625 C1.84938999 12.36902031 1.2021193 10.24572212 0 7 C-0.1875 3.125 -0.1875 3.125 0 0 Z"/>
<path transform="translate(38,156)" fill="#1D1C1D" d="M0 0 C0.66 0.33 1.32 0.66 2 1 C1.67515625 2.34191406 1.67515625 2.34191406 1.34375 3.7109375 C-1.84055959 15.4139858 -1.84055959 15.4139858 0 27 C-0.99 26.67 -1.98 26.34 -3 26 C-3.02712153 24.083412 -3.04645097 22.1667127 -3.0625 20.25 C-3.07410156 19.18265625 -3.08570313 18.1153125 -3.09765625 17.015625 C-3.01510087 14.46631499 -2.74617558 12.42066409 -2 10 C-2.66 10 -3.32 10 -4 10 C-4.33 9.01 -4.66 8.02 -5 7 C-4.54625 6.5875 -4.0925 6.175 -3.625 5.75 C-1.94049626 3.93591905 -1.00734029 2.24714373 0 0 Z"/>
<path transform="translate(459,123)" fill="#0F0D0F" d="M0 0 C3.67758005 3.28355362 5.81389118 6.62778237 8 11 C7 13 7 13 5 14 C4.67 12.02 4.34 10.04 4 8 C2.68 8.33 1.36 8.66 0 9 C-1.125 6.75 -1.125 6.75 -2 4 C-1.125 1.6875 -1.125 1.6875 0 0 Z"/>
<path transform="translate(273,278)" fill="#1B191C" d="M0 0 C1.3271261 3.9813783 1.06915913 7.85045227 1 12 C2.95803507 12.05389087 4.91648909 12.09274217 6.875 12.125 C7.96554687 12.14820313 9.05609375 12.17140625 10.1796875 12.1953125 C13.1371051 12.30060534 13.1371051 12.30060534 15 10 C14.67 11.32 14.34 12.64 14 14 C10.37 14 6.74 14 3 14 C2.67 14.99 2.34 15.98 2 17 C1.34 17 0.68 17 0 17 C-1.33431286 11.99632677 -2.37905675 4.7581135 0 0 Z"/>
<path transform="translate(276,264)" fill="#100F12" d="M0 0 C0.86625 0.5259375 0.86625 0.5259375 1.75 1.0625 C4.41175298 2.17156374 5.30741458 1.71802278 8 1 C8.66 1.66 9.32 2.32 10 3 C2.71428571 7.42857143 2.71428571 7.42857143 -2 8 C-2.33 7.34 -2.66 6.68 -3 6 C-1.44444444 1.44444444 -1.44444444 1.44444444 0 0 Z"/>
<path transform="translate(112,157)" fill="#181719" d="M0 0 C-1.625 1.125 -1.625 1.125 -4 2 C-7.25 1.125 -7.25 1.125 -10 0 C-10.33 0.99 -10.66 1.98 -11 3 C-11 2.01 -11 1.02 -11 0 C-11.99 0 -12.98 0 -14 0 C-14.33 0.99 -14.66 1.98 -15 3 C-17.31 3.33 -19.62 3.66 -22 4 C-16.18167445 -2.71345255 -7.93454646 -3.84705283 0 0 Z"/>
<path transform="translate(403.265625,128.34765625)" fill="#120F12" d="M0 0 C0.57234375 0.21527344 1.1446875 0.43054688 1.734375 0.65234375 C1.734375 2.30234375 1.734375 3.95234375 1.734375 5.65234375 C-2.00049379 6.22693895 -5.47855768 6.65234375 -9.265625 6.65234375 C-9.595625 5.99234375 -9.925625 5.33234375 -10.265625 4.65234375 C-9.02618224 3.78292881 -7.77355441 2.93228918 -6.515625 2.08984375 C-5.81953125 1.61417969 -5.1234375 1.13851562 -4.40625 0.6484375 C-2.265625 -0.34765625 -2.265625 -0.34765625 0 0 Z"/>
<path transform="translate(373,110)" fill="#19181D" d="M0 0 C-0.99 0.66 -1.98 1.32 -3 2 C-3.72965366 4.56282742 -3.72965366 4.56282742 -4 7 C-5.32 6.67 -6.64 6.34 -8 6 C-9.4216319 9.3171411 -10.39009109 12.44219804 -11 16 C-11.33 16 -11.66 16 -12 16 C-12.3459973 10.34871077 -11.68154755 6.88424732 -9 2 C-6.09562071 -0.22669079 -3.58728717 -0.19929373 0 0 Z"/>
<path transform="translate(306,255)" fill="#272527" d="M0 0 C2.54244171 1.27122085 2.63084559 2.04862547 3.5625 4.6875 C5.52726206 10.91258795 6.17581381 17.48651696 6 24 C5.34 24.99 4.68 25.98 4 27 C3.96261719 25.89140625 3.92523438 24.7828125 3.88671875 23.640625 C3.82104552 22.17705026 3.75459865 20.71351009 3.6875 19.25 C3.66494141 18.52039063 3.64238281 17.79078125 3.61914062 17.0390625 C3.40044473 12.66514461 2.82777838 10.30910236 0 7 C-0.1875 3.25 -0.1875 3.25 0 0 Z"/>
<path transform="translate(427,98)" fill="#121013" d="M0 0 C0.99 0.33 1.98 0.66 3 1 C4.02095523 3.35999701 4.09196987 4.647556 3.44140625 7.140625 C3.15136719 7.83671875 2.86132812 8.5328125 2.5625 9.25 C2.27503906 9.95640625 1.98757813 10.6628125 1.69140625 11.390625 C1.46324219 11.92171875 1.23507812 12.4528125 1 13 C0.67 12.01 0.34 11.02 0 10 C-0.99 9.67 -1.98 9.34 -3 9 C-3 8.34 -3 7.68 -3 7 C-2.34 7 -1.68 7 -1 7 C-1.33 6.01 -1.66 5.02 -2 4 C-1.0625 1.8125 -1.0625 1.8125 0 0 Z"/>
<path transform="translate(103,206)" fill="#131114" d="M0 0 C1 2 1 2 0.25 4.4375 C-0.93098981 6.85852911 -1.9831559 8.25818009 -4 10 C-6.31 9.34 -8.62 8.68 -11 8 C-8.82563934 6.22829872 -7.0116321 5.00443128 -4.375 4 C-1.68440435 3.12416419 -1.68440435 3.12416419 0 0 Z"/>
<path transform="translate(213,321)" fill="#131012" d="M0 0 C3 1 3 1 6 3 C6 3.66 6 4.32 6 5 C7.65 5 9.3 5 11 5 C8 7 8 7 5.51953125 6.7578125 C4.62621094 6.54898437 3.73289063 6.34015625 2.8125 6.125 C1.91144531 5.92132813 1.01039063 5.71765625 0.08203125 5.5078125 C-0.60503906 5.34023438 -1.29210937 5.17265625 -2 5 C-1.34 3.35 -0.68 1.7 0 0 Z"/>
<path transform="translate(333,136)" fill="#131215" d="M0 0 C2 1 2 1 2.8125 2.875 C3 5 3 5 1.5625 6.75 C1.046875 7.1625 0.53125 7.575 0 8 C-0.66 6.68 -1.32 5.36 -2 4 C-4.64 4 -7.28 4 -10 4 C-10 3.67 -10 3.34 -10 3 C-8.63875 2.814375 -8.63875 2.814375 -7.25 2.625 C-4.08163995 2.16750266 -4.08163995 2.16750266 -1.75 0.875 C-0.88375 0.441875 -0.88375 0.441875 0 0 Z"/>
<path transform="translate(134,318)" fill="#111011" d="M0 0 C0.66 0.33 1.32 0.66 2 1 C1.50168276 4.68754757 0.89932357 6.60490662 -2 9 C-4 8 -6 7 -8 6 C-7.67 4.68 -7.34 3.36 -7 2 C-6.67 2.66 -6.34 3.32 -6 4 C-3.53199953 2.84826645 -1.95216435 1.95216435 0 0 Z"/>
<path transform="translate(106,219)" fill="#131114" d="M0 0 C7.42857143 -0.28571429 7.42857143 -0.28571429 11 2 C10.01 2.33 9.02 2.66 8 3 C8.33 3.66 8.66 4.32 9 5 C8.05125 4.814375 7.1025 4.62875 6.125 4.4375 C3.10131207 3.71313368 3.10131207 3.71313368 1 5 C1 4.34 1 3.68 1 3 C0.34 3 -0.32 3 -1 3 C-0.67 2.01 -0.34 1.02 0 0 Z"/>
<path transform="translate(256,132)" fill="#1F1D21" d="M0 0 C0.66 0.33 1.32 0.66 2 1 C0.625 3.5 0.625 3.5 -1 6 C-1.66 6 -2.32 6 -3 6 C-3.185625 6.639375 -3.37125 7.27875 -3.5625 7.9375 C-5 10 -5 10 -8.5 10.875 C-9.655 10.91625 -10.81 10.9575 -12 11 C-12.66 10.34 -13.32 9.68 -14 9 C-13.113125 8.938125 -12.22625 8.87625 -11.3125 8.8125 C-7.20398879 7.80475197 -5.76189868 6.13512823 -3 3 C-2 2 -1 1 0 0 Z"/>
<path transform="translate(469,105)" fill="#110F13" d="M0 0 C1.65 1.32 3.3 2.64 5 4 C1.48812804 6.40814077 -0.72656908 7.36629408 -5 7 C-4.67 5.68 -4.34 4.36 -4 3 C-2.68 2.67 -1.36 2.34 0 2 C0 1.34 0 0.68 0 0 Z"/>
<path transform="translate(133,41)" fill="#1A171B" d="M0 0 C0.66 0 1.32 0 2 0 C2 0.66 2 1.32 2 2 C3.32 2.33 4.64 2.66 6 3 C4.02 3.99 4.02 3.99 2 5 C2.09539062 5.60328125 2.19078125 6.2065625 2.2890625 6.828125 C2.39992187 7.62734375 2.51078125 8.4265625 2.625 9.25 C2.74101562 10.03890625 2.85703125 10.8278125 2.9765625 11.640625 C3.00319395 14.32152459 2.36592084 15.72694089 1 18 C0.95101562 17.18015625 0.90203125 16.3603125 0.8515625 15.515625 C0.77679688 14.43796875 0.70203125 13.3603125 0.625 12.25 C0.55539063 11.18265625 0.48578125 10.1153125 0.4140625 9.015625 C0.0271777 6.19793568 -0.55686166 4.4169634 -2 2 C-1.34 1.34 -0.68 0.68 0 0 Z"/>
<path transform="translate(270,325)" fill="#1D1A1C" d="M0 0 C0 1.66666667 0 3.33333333 0 5 C-1.71363849 6.56598818 -3.53375343 7.94928042 -5.37109375 9.3671875 C-7.22256096 11.22309468 -7.60724082 12.44429941 -8 15 C-8.99 14.67 -9.98 14.34 -11 14 C-11.33 14.66 -11.66 15.32 -12 16 C-12 13 -12 13 -10.13671875 10.87890625 C-9.32847656 10.11449219 -8.52023437 9.35007812 -7.6875 8.5625 C-4.83425217 5.84709022 -2.26987052 3.22483222 0 0 Z"/>
<path transform="translate(230,185)" fill="#292729" d="M0 0 C0.33 0 0.66 0 1 0 C1.66 4.95 2.32 9.9 3 15 C3.66 15 4.32 15 5 15 C5.33 14.34 5.66 13.68 6 13 C7.4606285 15.64738916 8 16.89448334 8 20 C6.68 19.34 5.36 18.68 4 18 C4 17.34 4 16.68 4 16 C3.34 16 2.68 16 2 16 C0.24836544 12.22777911 -0.22490027 9.333361 -0.125 5.1875 C-0.10695312 4.21167969 -0.08890625 3.23585937 -0.0703125 2.23046875 C-0.04710937 1.49441406 -0.02390625 0.75835937 0 0 Z"/>
<path transform="translate(285,49)" fill="#111012" d="M0 0 C3.96 0 7.92 0 12 0 C11 2 11 2 8.71484375 2.8515625 C7.79832031 3.10679688 6.88179688 3.36203125 5.9375 3.625 C4.55884766 4.01558594 4.55884766 4.01558594 3.15234375 4.4140625 C2.44207031 4.60742188 1.73179687 4.80078125 1 5 C0.34 4.34 -0.32 3.68 -1 3 C-0.67 2.01 -0.34 1.02 0 0 Z"/>
<path transform="translate(246,296)" fill="#151415" d="M0 0 C0.66 0.33 1.32 0.66 2 1 C1.39301257 5.12751449 -0.03810791 8.3321148 -2 12 C-2.66 11.67 -3.32 11.34 -4 11 C-3.79375 10.401875 -3.5875 9.80375 -3.375 9.1875 C-2.69328085 6.71549154 -2.69328085 6.71549154 -5 4 C-4.01 3.67 -3.02 3.34 -2 3 C-1.34 2.01 -0.68 1.02 0 0 Z"/>
<path transform="translate(269,248)" fill="#1E1C20" d="M0 0 C0.66 0.33 1.32 0.66 2 1 C2 3.33333333 2 5.66666667 2 8 C1.05125 7.814375 0.1025 7.62875 -0.875 7.4375 C-3.89868793 6.71313368 -3.89868793 6.71313368 -6 8 C-4.55746343 4.63408134 -2.66735273 2.48952921 0 0 Z"/>
<path transform="translate(264,65)" fill="#141215" d="M0 0 C2.31 0 4.62 0 7 0 C7.33 0.99 7.66 1.98 8 3 C7.01 4.485 7.01 4.485 6 6 C3.03 5.505 3.03 5.505 0 5 C0.33 4.01 0.66 3.02 1 2 C0.67 1.34 0.34 0.68 0 0 Z"/>
<path transform="translate(227,291)" fill="#121113" d="M0 0 C0.99 0.33 1.98 0.66 3 1 C2.67 1.99 2.34 2.98 2 4 C1.34 4 0.68 4 0 4 C-0.09152344 4.60328125 -0.18304688 5.2065625 -0.27734375 5.828125 C-1.17720492 8.53257263 -2.20702019 9.2082314 -4.5625 10.75 C-5.20316406 11.17796875 -5.84382812 11.6059375 -6.50390625 12.046875 C-7.24447266 12.51867187 -7.24447266 12.51867187 -8 13 C-7.05029764 10.88143321 -6.25157967 9.24064143 -4.5625 7.625 C-2.40212603 5.37821107 -1.30930299 2.80564927 0 0 Z"/>
<path transform="translate(161,286)" fill="#1A171A" d="M0 0 C0.98150241 2.94450722 1.1613058 4.93518979 1 8 C0.67 8.33 0.34 8.66 0 9 C-0.33 9.99 -0.66 10.98 -1 12 C-1.66 12 -2.32 12 -3 12 C-3.33 12.66 -3.66 13.32 -4 14 C-4.66 13.67 -5.32 13.34 -6 13 C-6 12.34 -6 11.68 -6 11 C-5.34 11 -4.68 11 -4 11 C-3.896875 10.484375 -3.79375 9.96875 -3.6875 9.4375 C-2.75736134 6.13973565 -1.38604488 3.13366668 0 0 Z"/>
<path transform="translate(301,139)" fill="#161517" d="M0 0 C0.66 0.99 1.32 1.98 2 3 C1.34 3 0.68 3 0 3 C-0.33 4.65 -0.66 6.3 -1 8 C-0.01 8.33 0.98 8.66 2 9 C2 9.99 2 10.98 2 12 C1.34 12 0.68 12 0 12 C-0.33 12.99 -0.66 13.98 -1 15 C-3 12 -3 12 -2.79296875 9.58984375 C-2.59316406 8.71457031 -2.39335937 7.83929688 -2.1875 6.9375 C-1.99542969 6.05964844 -1.80335938 5.18179688 -1.60546875 4.27734375 C-1 2 -1 2 0 0 Z M-2 10 C-1 12 -1 12 -1 12 Z"/>
<path transform="translate(292,65)" fill="#181719" d="M0 0 C2 3 2 3 1.75 5.4375 C1.05282249 7.81952314 0.20252143 9.83546142 -1 12 C-1.33 11.34 -1.66 10.68 -2 10 C-2.99 9.67 -3.98 9.34 -5 9 C-4.34 9 -3.68 9 -3 9 C-2.87625 8.443125 -2.7525 7.88625 -2.625 7.3125 C-1.94023145 4.77885636 -1.00866237 2.42078968 0 0 Z"/>
<path transform="translate(295,163)" fill="#1A181B" d="M0 0 C0.33 0 0.66 0 1 0 C1.33 1.65 1.66 3.3 2 5 C2.66 5 3.32 5 4 5 C4.6875 7.25 4.6875 7.25 5 10 C3.5625 12.3125 3.5625 12.3125 2 14 C-0.3992233 9.35150485 -0.19957409 5.08913926 0 0 Z"/>
<path transform="translate(390,129)" fill="#0F0D0F" d="M0 0 C0.99 0.33 1.98 0.66 3 1 C1.515 2.485 1.515 2.485 0 4 C0.33 4.99 0.66 5.98 1 7 C-0.65 7.66 -2.3 8.32 -4 9 C-4.33 7.02 -4.66 5.04 -5 3 C-2.6875 1.4375 -2.6875 1.4375 0 0 Z"/>
<path transform="translate(167,28)" fill="#19151A" d="M0 0 C2 3 2 3 2.125 5.5 C1 8 1 8 -0.85546875 8.98828125 C-2.88729632 9.74706995 -4.91197428 10.41497229 -7 11 C-7.33 10.34 -7.66 9.68 -8 9 C-7.34 9 -6.68 9 -6 9 C-6 8.34 -6 7.68 -6 7 C-4.35 6.67 -2.7 6.34 -1 6 C-0.67 4.02 -0.34 2.04 0 0 Z"/>
<path transform="translate(261,130)" fill="#232125" d="M0 0 C11.52164009 -0.3690205 11.52164009 -0.3690205 17 2 C16.01 2.495 16.01 2.495 15 3 C15 3.66 15 4.32 15 5 C13.68 5 12.36 5 11 5 C11 4.34 11 3.68 11 3 C8.70370006 1.85185003 6.92301914 1.69230191 4.375 1.4375 C3.55773437 1.35371094 2.74046875 1.26992187 1.8984375 1.18359375 C1.27195312 1.12300781 0.64546875 1.06242188 0 1 C0 0.67 0 0.34 0 0 Z"/>
<path transform="translate(157,151)" fill="#2A292B" d="M0 0 C0 0.33 0 0.66 0 1 C-1.98 1.33 -3.96 1.66 -6 2 C-6.33 3.65 -6.66 5.3 -7 7 C-7.66 6.34 -8.32 5.68 -9 5 C-9.99 8.465 -9.99 8.465 -11 12 C-11.96846689 9.38513938 -12.04559628 8.1557873 -11.25 5.4375 C-8.38567214 -0.14793932 -6.28677234 -0.35585504 0 0 Z"/>
<path transform="translate(396,111)" fill="#221F23" d="M0 0 C0.66 0.66 1.32 1.32 2 2 C-0.34112451 3.44977894 -1.5796929 4.04314411 -4.359375 3.7578125 C-5.14828125 3.54898438 -5.9371875 3.34015625 -6.75 3.125 C-7.54921875 2.92132813 -8.3484375 2.71765625 -9.171875 2.5078125 C-10.07679688 2.25644531 -10.07679688 2.25644531 -11 2 C-7.18908971 -0.11530703 -4.37458521 -0.32404335 0 0 Z"/>
<path transform="translate(180,261)" fill="#141414" d="M0 0 C2.79872437 2.52788007 4.45773019 4.20411134 5 8 C3.68 8 2.36 8 1 8 C0.67 7.34 0.34 6.68 0 6 C-0.99 6.66 -1.98 7.32 -3 8 C-2.42655063 5.13275314 -2.1385485 4.1385485 0 2 C0 1.34 0 0.68 0 0 Z"/>
<path transform="translate(127,185)" fill="#241F23" d="M0 0 C0.33 0 0.66 0 1 0 C1.0272616 2.04159095 1.04651345 4.08328963 1.0625 6.125 C1.07410156 7.26195312 1.08570313 8.39890625 1.09765625 9.5703125 C1.005327 12.8129156 0.61389906 15.81932612 0 19 C-0.33 19 -0.66 19 -1 19 C-1.22307542 16.7722603 -1.42788178 14.54268636 -1.625 12.3125 C-1.74101563 11.07113281 -1.85703125 9.82976562 -1.9765625 8.55078125 C-1.99953004 5.07119831 -1.54051631 3.07515279 0 0 Z"/>
<path transform="translate(457,155)" fill="#131213" d="M0 0 C2.31 0.66 4.62 1.32 7 2 C5.35 3.98 3.7 5.96 2 8 C1 6 0 4 -1 2 C-0.67 1.34 -0.34 0.68 0 0 Z"/>
<path transform="translate(116,154)" fill="#161417" d="M0 0 C3.465 1.485 3.465 1.485 7 3 C6.01 4.485 6.01 4.485 5 6 C2.375 6.1875 2.375 6.1875 0 6 C-0.38218767 4.34385343 -0.71395102 2.67542976 -1 1 C-0.67 0.67 -0.34 0.34 0 0 Z"/>
<path transform="translate(423.6875,68.6875)" fill="#211C21" d="M0 0 C1.1446875 0.1546875 1.1446875 0.1546875 2.3125 0.3125 C1.69375 0.68375 1.075 1.055 0.4375 1.4375 C-2.23457145 3.79521011 -2.59996361 5.97738841 -3.6875 9.3125 C-4.6775 9.6425 -5.6675 9.9725 -6.6875 10.3125 C-6.0259761 5.68183269 -5.25613325 0.61117828 0 0 Z"/>
<path transform="translate(298,38)" fill="#161417" d="M0 0 C2 2 2 2 2.1953125 3.9453125 C2.13020833 5.96354167 2.06510417 7.98177083 2 10 C1.01 10 0.02 10 -1 10 C-2.25 3.375 -2.25 3.375 0 0 Z"/>
<path transform="translate(134,219)" fill="#1B191E" d="M0 0 C0.33 0 0.66 0 1 0 C0.67 2.31 0.34 4.62 0 7 C-1.32 7.33 -2.64 7.66 -4 8 C-4.66 6.35 -5.32 4.7 -6 3 C-5.01 2.67 -4.02 2.34 -3 2 C-2.34 2.33 -1.68 2.66 -1 3 C-0.67 2.01 -0.34 1.02 0 0 Z"/>
<path transform="translate(40,203)" fill="#18151A" d="M0 0 C0.66 0 1.32 0 2 0 C3.625 2 3.625 2 5 4 C3.21089097 4.52955234 1.41860852 5.0483937 -0.375 5.5625 C-1.87160156 5.99755859 -1.87160156 5.99755859 -3.3984375 6.44140625 C-6 7 -6 7 -8 6 C-7 5 -7 5 -4.4375 4.9375 C-3.2309375 4.9684375 -3.2309375 4.9684375 -2 5 C-2 4.34 -2 3.68 -2 3 C-1.34 3 -0.68 3 0 3 C0 2.01 0 1.02 0 0 Z"/>
<path transform="translate(258,157)" fill="#161216" d="M0 0 C0.99 0.33 1.98 0.66 3 1 C3 3 3 3 1.6875 4.375 C1.130625 4.91125 0.57375 5.4475 0 6 C-1.01800576 7.31963709 -2.02248365 8.65009646 -3 10 C-3.33 8.02 -3.66 6.04 -4 4 C-3.01 4 -2.02 4 -1 4 C-0.67 2.68 -0.34 1.36 0 0 Z"/>
<path transform="translate(428,151)" fill="#1D1B1C" d="M0 0 C0.66 0.33 1.32 0.66 2 1 C2 1.66 2 2.32 2 3 C0.5459375 3.4640625 0.5459375 3.4640625 -0.9375 3.9375 C-4.14945448 5.62081517 -4.14945448 5.62081517 -4.62109375 8.203125 C-4.85372996 10.47938084 -4.99040853 12.71243399 -5 15 C-5.33 15 -5.66 15 -6 15 C-6.02698189 13.37509046 -6.04638757 11.75005367 -6.0625 10.125 C-6.07410156 9.22007812 -6.08570313 8.31515625 -6.09765625 7.3828125 C-6 5 -6 5 -5 3 C-2.5625 1.3125 -2.5625 1.3125 0 0 Z"/>
<path transform="translate(310,124)" fill="#212022" d="M0 0 C0.66 0.33 1.32 0.66 2 1 C1.3503125 1.804375 1.3503125 1.804375 0.6875 2.625 C-1.13331482 5.03926061 -1.13331482 5.03926061 -2.5 8.1875 C-4 11 -4 11 -7 12 C-6.25752466 7.17391028 -3.38978244 3.38978244 0 0 Z"/>
<path transform="translate(382,113)" fill="#0F0E10" d="M0 0 C1.67542976 0.28604898 3.34385343 0.61781233 5 1 C5 1.66 5 2.32 5 3 C5.99 3.33 6.98 3.66 8 4 C6.02 4.66 4.04 5.32 2 6 C1.34 5.34 0.68 4.68 0 4 C0.33 3.34 0.66 2.68 1 2 C0.34 1.67 -0.32 1.34 -1 1 C-0.67 0.67 -0.34 0.34 0 0 Z"/>
<path transform="translate(338,169)" fill="#101012" d="M0 0 C1.32 0.66 2.64 1.32 4 2 C4 2.66 4 3.32 4 4 C4.66 4.33 5.32 4.66 6 5 C4.02 5.99 4.02 5.99 2 7 C0.68 6.01 -0.64 5.02 -2 4 C-1.34 2.68 -0.68 1.36 0 0 Z"/>
<path transform="translate(396,113)" fill="#0C0A0D" d="M0 0 C4.875 0.875 4.875 0.875 6 2 C6.04063832 3.66617115 6.042721 5.33388095 6 7 C3.59866729 5.39911152 1.297221 3.74271938 -1 2 C-0.67 1.34 -0.34 0.68 0 0 Z"/>
<path transform="translate(144,310)" fill="#0D0D0F" d="M0 0 C0.66 0.33 1.32 0.66 2 1 C1.34 1.66 0.68 2.32 0 3 C-0.40047444 5.32275177 -0.7397104 7.65739357 -1 10 C-2.32 8.35 -3.64 6.7 -5 5 C-3.35 3.35 -1.7 1.7 0 0 Z"/>
<path transform="translate(56,124)" fill="#1F1C23" d="M0 0 C0 0.99 0 1.98 0 3 C-1.65 3.33 -3.3 3.66 -5 4 C-5 3.34 -5 2.68 -5 2 C-6.98 2.33 -8.96 2.66 -11 3 C-10 1 -10 1 -6.625 -0.1875 C-3 -1 -3 -1 0 0 Z"/>
<path transform="translate(171,42)" fill="#333031" d="M0 0 C0.33 0 0.66 0 1 0 C1 1.98 1 3.96 1 6 C1.66 6.33 2.32 6.66 3 7 C2.01 7.495 2.01 7.495 1 8 C0.31270746 10.11846285 0.31270746 10.11846285 -0.125 12.5625 C-0.29257813 13.38878906 -0.46015625 14.21507812 -0.6328125 15.06640625 C-0.75398437 15.70449219 -0.87515625 16.34257813 -1 17 C-1.66 16.34 -2.32 15.68 -3 15 C-2.65304233 12.38311586 -2.21130748 9.93773107 -1.625 7.375 C-1.39683594 6.31539062 -1.39683594 6.31539062 -1.1640625 5.234375 C-0.78632276 3.48732869 -0.39447905 1.74334288 0 0 Z"/>
<path transform="translate(119,252)" fill="#1F1B1F" d="M0 0 C-2.57404971 3.86107457 -4.61020259 3.94319692 -9 5 C-8 2 -8 2 -5.625 0.25 C-3 -1 -3 -1 0 0 Z"/>
<path transform="translate(258,152)" fill="#0B090B" d="M0 0 C2.50357192 1.25178596 4.06433379 2.99981158 6 5 C3.39417629 5.93065133 2.35801776 6.14917407 -0.25 5.0625 C-0.8275 4.711875 -1.405 4.36125 -2 4 C-2 3.01 -2 2.02 -2 1 C-1.34 0.67 -0.68 0.34 0 0 Z"/>
<path transform="translate(324,145)" fill="#161517" d="M0 0 C0.66 0.33 1.32 0.66 2 1 C1.360625 1.268125 0.72125 1.53625 0.0625 1.8125 C-2.33131686 2.88667752 -2.33131686 2.88667752 -3 6 C-3.66 6 -4.32 6 -5 6 C-5.66 6.66 -6.32 7.32 -7 8 C-7.66 8 -8.32 8 -9 8 C-9 6.68 -9 5.36 -9 4 C-8.2575 3.896875 -7.515 3.79375 -6.75 3.6875 C-3.82985982 2.95746496 -2.26812446 1.93210602 0 0 Z"/>
<path transform="translate(255.25,28.125)" fill="#111014" d="M0 0 C1.75 0.875 1.75 0.875 2.75 2.875 C1.656875 3.184375 0.56375 3.49375 -0.5625 3.8125 C-2.80407994 4.45837897 -5.0369351 5.1373117 -7.25 5.875 C-7.25 5.215 -7.25 4.555 -7.25 3.875 C-3.08783784 -0.17154655 -3.08783784 -0.17154655 0 0 Z"/>
<path transform="translate(291,240)" fill="#1E1C1F" d="M0 0 C0 0.33 0 0.66 0 1 C-1.65 1 -3.3 1 -5 1 C-4.67 1.99 -4.34 2.98 -4 4 C-4.99 4.495 -4.99 4.495 -6 5 C-8.625 4.0625 -8.625 4.0625 -11 3 C-10 1 -10 1 -8.3125 0.375 C-5.51555886 -0.07855802 -2.82858003 -0.06428591 0 0 Z"/>
<path transform="translate(151,152)" fill="#0C0C10" d="M0 0 C2.64 0 5.28 0 8 0 C8.33 0.66 8.66 1.32 9 2 C8.071875 2.185625 8.071875 2.185625 7.125 2.375 C4.80879168 2.87197356 4.80879168 2.87197356 3 5 C2.01 3.35 1.02 1.7 0 0 Z"/>
<path transform="translate(224,31)" fill="#171418" d="M0 0 C1.9375 0.75 1.9375 0.75 4 2 C4.75 4.125 4.75 4.125 5 6 C4.01 6 3.02 6 2 6 C1.67 6.66 1.34 7.32 1 8 C-0.35439668 5.29120665 -0.06501451 2.99066732 0 0 Z"/>
<path transform="translate(140,348)" fill="#141315" d="M0 0 C-0.99 0.495 -0.99 0.495 -2 1 C-2.33 1.66 -2.66 2.32 -3 3 C-4.9375 3.75 -4.9375 3.75 -7 4 C-7.66 3.34 -8.32 2.68 -9 2 C-8.34 2 -7.68 2 -7 2 C-7 1.34 -7 0.68 -7 0 C-4.3333581 -1.33332095 -2.83319697 -0.67102033 0 0 Z"/>
<path transform="translate(451,163)" fill="#141215" d="M0 0 C2.97 0.495 2.97 0.495 6 1 C5.01 1.33 4.02 1.66 3 2 C3 2.66 3 3.32 3 4 C1.35 4.33 -0.3 4.66 -2 5 C-2 4.01 -2 3.02 -2 2 C-1.34 2 -0.68 2 0 2 C0 1.34 0 0.68 0 0 Z"/>
<path transform="translate(77,35)" fill="#242124" d="M0 0 C-2.3125 2.5 -2.3125 2.5 -5 5 C-5.99 5 -6.98 5 -8 5 C-8 4.01 -8 3.02 -8 2 C-3.71900826 -1.23966942 -3.71900826 -1.23966942 0 0 Z"/>
<path transform="translate(153,334)" fill="#0E0D0F" d="M0 0 C1.32 0 2.64 0 4 0 C4.33 0.99 4.66 1.98 5 3 C3.6875 4.5 3.6875 4.5 2 6 C1.01 6 0.02 6 -1 6 C-0.67 4.02 -0.34 2.04 0 0 Z"/>
<path transform="translate(180,309)" fill="#191719" d="M0 0 C1.32 0.33 2.64 0.66 4 1 C3.34 1 2.68 1 2 1 C1.71125 1.78375 1.4225 2.5675 1.125 3.375 C0 6 0 6 -2 8 C-3.125 4.25 -3.125 4.25 -2 2 C-1.34 2 -0.68 2 0 2 C0 1.34 0 0.68 0 0 Z"/>
<path transform="translate(102,224)" fill="#191518" d="M0 0 C0.33 0.99 0.66 1.98 1 3 C1.66 3.33 2.32 3.66 3 4 C2.34 4 1.68 4 1 4 C1 4.66 1 5.32 1 6 C-0.65 6.33 -2.3 6.66 -4 7 C-4 4 -4 4 -2 1.8125 C-1.34 1.214375 -0.68 0.61625 0 0 Z"/>
<path transform="translate(369,176)" fill="#110F12" d="M0 0 C3.875 1.75 3.875 1.75 5 4 C3.35 4.66 1.7 5.32 0 6 C-1.125 2.25 -1.125 2.25 0 0 Z"/>
<path transform="translate(233,160)" fill="#221C22" d="M0 0 C1.32 0 2.64 0 4 0 C4.33 1.65 4.66 3.3 5 5 C4.01 5.66 3.02 6.32 2 7 C2 5.68 2 4.36 2 3 C0.68 3.33 -0.64 3.66 -2 4 C-1.34 2.68 -0.68 1.36 0 0 Z"/>
<path transform="translate(278,133)" fill="#1F1F20" d="M0 0 C3.79588866 0.54226981 5.47211993 2.20127563 8 5 C7.01 5.99 6.02 6.98 5 8 C4.34 7.67 3.68 7.34 3 7 C3 5.68 3 4.36 3 3 C1.5833253 1.2488427 1.5833253 1.2488427 0 0 Z"/>
<path transform="translate(426,70)" fill="#160E17" d="M0 0 C2.9719385 1.12451727 5.33440687 2.22293791 8 4 C8 4.66 8 5.32 8 6 C7.34 6 6.68 6 6 6 C6 5.34 6 4.68 6 4 C4.824375 4.0928125 4.824375 4.0928125 3.625 4.1875 C2.75875 4.125625 1.8925 4.06375 1 4 C0.34 3.01 -0.32 2.02 -1 1 C-0.67 0.67 -0.34 0.34 0 0 Z"/>
<path transform="translate(294,32)" fill="#0E0C0E" d="M0 0 C2.0625 1.75 2.0625 1.75 4 4 C3.75 6.25 3.75 6.25 3 8 C1.68 7.34 0.36 6.68 -1 6 C-0.34 6 0.32 6 1 6 C0.67 4.02 0.34 2.04 0 0 Z"/>
<path transform="translate(252,345)" fill="#201D20" d="M0 0 C2.30143236 3.45214853 2.13833854 4.23479324 1.625 8.1875 C1.51414063 9.08855469 1.40328125 9.98960937 1.2890625 10.91796875 C1.19367188 11.60503906 1.09828125 12.29210937 1 13 C0.67 13 0.34 13 0 13 C-0.19466332 11.20909747 -0.38051213 9.41723495 -0.5625 7.625 C-0.66691406 6.62726563 -0.77132812 5.62953125 -0.87890625 4.6015625 C-1 2 -1 2 0 0 Z"/>
<path transform="translate(215,256)" fill="#232122" d="M0 0 C0.99 0.33 1.98 0.66 3 1 C0.77752974 3.5558408 -0.74230403 4.26439123 -4 5 C-4.66 5.66 -5.32 6.32 -6 7 C-6 6.01 -6 5.02 -6 4 C-3.1875 1.75 -3.1875 1.75 0 0 Z"/>
<path transform="translate(108,175)" fill="#161316" d="M0 0 C1.32 0.33 2.64 0.66 4 1 C3.67 2.98 3.34 4.96 3 7 C2.01 6.34 1.02 5.68 0 5 C-0.1875 2.375 -0.1875 2.375 0 0 Z"/>
<path transform="translate(100,157)" fill="#1E1D20" d="M0 0 C-0.66 0 -1.32 0 -2 0 C-2.33 0.99 -2.66 1.98 -3 3 C-5.31 3.33 -7.62 3.66 -10 4 C-4.75 -1.425 -4.75 -1.425 0 0 Z"/>
<path transform="translate(63,145)" fill="#1C1A1C" d="M0 0 C1.98 0.66 3.96 1.32 6 2 C3.53721199 4.46278801 1.29323018 4.99771255 -2 6 C-2.33 5.34 -2.66 4.68 -3 4 C-2.01 4 -1.02 4 0 4 C0 2.68 0 1.36 0 0 Z"/>
<path transform="translate(99,52)" fill="#141114" d="M0 0 C0.78375 0.185625 1.5675 0.37125 2.375 0.5625 C4.97089775 1.25962266 4.97089775 1.25962266 7 0 C7.33 1.32 7.66 2.64 8 4 C5.36 4 2.72 4 0 4 C0 2.66666667 0 1.33333333 0 0 Z"/>
<path transform="translate(145,340)" fill="#1B171A" d="M0 0 C1.32 0.66 2.64 1.32 4 2 C4 2.66 4 3.32 4 4 C2.1875 5.6875 2.1875 5.6875 0 7 C-0.99 6.67 -1.98 6.34 -3 6 C-2.505 5.566875 -2.01 5.13375 -1.5 4.6875 C0.33218192 3.00259517 0.33218192 3.00259517 0 0 Z"/>
<path transform="translate(197,311)" fill="#221F22" d="M0 0 C1.485 0.99 1.485 0.99 3 2 C3 2.66 3 3.32 3 4 C3.99 4.33 4.98 4.66 6 5 C6.33 6.65 6.66 8.3 7 10 C3.60582235 6.87378374 1.3937282 4.43458973 0 0 Z"/>
<path transform="translate(187,274)" fill="#171518" d="M0 0 C2.1519437 3.22791555 2.20086443 4.28400809 2 8 C1.01 8 0.02 8 -1 8 C-1.93065133 5.39417629 -2.14917407 4.35801776 -1.0625 1.75 C-0.711875 1.1725 -0.36125 0.595 0 0 Z"/>
<path transform="translate(84,168)" fill="#201C20" d="M0 0 C1 2 1 2 1 5 C-1 7.6875 -1 7.6875 -3 10 C-3.75 8.375 -3.75 8.375 -4 6 C-2.0625 2.75 -2.0625 2.75 0 0 Z"/>
<path transform="translate(258,131)" fill="#0E0C0F" d="M0 0 C1.65 0 3.3 0 5 0 C5.33 0.99 5.66 1.98 6 3 C6.66 3.33 7.32 3.66 8 4 C6 4 4 4 2 4 C2 3.01 2 2.02 2 1 C1.34 0.67 0.68 0.34 0 0 Z"/>
<path transform="translate(73,55)" fill="#1E1C1F" d="M0 0 C1.98 0 3.96 0 6 0 C5.67 0.99 5.34 1.98 5 3 C5.33 3.33 5.66 3.66 6 4 C5.67 4.66 5.34 5.32 5 6 C3.2925002 4.71937515 1.62626404 3.38232443 0 2 C0 1.34 0 0.68 0 0 Z"/>
<path transform="translate(193,68)" fill="#121013" d="M0 0 C0.66 0.33 1.32 0.66 2 1 C2 4.63 2 8.26 2 12 C1.67 12 1.34 12 1 12 C-1.27678571 3.96428571 -1.27678571 3.96428571 0 0 Z"/>
<path transform="translate(113,21)" fill="#2A292B" d="M0 0 C0.66 0.66 1.32 1.32 2 2 C0.9375 3.5625 0.9375 3.5625 -1 5 C-4.6875 4.6875 -4.6875 4.6875 -8 4 C-7.67 3.34 -7.34 2.68 -7 2 C-4.6859378 1.26924352 -2.35171131 0.59861742 0 0 Z"/>
<path transform="translate(169,318)" fill="#111011" d="M0 0 C0.33 0.99 0.66 1.98 1 3 C3.01508358 3.73323796 3.01508358 3.73323796 5 4 C2 6 2 6 -1 6 C-1.33 5.01 -1.66 4.02 -2 3 C-1.34 3 -0.68 3 0 3 C0 2.01 0 1.02 0 0 Z"/>
<path transform="translate(306,255)" fill="#161519" d="M0 0 C0.99 0.495 0.99 0.495 2 1 C2.59355614 3.64860427 2.74209269 6.29197322 3 9 C2.01 8.34 1.02 7.68 0 7 C-0.1875 3.375 -0.1875 3.375 0 0 Z"/>
<path transform="translate(169,180)" fill="#1A191B" d="M0 0 C-1.75 5.75 -1.75 5.75 -4 8 C-4.6875 5.6875 -4.6875 5.6875 -5 3 C-3.40083326 0.79162689 -2.76966516 0 0 0 Z"/>
<path transform="translate(196,1)" fill="#141215" d="M0 0 C0.99 0.99 1.98 1.98 3 3 C2.34 3 1.68 3 1 3 C0.67 3.66 0.34 4.32 0 5 C-0.99 5 -1.98 5 -3 5 C-1.125 1.125 -1.125 1.125 0 0 Z"/>
<path transform="translate(0,0)" fill="#FFFFFF" d=""/>
<path transform="translate(0,0)" fill="#FFFFFF" d=""/>
<path transform="translate(0,0)" fill="#FFFFFF" d=""/>
<path transform="translate(0,0)" fill="#FFFFFF" d=""/>
<path transform="translate(0,0)" fill="#FFFFFF" d=""/>
<path transform="translate(0,0)" fill="#FFFFFF" d=""/>
<path transform="translate(0,0)" fill="#FFFFFF" d=""/>
<path transform="translate(0,0)" fill="#FFFFFF" d=""/>
<path transform="translate(0,0)" fill="#FFFFFF" d=""/>
<path transform="translate(0,0)" fill="#FFFFFF" d=""/>
<path transform="translate(0,0)" fill="#FFFFFF" d=""/>
<path transform="translate(0,0)" fill="#FFFFFF" d=""/>
<path transform="translate(0,0)" fill="#FFFFFF" d=""/>
<path transform="translate(0,0)" fill="#FFFFFF" d=""/>
<path transform="translate(0,0)" fill="#FFFFFF" d=""/>
<path transform="translate(0,0)" fill="#FFFFFF" d=""/>
<path transform="translate(0,0)" fill="#FFFFFF" d=""/>
<path transform="translate(0,0)" fill="#FFFFFF" d=""/>
<path transform="translate(0,0)" fill="#FFFFFF" d=""/>
<path transform="translate(0,0)" fill="#FFFFFF" d=""/>
<path transform="translate(0,0)" fill="#FFFFFF" d=""/>
<path transform="translate(0,0)" fill="#FFFFFF" d=""/>
<path transform="translate(0,0)" fill="#FFFFFF" d=""/>
<path transform="translate(0,0)" fill="#FFFFFF" d=""/>
<path transform="translate(0,0)" fill="#FFFFFF" d=""/>
<path transform="translate(0,0)" fill="#FFFFFF" d=""/>
<path transform="translate(0,0)" fill="#FFFFFF" d=""/>
<path transform="translate(0,0)" fill="#FFFFFF" d=""/>
<path transform="translate(0,0)" fill="#FFFFFF" d=""/>
<path transform="translate(0,0)" fill="#FFFFFF" d=""/>
<path transform="translate(0,0)" fill="#FFFFFF" d=""/>
<path transform="translate(0,0)" fill="#FFFFFF" d=""/>
<path transform="translate(0,0)" fill="#FFFFFF" d=""/>
<path transform="translate(0,0)" fill="#FFFFFF" d=""/>
<path transform="translate(0,0)" fill="#FFFFFF" d=""/>
<path transform="translate(0,0)" fill="#FFFFFF" d=""/>
<path transform="translate(0,0)" fill="#FFFFFF" d=""/>
<path transform="translate(0,0)" fill="#FFFFFF" d=""/>
<path transform="translate(0,0)" fill="#FFFFFF" d=""/>
<path transform="translate(0,0)" fill="#FFFFFF" d=""/>
<path transform="translate(0,0)" fill="#FFFFFF" d=""/>
<path transform="translate(0,0)" fill="#FFFFFF" d=""/>
<path transform="translate(0,0)" fill="#FFFFFF" d=""/>
<path transform="translate(0,0)" fill="#FFFFFF" d=""/>
<path transform="translate(0,0)" fill="#FFFFFF" d=""/>
<path transform="translate(0,0)" fill="#FFFFFF" d=""/>
<path transform="translate(0,0)" fill="#FFFFFF" d=""/>
<path transform="translate(0,0)" fill="#FFFFFF" d=""/>
<path transform="translate(0,0)" fill="#FFFFFF" d=""/>
<path transform="translate(0,0)" fill="#FFFFFF" d=""/>
<path transform="translate(0,0)" fill="#FFFFFF" d=""/>
<path transform="translate(0,0)" fill="#FFFFFF" d=""/>
<path transform="translate(0,0)" fill="#FFFFFF" d=""/>
<path transform="translate(0,0)" fill="#FFFFFF" d=""/>
<path transform="translate(0,0)" fill="#FFFFFF" d=""/>
<path transform="translate(0,0)" fill="#FFFFFF" d=""/>
<path transform="translate(0,0)" fill="#FFFFFF" d=""/>
<path transform="translate(0,0)" fill="#FFFFFF" d=""/>
<path transform="translate(0,0)" fill="#FFFFFF" d=""/>
<path transform="translate(0,0)" fill="#FFFFFF" d=""/>
<path transform="translate(0,0)" fill="#FFFFFF" d=""/>
<path transform="translate(0,0)" fill="#FFFFFF" d=""/>
<path transform="translate(0,0)" fill="#FFFFFF" d=""/>
</svg>