<svg width="1152" height="437" viewBox="0 0 1152 437" fill="none" xmlns="http://www.w3.org/2000/svg">
<g clip-path="url(#clip0_1214_31619)">
<path d="M303.551 166.48C297.752 169.619 291.739 172.347 285.555 174.643C272.207 179.434 258.407 181.917 244.287 182.846C241.231 183.039 238.171 183.248 235.105 183.303C233.572 183.303 233 183.908 233.114 185.378C233.179 186.118 233.114 186.868 233.114 187.608V316.591C233.114 320.245 233.114 320.25 229.466 320.25C213.879 320.25 198.291 320.195 182.684 320.31C180.141 320.31 179.504 319.575 179.509 317.092C179.579 273.77 179.595 230.446 179.559 187.121C179.559 183.6 179.559 183.575 176 183.59C152.535 183.71 129.069 183.233 105.613 183.873C97.6455 184.056 89.7633 185.555 82.2867 188.308C67.5356 193.834 59.5327 204.917 56.0191 219.809C54.1728 227.669 53.695 235.668 53.6599 243.683C53.5607 268.073 53.6252 292.463 53.6204 316.854C53.6204 320.24 53.6204 320.25 50.2213 320.25C34.5491 320.25 18.8671 320.2 3.21005 320.31C0.666893 320.31 0 319.555 0 317.072C0.0597218 214.052 0.0779706 111.032 0.0547453 8.01151C0.0547453 4.72438 0.0547442 4.68467 3.36433 4.68467C19.038 4.68467 34.7085 4.68467 50.3753 4.68467C53.6151 4.68467 53.6204 4.71445 53.6204 8.04132C53.6204 54.0977 53.6204 100.151 53.6204 146.2V149.08C54.5808 149.617 54.9889 148.897 55.4767 148.549C69.4763 138.618 85.1685 133.047 102.04 130.45C111.496 129 120.981 128.553 130.517 128.563C145.693 128.586 160.867 128.586 176.04 128.563C179.589 128.563 179.594 128.563 179.594 125.087V8.52793C179.594 4.68962 179.594 4.67969 183.321 4.67969C198.822 4.67969 214.327 4.67969 229.835 4.67969C233.119 4.67969 233.129 4.67969 233.129 7.98669V125.062C233.129 128.563 233.129 128.593 236.643 128.538C246.666 128.444 256.68 128.677 266.688 127.585C287.526 125.316 302.616 114.997 311.783 96.2281C312.992 93.7451 314.062 93.5416 316.476 94.4902C329.192 99.4802 341.972 104.317 354.767 109.108C356.735 109.843 357.581 110.737 357.574 112.986C357.508 181.033 357.508 249.078 357.574 317.122C357.574 319.684 356.804 320.3 354.344 320.285C338.673 320.181 322.991 320.235 307.334 320.23C303.994 320.23 303.984 320.23 303.984 316.754C303.984 267.808 303.984 218.862 303.984 169.916C303.979 168.903 304.233 167.815 303.551 166.48Z" fill="#1A1D21"/>
<path d="M829.633 302.366C828.922 302.182 828.551 302.714 828.138 303.057C812.09 315.753 793.8 322.75 773.393 324.304C751.828 325.947 731.057 322.789 711.512 313.34C683.711 299.893 666.202 277.698 657.319 248.466C652.257 231.762 650.893 214.642 652.17 197.242C653.582 177.917 658.433 159.639 668.489 142.95C684.006 117.204 706.987 101.851 736.117 95.2814C746.148 93.0156 756.426 92.0262 766.704 92.337C792.665 93.1115 815.382 101.92 834.39 119.806C834.862 120.258 835.362 120.68 836.046 121.296C837.225 118.445 837.243 115.551 837.749 112.78C838.586 108.236 839.241 103.663 839.901 99.0851C840.182 97.099 840.893 96.1556 843.194 96.1753C855.959 96.3044 868.725 96.2844 881.515 96.1753C883.763 96.1753 884.502 96.796 884.502 99.0951C884.565 175.816 884.999 252.528 884.676 329.254C884.548 361.824 872.233 389.457 846.736 410.534C832.801 422.058 816.569 428.986 798.935 432.572C774.733 437.492 750.506 437.88 726.661 430.772C694.256 421.117 670.553 401.065 656.146 370.378C654.97 367.82 654.03 365.161 653.332 362.433C652.975 361.086 653.332 360.339 654.828 359.951C669.755 355.862 684.672 351.725 699.572 347.536C700.772 347.2 701.394 347.387 701.761 348.668C706.387 364.791 717.469 375.156 732.265 381.903C743.643 387.093 755.756 388.439 768.199 387.622C778.952 386.919 789.41 385.033 799.199 380.394C818.321 371.337 828.97 356.375 829.921 335.143C830.379 324.825 830.074 314.477 830.098 304.144C830.039 303.583 830.23 302.868 829.633 302.366ZM831.427 206.533C831.552 202.858 830.986 197.362 829.828 191.934C825.626 172.33 815.153 157.409 796.642 148.844C783.203 142.627 768.99 141.589 754.59 144.206C734.892 147.791 720.044 158.353 711.553 176.611C702.788 195.45 702.389 215.014 709.128 234.523C715.152 251.957 727.164 263.909 744.639 270.16C755.277 273.969 766.291 274.724 777.484 273.373C795.451 271.203 810.06 263.199 820.341 248.119C828.447 236.187 831.434 222.705 831.434 206.553L831.427 206.533Z" fill="#1A1D21"/>
<path d="M975.655 227.521C976.828 233.048 978.921 238.34 981.846 243.177C991.332 259.17 1005.54 268.57 1023.65 271.892C1041.07 275.09 1058.17 273.824 1074.41 266.281C1083.95 261.862 1091.79 255.109 1099.06 247.656C1099.74 246.961 1100.28 246.071 1101.47 245.699L1136.26 281.307C1136.86 281.56 1136.26 281.962 1135.83 282.424C1118.27 300.93 1097.64 314.267 1072.43 319.883C1056.55 323.389 1040.25 324.537 1024.04 323.289C1005.82 321.954 988.671 317.068 972.991 307.623C948.184 292.673 932.823 270.685 925.353 242.998C921.897 230.041 920.422 216.636 920.98 203.239C921.9 178.591 928.177 155.571 943.091 135.496C958.521 114.69 979.299 101.785 1004.38 95.9058C1029.88 89.9474 1055.28 90.9403 1080.02 99.6399C1116.04 112.282 1138.45 137.631 1147.89 174.35C1152.13 190.821 1153.22 207.569 1150.54 224.477C1150.16 226.86 1149.34 227.57 1146.93 227.565C1091.04 227.499 1035.16 227.484 979.278 227.521H975.655ZM976.863 183.899H1095.62C1096.04 183.159 1095.71 182.707 1095.55 182.26C1090.02 166.704 1079.98 155.139 1064.86 148.217C1052.52 142.566 1039.5 141.434 1026.19 143.137C1011.16 145.054 998.324 151.395 988.369 162.945C983.091 169.045 979.17 176.191 976.863 183.914V183.899Z" fill="#1A1D21"/>
<path d="M462.744 119.218C464.406 117.728 466.085 116.174 467.827 114.69C481.492 103.011 497.058 94.9914 514.993 93.0399C541.635 90.1401 565.23 97.5089 584.505 116.576C599.301 131.21 607.302 149.393 611.22 169.558C613.094 179.171 613.534 188.893 613.534 198.656C613.534 237.836 613.534 277.021 613.534 316.208C613.534 320.265 613.534 320.27 609.485 320.27H563.2C559.376 320.27 559.366 320.27 559.366 316.501C559.366 277.727 559.366 238.955 559.366 200.185C559.366 191.063 558.78 182.036 556.146 173.227C550.841 155.481 537.155 144.577 518.661 143.072C510.913 142.447 503.234 142.486 495.704 144.323C480.236 148.082 470.94 158.197 466.405 173.088C463.698 181.971 463.185 191.098 463.185 200.294C463.185 238.823 463.185 277.347 463.185 315.865C463.185 321.327 462.963 320.245 458.705 320.255C443.372 320.3 428.035 320.255 412.694 320.255C409.436 320.255 409.426 320.255 409.426 316.948C409.426 244.528 409.426 172.11 409.426 99.6938C409.426 96.2675 409.426 96.2578 412.819 96.2578H455.846C459.548 96.2578 459.496 96.2578 459.885 99.8627C460.544 105.935 461.266 111.998 461.96 118.066C461.97 118.311 462.05 118.55 462.185 118.753C462.324 118.957 462.518 119.118 462.744 119.218Z" fill="#1A1D21"/>
<path d="M300.975 32.0524C301.03 14.1122 315.443 -0.0791155 333.539 0.000331949C351.281 0.074814 365.535 14.5889 365.465 32.4645C365.406 40.9969 361.954 49.1571 355.868 55.1497C349.782 61.1427 341.556 64.4769 333.004 64.4198C324.452 64.3624 316.273 60.9181 310.267 54.8444C304.26 48.7707 300.918 40.5648 300.975 32.0326V32.0524Z" fill="#1A1D21"/>
</g>
<defs>
<clipPath id="clip0_1214_31619">
<rect width="1152" height="436.194" fill="white"/>
</clipPath>
</defs>
</svg>
