<svg width="3000" height="550" viewBox="0 0 3000 550" fill="none" xmlns="http://www.w3.org/2000/svg">
<g clip-path="url(#clip0_1214_31602)">
<path d="M61.7049 434.117C40.3382 434.117 18.9715 422.16 7.10108 403.03C-4.76932 383.899 -2.39524 359.986 9.47516 340.856L121.057 163.899C132.927 144.769 154.294 132.812 175.661 132.812C197.028 132.812 218.394 147.16 230.265 166.291C239.761 185.421 239.761 209.334 227.891 228.465L116.309 405.421C104.438 424.552 83.0717 434.117 61.7049 434.117Z" fill="#1A1D21"/>
<path d="M253.993 434.117C230.252 434.117 211.26 422.16 199.389 403.03C189.893 383.899 189.893 359.986 201.763 340.856L313.345 163.899C325.216 144.769 346.582 132.812 367.949 132.812C391.69 132.812 410.683 147.16 422.553 166.291C432.049 185.421 432.049 209.334 417.805 228.465L306.223 405.421C294.353 424.552 275.36 434.117 253.993 434.117Z" fill="#1A1D21"/>
<path d="M441.548 436.501C473.016 436.501 498.526 410.806 498.526 379.11C498.526 347.414 473.016 321.719 441.548 321.719C410.08 321.719 384.57 347.414 384.57 379.11C384.57 410.806 410.08 436.501 441.548 436.501Z" fill="#1A1D21"/>
<path d="M2948.59 325.163C2965.21 325.163 2977.08 337.12 2977.08 358.641V427.989H3000.82V356.25C3000.82 320.38 2984.2 301.25 2953.34 301.25C2941.47 301.25 2922.48 303.641 2910.61 327.554C2905.86 313.207 2893.99 306.033 2879.74 303.641C2875 303.641 2870.25 303.641 2865.5 303.641C2856 303.641 2839.38 310.815 2832.26 325.163V306.033H2808.52V430.38H2832.26V363.424C2832.26 337.12 2848.88 327.554 2865.5 327.554C2882.12 327.554 2891.61 339.511 2891.61 361.033V430.38H2915.35V363.424C2915.35 341.902 2927.23 325.163 2948.59 325.163ZM2720.68 408.859C2732.55 408.859 2742.05 404.076 2749.17 396.902C2756.29 389.728 2761.04 377.772 2761.04 368.207C2761.04 344.294 2742.05 327.554 2720.68 327.554C2699.31 327.554 2680.32 344.294 2680.32 368.207C2680.32 380.163 2685.07 389.728 2692.19 396.902C2699.31 404.076 2711.18 408.859 2720.68 408.859ZM2720.68 430.38C2685.07 430.38 2656.58 404.076 2656.58 365.815C2656.58 327.554 2685.07 301.25 2720.68 301.25C2756.29 301.25 2784.78 325.163 2784.78 365.815C2784.78 406.467 2756.29 430.38 2720.68 430.38ZM2535.5 365.815C2535.5 327.554 2563.99 301.25 2599.6 301.25C2616.22 301.25 2635.21 308.424 2647.08 320.38L2628.09 334.728C2620.97 327.554 2609.1 322.772 2599.6 322.772C2578.24 322.772 2559.24 339.511 2559.24 363.424C2559.24 380.163 2568.74 394.511 2585.36 401.685C2601.98 408.859 2618.59 404.076 2630.47 392.12L2649.46 406.467C2637.59 418.424 2620.97 427.989 2601.98 425.598C2566.36 430.38 2535.5 406.467 2535.5 365.815ZM2459.53 404.076C2459.53 394.511 2466.65 387.337 2476.15 387.337C2485.65 387.337 2492.77 394.511 2492.77 404.076C2492.77 413.641 2485.65 420.815 2476.15 420.815C2469.03 420.815 2461.91 413.641 2459.53 404.076Z" fill="#1A1D21"/>
<path fill-rule="evenodd" clip-rule="evenodd" d="M2526.02 148.261H2440.55L2381.2 301.304L2321.85 148.261H2236.38L2338.47 389.783L2274.37 550H2357.46L2526.02 148.261ZM2013.22 282.174C2013.22 320.435 2046.45 346.739 2079.69 346.739C2112.93 346.739 2143.79 322.826 2143.79 282.174C2143.79 241.522 2112.93 217.609 2079.69 217.609C2046.45 217.609 2013.22 243.913 2013.22 282.174ZM2143.79 418.478V387.391C2127.17 413.696 2086.81 423.261 2065.45 423.261C1996.6 423.261 1930.12 370.652 1930.12 282.174C1930.12 196.087 1998.97 141.087 2065.45 141.087C2082.06 141.087 2122.42 145.87 2143.79 176.957V145.87H2222.14V416.087L2143.79 418.478ZM1908.76 418.478H1830.41V385C1816.17 408.913 1785.3 423.261 1752.07 423.261C1683.22 423.261 1623.87 368.261 1623.87 282.174C1623.87 196.087 1683.22 141.087 1752.07 141.087C1785.3 141.087 1816.17 155.435 1830.41 179.348V0H1908.76V418.478ZM1828.04 282.174C1828.04 241.522 1799.55 217.609 1766.31 217.609C1733.07 217.609 1704.59 243.913 1704.59 282.174C1704.59 322.826 1733.07 346.739 1766.31 346.739C1799.55 346.739 1828.04 320.435 1828.04 282.174ZM1429.19 275C1429.19 234.348 1450.56 220 1479.05 220C1505.16 220 1524.16 239.13 1524.16 272.609V416.087H1602.5V253.478C1602.5 176.957 1564.52 138.696 1505.16 138.696C1474.3 138.696 1443.44 157.826 1429.19 184.13V145.87H1350.85V416.087H1429.19V275ZM1189.41 423.261C1113.44 423.261 1051.71 368.261 1051.71 282.174C1051.71 196.087 1113.44 141.087 1189.41 141.087C1265.38 141.087 1327.11 196.087 1327.11 282.174C1327.11 368.261 1263.01 423.261 1189.41 423.261ZM1189.41 344.348C1222.65 344.348 1248.76 320.435 1248.76 282.174C1248.76 246.304 1220.27 220 1189.41 220C1172.79 220 1158.55 227.174 1146.68 236.739C1134.81 248.696 1130.06 263.043 1130.06 279.783C1130.06 318.043 1156.17 344.348 1189.41 344.348ZM909.269 220C933.01 220 952.002 239.13 952.002 272.609V416.087H1030.35V263.044C1030.35 181.739 989.988 141.087 928.261 141.087C909.269 141.087 873.658 145.87 847.543 188.913C833.298 157.826 804.809 141.087 762.076 141.087C731.213 141.087 705.098 157.826 693.228 186.522V148.261H614.883V418.478H693.228V275C693.228 234.348 714.594 220 738.335 220C762.076 220 781.069 239.13 781.069 272.609V418.478H859.413V275C864.161 234.348 883.154 220 909.269 220Z" fill="#1A1D21"/>
</g>
<defs>
<clipPath id="clip0_1214_31602">
<rect width="3000" height="550" fill="white"/>
</clipPath>
</defs>
</svg>
