<svg xmlns="http://www.w3.org/2000/svg" version="1.1" viewBox="98.615 97.92 619.4 117.504" style="max-height: 500px" width="619.4" height="117.504">
<path transform="translate(473,102)" fill="#313131" d="M0 0 C6.6 0 13.2 0 20 0 C20 33.33 20 66.66 20 101 C13.73 101 7.46 101 1 101 C0.34 99.35 -0.32 97.7 -1 96 C-1.86625 96.61875 -2.7325 97.2375 -3.625 97.875 C-11.36957904 102.75121643 -19.06731212 102.7413019 -28 102 C-36.87014898 99.93499177 -43.04896885 95.00463697 -48.25 87.6875 C-54.68112215 77.28421417 -55.7970254 65.73910568 -53.34375 53.80859375 C-49.90435195 43.38662465 -43.82154557 35.05208999 -34 30 C-26.03856071 26.63169876 -16.41089786 26.74168105 -8.375 29.8125 C-5.0497403 31.25418236 -3.667827 32.332173 -1 35 C-0.67 23.45 -0.34 11.9 0 0 Z M-27.7578125 50.4140625 C-32.14185445 54.88282024 -33.87028441 59.77365154 -34 66 C-33.09499281 72.35351987 -31.20196452 77.00779467 -26 81 C-21.34586772 83.99932969 -17.40664459 84.79095201 -12 84 C-6.66595418 82.01280646 -2.38668145 78.89457631 0.1171875 73.66796875 C2.08043827 67.73478169 1.94756011 61.2593506 -0.6875 55.5625 C-3.1457941 51.4029643 -5.59224042 48.83585436 -10.26171875 47.21484375 C-17.14016459 45.45573126 -22.15551605 45.90732625 -27.7578125 50.4140625 Z"/>
<path transform="translate(183.86328125,134.98828125)" fill="#313131" d="M0 0 C8.03704131 6.89399544 12.50516 13.57382324 14.13671875 24.01171875 C14.38492063 27.43296037 14.39484151 30.83269923 14.3671875 34.26171875 C14.36672928 35.20104248 14.36627106 36.14036621 14.36579895 37.1081543 C14.36279939 39.07455728 14.35498284 41.04095838 14.3425293 43.00732422 C14.32410118 46.03100888 14.3220211 49.05438965 14.32226562 52.078125 C14.31735602 53.99349225 14.31153015 55.90885743 14.3046875 57.82421875 C14.30357468 58.73139648 14.30246185 59.63857422 14.30131531 60.57324219 C14.25282122 66.89561628 14.25282122 66.89561628 13.13671875 68.01171875 C11.7332314 68.11032006 10.32491398 68.14250812 8.91796875 68.14453125 C7.64373047 68.14646484 7.64373047 68.14646484 6.34375 68.1484375 C5.45042969 68.14457031 4.55710937 68.14070313 3.63671875 68.13671875 C2.74339844 68.14058594 1.85007812 68.14445312 0.9296875 68.1484375 C0.08019531 68.14714844 -0.76929688 68.14585937 -1.64453125 68.14453125 C-2.42892578 68.14340332 -3.21332031 68.14227539 -4.02148438 68.14111328 C-5.86328125 68.01171875 -5.86328125 68.01171875 -6.86328125 67.01171875 C-6.98663407 64.05373345 -7.04946432 61.11553167 -7.07421875 58.15625 C-7.10230135 56.31835068 -7.13096589 54.48046018 -7.16015625 52.64257812 C-7.20133561 49.73722713 -7.2382101 46.83203825 -7.26464844 43.92651367 C-7.29234249 41.12774289 -7.33823109 38.32972764 -7.38671875 35.53125 C-7.38997162 34.66852982 -7.39322449 33.80580963 -7.39657593 32.91694641 C-7.53107027 26.2827779 -8.84956108 22.07120528 -13.61328125 17.19921875 C-17.34900035 14.68479243 -19.37179868 14.01171875 -23.86328125 14.01171875 C-28.13349792 14.92504839 -31.0959768 16.26460652 -34.23828125 19.32421875 C-37.79804206 25.21151548 -38.185704 30.65204221 -38.27734375 37.34765625 C-38.2967099 38.22700836 -38.31607605 39.10636047 -38.33602905 40.01235962 C-38.3955094 42.80371593 -38.44208335 45.59511418 -38.48828125 48.38671875 C-38.5264901 50.28647569 -38.56554351 52.18621585 -38.60546875 54.0859375 C-38.70276489 58.72777413 -38.782583 63.36944553 -38.86328125 68.01171875 C-45.46328125 68.01171875 -52.06328125 68.01171875 -58.86328125 68.01171875 C-59.35828125 49.69671875 -59.35828125 49.69671875 -59.86328125 31.01171875 C-63.49328125 29.36171875 -67.12328125 27.71171875 -70.86328125 26.01171875 C-77.16091487 22.86290194 -79.35513625 18.35287566 -81.86328125 12.01171875 C-83.24001653 6.82248578 -82.86328125 2.63105702 -82.86328125 -2.98828125 C-75.93328125 -2.98828125 -69.00328125 -2.98828125 -61.86328125 -2.98828125 C-60.87328125 1.30171875 -59.88328125 5.59171875 -58.86328125 10.01171875 C-53.77713871 9.17537557 -53.77713871 9.17537557 -51.05078125 5.76171875 C-39.37313951 -8.70195935 -14.8930762 -10.34184964 0 0 Z"/>
<path transform="translate(265.3125,135.6875)" fill="#313131" d="M0 0 C7.96078573 6.60679963 12.63593052 15.00711913 13.6875 25.3125 C14.01348425 33.6605315 14.01348425 33.6605315 12.6875 36.3125 C-4.4725 36.6425 -21.6325 36.9725 -39.3125 37.3125 C-36.31134804 44.59418045 -36.31134804 44.59418045 -30.3125 48.3125 C-22.87799306 50.57452037 -16.24807404 49.5411293 -9.3125 46.3125 C-8.84585938 45.76207031 -8.37921875 45.21164063 -7.8984375 44.64453125 C-6.3125 43.3125 -6.3125 43.3125 -3.953125 43.3828125 C-0.76853888 44.50401294 1.32614341 46.05306781 3.9375 48.1875 C4.80890625 48.88617188 5.6803125 49.58484375 6.578125 50.3046875 C8.6875 52.3125 8.6875 52.3125 9.6875 55.3125 C1.23203971 64.28041243 -6.79091355 68.28853344 -19.23999023 68.71704102 C-31.27112866 68.87502212 -41.32386086 66.86747673 -50.3125 58.3125 C-58.19178693 49.68109932 -60.64306128 40.18096948 -60.52734375 28.69921875 C-59.84376896 17.92359436 -54.93604883 9.20303125 -47.1953125 1.84765625 C-34.65756461 -8.37503031 -13.26174303 -9.20049091 0 0 Z M-37.1875 17.375 C-39.50787326 19.97831834 -39.50787326 19.97831834 -39.3125 22.3125 C-28.7525 22.3125 -18.1925 22.3125 -7.3125 22.3125 C-10.11819424 16.70111152 -11.83957905 14.04896048 -17.3125 11.3125 C-25.41300488 10.62422181 -31.57530571 10.99892371 -37.1875 17.375 Z"/>
<path transform="translate(561.6875,135.6875)" fill="#313131" d="M0 0 C8.42463022 6.04310931 14.30266016 14.01911466 16.3125 24.3125 C17.24786206 36.21153212 16.05686637 46.3966775 8.125 55.6875 C0.21951903 63.76173508 -7.65006436 68.46002746 -19.14453125 68.69360352 C-31.62929219 68.66037108 -40.18508407 66.77489092 -49.45703125 57.8125 C-57.47687173 48.82353694 -60.2113028 39.81667896 -59.99609375 27.87890625 C-59.105765 17.58941064 -54.2808709 9.43508618 -46.73828125 2.52734375 C-33.43572783 -8.10947205 -14.40759261 -8.90166075 0 0 Z M-37.6875 23.3125 C-39.4399789 28.56993671 -39.79258056 34.43547993 -37.78125 39.671875 C-34.52127467 45.23055088 -30.65956727 48.47134889 -24.375 50.25 C-19.10387073 50.33934117 -14.16456789 49.45969202 -10.07421875 45.9140625 C-5.17838686 40.2239216 -4.16884172 35.72186181 -4.3125 28.359375 C-4.97422372 22.98286975 -7.23404749 19.50441696 -11.2265625 15.9375 C-21.54921853 8.89265418 -31.10060243 14.46723755 -37.6875 23.3125 Z"/>
<path transform="translate(647,138)" fill="#313131" d="M0 0 C7.88439129 6.6087145 12.34108195 14.80700824 13.84375 25.0078125 C14.3421694 34.55254394 12.59457856 43.20810785 7 51 C6.35224609 51.93585938 6.35224609 51.93585938 5.69140625 52.890625 C0.27418513 59.94989331 -7.42910471 64.02905573 -16 66 C-27.31229328 67.15301309 -38.36074882 66.66757745 -47.75 59.75 C-56.91636743 51.99011222 -61.44716087 44.17546911 -62.9375 32.0625 C-63.45368227 22.35575543 -60.86247656 13.72252578 -55 6 C-54.39542969 5.17757812 -53.79085937 4.35515625 -53.16796875 3.5078125 C-39.9468538 -11.78580155 -15.38057511 -12.23454838 0 0 Z M-37.75 16.875 C-41.80972378 22.51350525 -42.77743828 27.13667765 -42 34 C-40.05566568 39.32133603 -37.08539551 43.41895603 -31.95703125 46.046875 C-27.34852243 47.8553776 -23.66946691 48.48841119 -18.91796875 46.9140625 C-13.689856 44.42245683 -10.12397292 41.16823334 -7.9375 35.75 C-6.15429606 29.22259298 -7.72741521 23.54516959 -10.6875 17.625 C-14.03628176 13.82368016 -17.23652931 11.42848239 -22.2421875 10.65234375 C-28.89076757 10.39490715 -33.08045378 11.99320168 -37.75 16.875 Z"/>
<path transform="translate(280,132)" fill="#303030" d="M0 0 C7.55765443 -1.19616855 15.58543136 -2.32240823 23 0 C29.10665246 4.81447269 32.71441865 12.08217119 36 19 C37.23273013 17.33596727 38.46097808 15.66861393 39.6875 14 C40.37199219 13.071875 41.05648437 12.14375 41.76171875 11.1875 C43.96089975 8.2733706 43.96089975 8.2733706 44.95239258 5.85742188 C46.09636865 3.45376578 47.04064932 1.81448952 49 0 C53.13739004 -0.99569191 57.08790839 -0.75678406 61.3125 -0.5 C62.99569336 -0.44585937 62.99569336 -0.44585937 64.71289062 -0.390625 C67.47874621 -0.29646821 70.23762241 -0.16512661 73 0 C72.39724207 4.2497078 69.92213363 7.42292827 67.5625 10.8828125 C67.12236572 11.53829071 66.68223145 12.19376892 66.22875977 12.86911011 C64.82458084 14.95810941 63.41259598 17.04168536 62 19.125 C60.589017 21.21650135 59.17965055 23.30907869 57.77124023 25.40231323 C56.89499634 26.70346644 56.01695735 28.0034129 55.13696289 29.30203247 C52.92000382 32.56217256 52.92000382 32.56217256 51 36 C51.34667725 36.47719482 51.69335449 36.95438965 52.05053711 37.44604492 C55.47788177 42.1674969 58.89296677 46.8975787 62.29785156 51.63525391 C63.36197357 53.11360814 64.42861859 54.59015334 65.49902344 56.06396484 C66.77923695 57.82802779 68.0475456 59.59997912 69.3125 61.375 C70.03050781 62.37273437 70.74851562 63.37046875 71.48828125 64.3984375 C73 67 73 67 73 71 C69.45919329 71.20439826 65.91990993 71.32797882 62.375 71.4375 C60.87646484 71.52547852 60.87646484 71.52547852 59.34765625 71.61523438 C52.0787735 71.78371841 52.0787735 71.78371841 49.09960938 69.61938477 C47.53975466 67.82658715 46.26242517 66.01142997 45 64 C44.25234375 62.98035156 43.5046875 61.96070313 42.734375 60.91015625 C41.3995023 58.99456137 40.06619546 57.07787447 38.734375 55.16015625 C38.16203125 54.44730469 37.5896875 53.73445313 37 53 C36.34 53 35.68 53 35 53 C33.59856563 54.59616629 33.59856563 54.59616629 32.21484375 56.68359375 C31.41916992 57.82731445 31.41916992 57.82731445 30.60742188 58.99414062 C30.05634766 59.80044922 29.50527344 60.60675781 28.9375 61.4375 C27.84310578 63.01998641 26.7480864 64.60204072 25.65234375 66.18359375 C25.16757568 66.89056396 24.68280762 67.59753418 24.18334961 68.32592773 C23 70 23 70 22 71 C20.36527118 71.08700342 18.72685945 71.10701063 17.08984375 71.09765625 C16.10048828 71.09443359 15.11113281 71.09121094 14.09179688 71.08789062 C13.05087891 71.07951172 12.00996094 71.07113281 10.9375 71.0625 C9.89271484 71.05798828 8.84792969 71.05347656 7.77148438 71.04882812 C5.1809334 71.03699913 2.59049441 71.02051689 0 71 C-0.33 70.01 -0.66 69.02 -1 68 C0.1953125 65.71484375 0.1953125 65.71484375 2.125 62.9375 C2.84945313 61.88433594 3.57390625 60.83117187 4.3203125 59.74609375 C6.32249468 56.92089547 8.37129471 54.13210651 10.4296875 51.34765625 C11.31309814 50.14604858 11.31309814 50.14604858 12.21435547 48.92016602 C13.3940826 47.32122767 14.58308084 45.72908372 15.78173828 44.14428711 C16.32813965 43.40573486 16.87454102 42.66718262 17.4375 41.90625 C18.17806641 40.92108398 18.17806641 40.92108398 18.93359375 39.91601562 C20.32421561 37.78294613 20.32421561 37.78294613 20 34 C18.92615579 31.76789252 18.92615579 31.76789252 17.3125 29.4375 C16.68859375 28.48617187 16.0646875 27.53484375 15.421875 26.5546875 C13.52550219 23.74653334 11.58472496 20.97058563 9.640625 18.1953125 C9.05240967 17.3504126 8.46419434 16.5055127 7.8581543 15.63500977 C6.67072035 13.93385524 5.47438174 12.23887829 4.26879883 10.55053711 C3.71732178 9.76171143 3.16584473 8.97288574 2.59765625 8.16015625 C2.09758057 7.45511963 1.59750488 6.75008301 1.08227539 6.02368164 C0 4 0 4 0 0 Z"/>
<path transform="translate(373,112)" fill="#313131" d="M0 0 C3.31255326 -0.02683436 6.62489183 -0.0467578 9.9375 -0.0625 C10.88302734 -0.07087891 11.82855469 -0.07925781 12.80273438 -0.08789062 C14.15141602 -0.09272461 14.15141602 -0.09272461 15.52734375 -0.09765625 C16.77632446 -0.10551147 16.77632446 -0.10551147 18.05053711 -0.11352539 C20 0 20 0 21 1 C21.08651611 2.41570123 21.10704904 3.835595 21.09765625 5.25390625 C21.09443359 6.10791016 21.09121094 6.96191406 21.08789062 7.84179688 C21.07532227 9.18854492 21.07532227 9.18854492 21.0625 10.5625 C21.05798828 11.46419922 21.05347656 12.36589844 21.04882812 13.29492188 C21.03700244 15.52997589 21.01906638 17.76499602 21 20 C26.61 20 32.22 20 38 20 C38 25.61 38 31.22 38 37 C32.39 37 26.78 37 21 37 C21.0970745 41.19974926 21.19988469 45.39854303 21.31738281 49.59765625 C21.35560024 51.02530398 21.39046572 52.45304563 21.421875 53.88085938 C21.46768401 55.93653868 21.5256498 57.99157554 21.5859375 60.046875 C21.6173584 61.28276367 21.6487793 62.51865234 21.68115234 63.79199219 C21.9784087 66.78276444 22.33130977 68.53327291 24 71 C29.0351242 73.17402511 34.60934477 73.11230532 40 73 C41 74 41 74 41.09765625 77.59765625 C41.0909822 79.08596867 41.07902183 80.57426432 41.0625 82.0625 C41.05798828 82.82111328 41.05347656 83.57972656 41.04882812 84.36132812 C41.0370068 86.24091871 41.01907078 88.12046899 41 90 C31.15281826 93.04389485 21.60767649 93.07598396 12 89 C6.33348232 85.5772712 3.10954725 81.35526819 0.78295898 75.22583008 C-0.91093925 68.24688485 -0.40278375 61.00971295 -0.25 53.875 C-0.22989775 52.23439688 -0.21165358 50.59376989 -0.1953125 48.953125 C-0.15505535 44.96766704 -0.07672778 40.98558176 0 37 C-4.95 37 -9.9 37 -15 37 C-15 31.39 -15 25.78 -15 20 C-10.38 19.67 -5.76 19.34 -1 19 C-0.67 12.73 -0.34 6.46 0 0 Z"/>
<path transform="translate(707.25,130.8125)" fill="#313131" d="M0 0 C1.05703125 0.00644531 2.1140625 0.01289063 3.203125 0.01953125 C5.75 0.1875 5.75 0.1875 6.75 1.1875 C6.83651611 2.60320123 6.85704904 4.023095 6.84765625 5.44140625 C6.84443359 6.29541016 6.84121094 7.14941406 6.83789062 8.02929688 C6.82532227 9.37604492 6.82532227 9.37604492 6.8125 10.75 C6.80798828 11.65169922 6.80347656 12.55339844 6.79882812 13.48242188 C6.78700225 15.71751314 6.7705222 17.95247437 6.75 20.1875 C6.03714844 20.15269531 5.32429687 20.11789063 4.58984375 20.08203125 C-2.42854487 19.88366495 -7.25206195 20.29244142 -13.0625 24.5 C-16.63490628 29.57657734 -16.5678163 35.32347942 -16.62890625 41.26953125 C-16.64590073 42.12431564 -16.6628952 42.97910004 -16.68040466 43.85978699 C-16.73327575 46.57311757 -16.77374509 49.286434 -16.8125 52 C-16.85641077 54.73134564 -16.90301948 57.4625729 -16.95530701 60.19377136 C-16.98730633 61.88973544 -17.01418323 63.58580514 -17.03553772 65.28193665 C-17.13819089 71.07569089 -17.13819089 71.07569089 -18.25 72.1875 C-19.65348735 72.28610131 -21.06180477 72.31828937 -22.46875 72.3203125 C-23.74298828 72.32224609 -23.74298828 72.32224609 -25.04296875 72.32421875 C-25.93628906 72.32035156 -26.82960938 72.31648438 -27.75 72.3125 C-28.64332031 72.31636719 -29.53664063 72.32023437 -30.45703125 72.32421875 C-31.30652344 72.32292969 -32.15601563 72.32164062 -33.03125 72.3203125 C-33.81564453 72.31918457 -34.60003906 72.31805664 -35.40820312 72.31689453 C-37.25 72.1875 -37.25 72.1875 -38.25 71.1875 C-38.34429342 69.00944281 -38.36742538 66.8282872 -38.36352539 64.64819336 C-38.36367142 63.96529739 -38.36381744 63.28240143 -38.3639679 62.57881165 C-38.36326876 60.31162386 -38.3554764 58.04451726 -38.34765625 55.77734375 C-38.34579207 54.20935613 -38.34436817 52.64136793 -38.34336853 51.07337952 C-38.33954334 46.93873497 -38.32971306 42.80412534 -38.31866455 38.66949463 C-38.30845044 34.45349602 -38.30387091 30.23749178 -38.29882812 26.02148438 C-38.28809078 17.74347174 -38.27049399 9.46549423 -38.25 1.1875 C-31.32 1.1875 -24.39 1.1875 -17.25 1.1875 C-16.92 3.1675 -16.59 5.1475 -16.25 7.1875 C-15.528125 6.40375 -14.80625 5.62 -14.0625 4.8125 C-9.60805454 0.65501757 -6.01418134 -0.0814729 0 0 Z"/>
<path transform="translate(467.26953125,133.125)" fill="#262626" d="M0 0 C0.85658203 0.433125 0.85658203 0.433125 1.73046875 0.875 C-0.76018013 1.56207555 -2.64839417 1.875 -5.26953125 1.875 C-5.59953125 1.215 -5.92953125 0.555 -6.26953125 -0.125 C-9.1192159 -1.10829778 -11.83271229 -1.28712505 -14.83203125 -1.3125 C-15.59644531 -1.32667969 -16.36085938 -1.34085938 -17.1484375 -1.35546875 C-19.57106628 -1.2573375 -19.57106628 -1.2573375 -22.26953125 0.875 C-22.92953125 0.545 -23.58953125 0.215 -24.26953125 -0.125 C-24.59953125 0.535 -24.92953125 1.195 -25.26953125 1.875 C-28.26953125 1.875 -28.26953125 1.875 -31.26953125 0.875 C-20.48449957 -3.80529677 -11.05552099 -5.06198735 0 0 Z"/>
<path transform="translate(150,132)" fill="#232323" d="M0 0 C-0.66386719 0.30292969 -1.32773438 0.60585937 -2.01171875 0.91796875 C-7.21324642 3.38584684 -11.15161534 5.61711747 -15 10 C-16.92296717 12.17532506 -18.82047028 14.05233514 -21 16 C-23.18359375 15.6640625 -23.18359375 15.6640625 -25 15 C-24.40703125 14.74863281 -23.8140625 14.49726563 -23.203125 14.23828125 C-20.7220108 12.8437543 -19.50382397 11.4138348 -17.75 9.1875 C-13.58171123 4.24664046 -6.8281766 -2.27605887 0 0 Z"/>
<path transform="translate(545,148)" fill="#242424" d="M0 0 C1.27450447 0.59638333 2.54446877 1.20247416 3.8125 1.8125 C4.52019531 2.14894531 5.22789062 2.48539063 5.95703125 2.83203125 C10.96387464 5.69445223 11.94050296 9.11937908 13.4296875 14.48828125 C14.09787527 17.43105342 14.37521037 19.99831707 14 23 C13.34 23.66 12.68 24.32 12 25 C11.96132813 23.82244141 11.96132813 23.82244141 11.921875 22.62109375 C11.56347201 15.98249294 11.17839892 11.27797758 7 6 C4.72434635 4.36406873 2.54397623 3.22306549 0 2 C0 1.34 0 0.68 0 0 Z"/>
<path transform="translate(336,157)" fill="#252525" d="M0 0 C0 4.01833178 -1.75558315 5.84538727 -4.00390625 9.0625 C-4.33261719 9.701875 -4.66132813 10.34125 -5 11 C-4.67 11.99 -4.34 12.98 -4 14 C-4.99 13.67 -5.98 13.34 -7 13 C-7.75 11.0625 -7.75 11.0625 -8 9 C-7.67 8.34 -7.34 7.68 -7 7 C-6.34 7 -5.68 7 -5 7 C-4.731875 6.401875 -4.46375 5.80375 -4.1875 5.1875 C-3.01506533 3.02775192 -1.80630718 1.64209744 0 0 Z"/>
<path transform="translate(617,185)" fill="#2A2A2A" d="M0 0 C1.65 0 3.3 0 5 0 C5 3 5 3 4 5 C2.68 4.34 1.36 3.68 0 3 C0 2.01 0 1.02 0 0 Z M13 0 C12.34 0.66 11.68 1.32 11 2 C8.375 1.625 8.375 1.625 6 1 C6 0.67 6 0.34 6 0 C10.75 -1.125 10.75 -1.125 13 0 Z"/>
<path transform="translate(714,146)" fill="#2B2B2B" d="M0 0 C0 1.65 0 3.3 0 5 C-1.258125 5.04125 -2.51625 5.0825 -3.8125 5.125 C-4.52019531 5.14820313 -5.22789062 5.17140625 -5.95703125 5.1953125 C-8 5 -8 5 -11 3 C-10.34 2.67 -9.68 2.34 -9 2 C-8.01 2.33 -7.02 2.66 -6 3 C-5.67 2.34 -5.34 1.68 -5 1 C-3.3176559 0.47426747 -1.77322566 0 0 0 Z"/>
<path transform="translate(236,130)" fill="#272727" d="M0 0 C7.65606218 -0.19355213 14.66258031 -0.3479743 22 2 C20.68 2.99 19.36 3.98 18 5 C17.67 4.34 17.34 3.68 17 3 C13.63647978 1.75046795 10.30116397 1.89890039 6.75 1.9375 C5.67234375 1.94652344 4.5946875 1.95554688 3.484375 1.96484375 C2.25460938 1.98224609 2.25460938 1.98224609 1 2 C0.67 1.34 0.34 0.68 0 0 Z"/>
<path transform="translate(617,147)" fill="#262626" d="M0 0 C9.73004484 -0.76681614 9.73004484 -0.76681614 12.84375 1.11328125 C14.1875 2.5 14.1875 2.5 16 5 C15.236875 4.67 14.47375 4.34 13.6875 4 C8.74825349 2.66054332 4.08536891 2.83712342 -1 3 C-0.67 2.01 -0.34 1.02 0 0 Z"/>
<path transform="translate(548,201)" fill="#222222" d="M0 0 C1.67542976 0.28604898 3.34385343 0.61781233 5 1 C2.08175756 2.66674321 0.02405621 3.2432008 -3.328125 3.1953125 C-4.12734375 3.18886719 -4.9265625 3.18242187 -5.75 3.17578125 C-6.575 3.15902344 -7.4 3.14226562 -8.25 3.125 C-9.09046875 3.11597656 -9.9309375 3.10695312 -10.796875 3.09765625 C-12.86470604 3.07415817 -14.93238995 3.03828908 -17 3 C-17 2.67 -17 2.34 -17 2 C-15.85660156 1.93941406 -14.71320312 1.87882813 -13.53515625 1.81640625 C-12.04425695 1.73201572 -10.55337225 1.64736698 -9.0625 1.5625 C-8.30775391 1.52318359 -7.55300781 1.48386719 -6.77539062 1.44335938 C-3.08055813 1.55961976 -3.08055813 1.55961976 0 0 Z"/>
<path transform="translate(165,147)" fill="#232323" d="M0 0 C0.33 0.66 0.66 1.32 1 2 C-0.01320312 2.09087891 -0.01320312 2.09087891 -1.046875 2.18359375 C-1.93890625 2.26738281 -2.8309375 2.35117188 -3.75 2.4375 C-4.63171875 2.51871094 -5.5134375 2.59992188 -6.421875 2.68359375 C-8.69350452 2.96238465 -10.79851823 3.38790577 -13 4 C-13 3.34 -13 2.68 -13 2 C-8.26201915 -0.88901271 -5.40150838 -1.37685508 0 0 Z"/>
<path transform="translate(525,132)" fill="#212121" d="M0 0 C2 1 2 1 2 1 Z M-2 1 C-1.34 1.33 -0.68 1.66 0 2 C-0.72316406 2.50660156 -0.72316406 2.50660156 -1.4609375 3.0234375 C-2.09257813 3.46945313 -2.72421875 3.91546875 -3.375 4.375 C-4.00148438 4.81585938 -4.62796875 5.25671875 -5.2734375 5.7109375 C-7.12380509 7.02808866 -7.12380509 7.02808866 -9 9 C-9.99 8.67 -10.98 8.34 -12 8 C-10.70982586 7.01886757 -9.41780894 6.04015801 -8.125 5.0625 C-7.04605469 4.24458984 -7.04605469 4.24458984 -5.9453125 3.41015625 C-4 2 -4 2 -2 1 Z"/>
<path transform="translate(474,162)" fill="#262626" d="M0 0 C2.35333796 4.70667591 2.17102038 6.8693886 2 12 C1.01 12.33 0.02 12.66 -1 13 C-0.67 8.71 -0.34 4.42 0 0 Z"/>
<path transform="translate(712,131)" fill="#2B2B2B" d="M0 0 C0.66 0.33 1.32 0.66 2 1 C2 5.29 2 9.58 2 14 C1.67 14 1.34 14 1 14 C0.83165067 12.22932584 0.66538091 10.45845388 0.5 8.6875 C0.4071875 7.70136719 0.314375 6.71523437 0.21875 5.69921875 C0 3 0 3 0 0 Z"/>
<path transform="translate(328,134)" fill="#212121" d="M0 0 C0.33 0.66 0.66 1.32 1 2 C0.22265625 3.7265625 0.22265625 3.7265625 -0.9375 5.625 C-1.618125 6.73875 -2.29875 7.8525 -3 9 C-3.66 9 -4.32 9 -5 9 C-3.7508258 5.54074837 -2.32472205 2.85306797 0 0 Z"/>
<path transform="translate(0,0)" fill="#FFFFFF" d=""/>
<path transform="translate(0,0)" fill="#FFFFFF" d=""/>
<path transform="translate(0,0)" fill="#FFFFFF" d=""/>
<path transform="translate(0,0)" fill="#FFFFFF" d=""/>
<path transform="translate(0,0)" fill="#FFFFFF" d=""/>
<path transform="translate(0,0)" fill="#FFFFFF" d=""/>
<path transform="translate(0,0)" fill="#FFFFFF" d=""/>
<path transform="translate(0,0)" fill="#FFFFFF" d=""/>
<path transform="translate(0,0)" fill="#FFFFFF" d=""/>
<path transform="translate(0,0)" fill="#FFFFFF" d=""/>
<path transform="translate(0,0)" fill="#FFFFFF" d=""/>
<path transform="translate(0,0)" fill="#FFFFFF" d=""/>
<path transform="translate(0,0)" fill="#FFFFFF" d=""/>
<path transform="translate(0,0)" fill="#FFFFFF" d=""/>
<path transform="translate(0,0)" fill="#FFFFFF" d=""/>
<path transform="translate(0,0)" fill="#FFFFFF" d=""/>
<path transform="translate(0,0)" fill="#FFFFFF" d=""/>
<path transform="translate(0,0)" fill="#FFFFFF" d=""/>
<path transform="translate(0,0)" fill="#FFFFFF" d=""/>
<path transform="translate(0,0)" fill="#FFFFFF" d=""/>
<path transform="translate(0,0)" fill="#FFFFFF" d=""/>
<path transform="translate(0,0)" fill="#FFFFFF" d=""/>
<path transform="translate(0,0)" fill="#FFFFFF" d=""/>
<path transform="translate(0,0)" fill="#FFFFFF" d=""/>
<path transform="translate(0,0)" fill="#FFFFFF" d=""/>
<path transform="translate(0,0)" fill="#FFFFFF" d=""/>
<path transform="translate(0,0)" fill="#FFFFFF" d=""/>
<path transform="translate(0,0)" fill="#FFFFFF" d=""/>
<path transform="translate(0,0)" fill="#FFFFFF" d=""/>
<path transform="translate(0,0)" fill="#FFFFFF" d=""/>
<path transform="translate(0,0)" fill="#FFFFFF" d=""/>
<path transform="translate(0,0)" fill="#FFFFFF" d=""/>
<path transform="translate(0,0)" fill="#FFFFFF" d=""/>
<path transform="translate(0,0)" fill="#FFFFFF" d=""/>
<path transform="translate(0,0)" fill="#FFFFFF" d=""/>
<path transform="translate(0,0)" fill="#FFFFFF" d=""/>
<path transform="translate(0,0)" fill="#FFFFFF" d=""/>
<path transform="translate(0,0)" fill="#FFFFFF" d=""/>
<path transform="translate(0,0)" fill="#FFFFFF" d=""/>
<path transform="translate(0,0)" fill="#FFFFFF" d=""/>
<path transform="translate(0,0)" fill="#FFFFFF" d=""/>
<path transform="translate(0,0)" fill="#FFFFFF" d=""/>
<path transform="translate(0,0)" fill="#FFFFFF" d=""/>
<path transform="translate(0,0)" fill="#FFFFFF" d=""/>
<path transform="translate(0,0)" fill="#FFFFFF" d=""/>
<path transform="translate(0,0)" fill="#FFFFFF" d=""/>
<path transform="translate(0,0)" fill="#FFFFFF" d=""/>
<path transform="translate(0,0)" fill="#FFFFFF" d=""/>
<path transform="translate(0,0)" fill="#FFFFFF" d=""/>
<path transform="translate(0,0)" fill="#FFFFFF" d=""/>
<path transform="translate(0,0)" fill="#FFFFFF" d=""/>
<path transform="translate(0,0)" fill="#FFFFFF" d=""/>
<path transform="translate(0,0)" fill="#FFFFFF" d=""/>
<path transform="translate(0,0)" fill="#FFFFFF" d=""/>
<path transform="translate(0,0)" fill="#FFFFFF" d=""/>
<path transform="translate(0,0)" fill="#FFFFFF" d=""/>
<path transform="translate(0,0)" fill="#FFFFFF" d=""/>
<path transform="translate(0,0)" fill="#FFFFFF" d=""/>
<path transform="translate(0,0)" fill="#FFFFFF" d=""/>
<path transform="translate(0,0)" fill="#FFFFFF" d=""/>
<path transform="translate(0,0)" fill="#FFFFFF" d=""/>
<path transform="translate(0,0)" fill="#FFFFFF" d=""/>
<path transform="translate(0,0)" fill="#FFFFFF" d=""/>
<path transform="translate(0,0)" fill="#FFFFFF" d=""/>
<path transform="translate(0,0)" fill="#FFFFFF" d=""/>
<path transform="translate(0,0)" fill="#FFFFFF" d=""/>
<path transform="translate(0,0)" fill="#FFFFFF" d=""/>
<path transform="translate(0,0)" fill="#FFFFFF" d=""/>
<path transform="translate(0,0)" fill="#FFFFFF" d=""/>
<path transform="translate(0,0)" fill="#FFFFFF" d=""/>
<path transform="translate(0,0)" fill="#FFFFFF" d=""/>
<path transform="translate(0,0)" fill="#FFFFFF" d=""/>
</svg>