<svg width="1740" height="604" viewBox="0 0 1740 604" fill="none" xmlns="http://www.w3.org/2000/svg">
<g clip-path="url(#clip0_1214_31597)">
<path fill-rule="evenodd" clip-rule="evenodd" d="M370.334 0.964204L36.6476 26.0143C9.6441 27.9412 0 46.2471 0 67.4433V433.56C0 449.939 5.78646 464.391 20.2526 482.697L98.3699 584.824C110.907 601.203 123.445 605.057 147.555 603.13L535.248 580.007C568.038 578.08 577.682 562.665 577.682 536.651V124.288C577.682 110.799 572.86 106.945 556.465 95.3838C555.5 94.4204 554.536 94.4204 553.572 93.4569L447.486 19.27C422.412 0.000738947 411.803 -1.92619 370.334 0.964204ZM156.234 117.544C124.409 119.47 117.658 120.434 99.3343 105.018L54.007 69.3703C49.1849 64.5529 51.1138 58.7721 63.6511 57.8087L384.8 34.6855C411.803 32.7586 425.305 41.4298 435.914 50.1009L490.885 89.603C493.778 90.5665 499.565 97.3108 491.849 97.3108L160.092 117.544H156.234ZM119.587 532.797V183.059C119.587 167.644 124.409 160.899 137.911 159.936L518.853 137.776C531.39 136.813 537.177 144.521 537.177 159.936V506.784C537.177 522.199 534.283 534.724 514.031 535.688L149.484 556.884C129.231 558.811 119.587 551.103 119.587 532.797ZM479.312 202.329C481.241 212.927 479.312 223.525 468.703 224.488L451.344 228.342V486.551C435.913 495.222 422.412 499.076 410.839 499.076C392.515 499.076 387.693 493.295 373.227 475.953L257.498 294.821V469.208L294.145 477.88C294.145 477.88 294.145 499.076 265.213 499.076L184.202 503.893C182.274 499.076 184.202 487.514 191.918 485.587L213.135 479.807V248.575L184.202 245.684C182.274 235.086 188.06 219.671 204.455 218.707L291.252 212.927L410.839 395.985V234.123L379.978 230.269C378.049 217.744 386.729 208.109 398.301 207.146L479.312 202.329Z" fill="#1A1D21"/>
<path d="M834.214 427.779V268.807H837.107L951.872 427.779H988.52V193.657H948.015V352.629H945.121L830.357 193.657H793.709V427.779H834.214ZM1101.36 430.67C1154.4 430.67 1186.22 395.985 1186.22 338.177C1186.22 281.333 1153.43 245.684 1101.36 245.684C1048.31 245.684 1016.49 280.369 1016.49 338.177C1015.52 395.985 1048.31 430.67 1101.36 430.67ZM1101.36 396.948C1073.39 396.948 1056.99 375.752 1056.99 338.177C1056.99 301.565 1073.39 279.406 1101.36 279.406C1129.32 279.406 1145.72 300.602 1145.72 338.177C1144.75 375.752 1129.32 396.948 1101.36 396.948ZM1222.87 207.146V251.465H1194.9V283.259H1222.87V379.606C1222.87 414.291 1239.27 427.779 1279.77 427.779C1287.49 427.779 1295.2 426.816 1300.99 425.852V395.021C1296.17 395.985 1293.27 395.985 1287.49 395.985C1271.09 395.985 1263.38 388.277 1263.38 370.935V284.223H1300.99V252.429H1263.38V208.109H1222.87V207.146ZM1325.1 427.779H1365.6V250.502H1325.1V427.779ZM1345.35 220.634C1358.85 220.634 1369.46 210.036 1369.46 196.548C1369.46 183.059 1358.85 172.461 1345.35 172.461C1331.85 172.461 1321.24 183.059 1321.24 196.548C1321.24 210.036 1331.85 220.634 1345.35 220.634ZM1475.55 430.67C1528.59 430.67 1560.42 395.985 1560.42 338.177C1560.42 281.333 1527.63 245.684 1475.55 245.684C1422.5 245.684 1390.68 280.369 1390.68 338.177C1389.71 395.985 1422.5 430.67 1475.55 430.67ZM1475.55 396.948C1447.58 396.948 1431.18 375.752 1431.18 338.177C1431.18 301.565 1447.58 279.406 1475.55 279.406C1503.52 279.406 1519.91 300.602 1519.91 338.177C1518.95 375.752 1503.52 396.948 1475.55 396.948ZM1584.53 427.779H1625.03V323.725C1625.03 297.711 1640.46 281.333 1663.61 281.333C1687.72 281.333 1699.29 294.821 1699.29 321.798V426.816H1739.8V312.163C1739.8 269.771 1718.58 245.684 1679.04 245.684C1653 245.684 1634.67 258.209 1626 277.479H1623.1V250.502H1584.53V427.779Z" fill="#1A1D21"/>
</g>
<defs>
<clipPath id="clip0_1214_31597">
<rect width="1739.8" height="603.129" fill="white"/>
</clipPath>
</defs>
</svg>
