<svg width="3000" height="756" viewBox="0 0 3000 756" fill="none" xmlns="http://www.w3.org/2000/svg">
<path fill-rule="evenodd" clip-rule="evenodd" d="M190.813 79.375L360.804 235.997V235.961V79.7364H393.895V236.697L564.647 79.375V257.947H634.752V515.52H564.863V674.529L393.895 524.321V676.254H360.804V526.798L191.005 676.352V515.52H120.898V257.947H190.813V79.375ZM335.858 290.633H153.989V482.833H190.964V422.206L335.858 290.633ZM224.094 436.709V603.415L360.804 483.005V312.538L224.094 436.709ZM394.847 481.413V312.377L531.596 436.556V515.52H531.772V601.713L394.847 481.413ZM564.863 482.833H601.662V290.633H421.148L564.863 420.844V482.833ZM531.556 257.947V154.561L419.344 257.947H531.556ZM336.114 257.947H223.903V154.561L336.114 257.947Z" fill="#1A1D21"/>
<mask id="mask0_1214_31610" style="mask-type:luminance" maskUnits="userSpaceOnUse" x="776" y="158" width="2104" height="439">
<path d="M2879.09 158.672H776.445V596.959H2879.09V158.672Z" fill="white"/>
</mask>
<g mask="url(#mask0_1214_31610)">
<path d="M1452.32 253.977H1473.33V297.273H1446.13C1424.82 297.273 1408.92 302.4 1398.38 312.684C1387.91 322.937 1382.64 339.8 1382.64 363.239V505.206H1339.71V254.965H1382.64V294.896C1382.64 297.15 1383.78 298.263 1385.98 298.263C1387.24 298.263 1388.19 297.953 1388.86 297.305C1389.53 296.655 1390.12 295.389 1390.79 293.443C1399.06 267.163 1419.61 254.007 1452.35 254.007H1452.32V253.977ZM1737.93 307.62C1749.2 327.662 1754.86 351.813 1754.86 380.039C1754.86 408.265 1749.23 432.416 1737.93 452.458C1726.63 472.502 1711.99 487.51 1694.01 497.455C1676.04 507.399 1656.71 512.372 1636.04 512.372C1595.31 512.372 1566.67 496.004 1550.13 463.268C1548.88 460.705 1547.25 459.407 1545.36 459.407C1543.46 459.407 1542.48 460.365 1542.48 462.31V596.589H1499.54V254.933H1542.48V297.768C1542.48 299.681 1543.43 300.671 1545.36 300.671C1547.28 300.671 1548.85 299.404 1550.13 296.81C1566.67 264.074 1595.31 247.707 1636.04 247.707C1656.71 247.707 1676.04 252.679 1694.01 262.623C1711.99 272.568 1726.6 287.576 1737.93 307.62ZM1711.96 380.039C1711.96 350.515 1704.09 327.507 1688.35 310.986C1672.6 294.463 1651.87 286.217 1626.05 286.217C1600.24 286.217 1579.5 294.494 1563.76 310.986C1547.99 327.507 1542.23 350.545 1542.23 380.039C1542.23 409.533 1548.02 432.571 1563.76 449.092C1579.5 465.647 1600.27 473.861 1626.05 473.861C1651.84 473.861 1672.6 465.584 1688.35 449.092C1704.09 432.601 1711.96 409.533 1711.96 380.039ZM1014.8 307.99C1026.07 328.032 1031.74 352.183 1031.74 380.409C1031.74 408.637 1026.1 432.786 1014.8 452.829C1003.5 472.873 988.863 487.882 970.886 497.825C952.909 507.769 933.584 512.742 912.911 512.742C872.181 512.742 843.545 496.374 827.007 463.639C825.753 461.075 824.13 459.779 822.229 459.779C820.331 459.779 819.352 460.735 819.352 462.681V596.959H776.445V255.305H819.382V298.138C819.382 300.054 820.331 301.042 822.261 301.042C824.19 301.042 825.753 299.776 827.039 297.18C843.577 264.445 872.211 248.077 912.943 248.077C933.615 248.077 952.939 253.049 970.916 262.994C988.894 272.938 1003.5 287.948 1014.83 307.99H1014.8ZM988.801 380.409C988.801 350.885 980.931 327.879 965.19 311.356C949.448 294.864 928.684 286.588 902.897 286.588C877.112 286.588 856.348 294.864 840.605 311.356C824.865 327.909 819.076 350.917 819.076 380.409C819.076 409.903 824.865 432.941 840.605 449.464C856.348 466.017 877.079 474.231 902.897 474.231C928.714 474.231 949.448 465.955 965.19 449.464C980.931 432.972 988.801 409.903 988.801 380.409ZM1263.82 425.715H1309.14C1303.11 449.154 1290.77 469.444 1272.18 486.584C1253.56 503.755 1226.91 512.309 1192.22 512.309C1166.12 512.309 1143.15 506.936 1123.28 496.189C1103.4 485.441 1088.06 470.154 1077.22 450.235C1066.38 430.348 1060.99 406.937 1060.99 379.977C1060.99 353.016 1066.25 329.608 1076.73 309.718C1087.2 289.831 1101.93 274.512 1120.86 263.766C1139.79 253.019 1161.96 247.644 1187.41 247.644C1212.86 247.644 1233.96 252.957 1251.6 263.519C1269.27 274.111 1282.44 288.163 1291.2 305.611C1299.95 323.122 1304.3 342.269 1304.3 363.116V391.99H1106.28C1107.84 417.006 1116.23 436.926 1131.33 451.656C1146.43 466.417 1166.73 473.798 1192.19 473.798C1212.86 473.798 1228.72 469.569 1239.68 461.045C1250.65 452.521 1258.67 440.755 1263.79 425.653L1263.82 425.715ZM1105.39 355.95H1255.24C1255.24 334.147 1249.67 317.039 1238.52 304.686C1227.37 292.363 1209.89 286.155 1186.03 286.155C1163.76 286.155 1145.54 292.178 1131.39 304.223C1117.24 316.236 1108.58 333.499 1105.39 355.95ZM1789.5 505.145H1832.47V158.672H1789.5V505.176V505.145ZM2393.37 227.602H2443.54V173.434H2393.37V227.602ZM2578.62 467.87C2570.82 468.673 2566.09 469.074 2564.54 469.074C2562.33 469.074 2560.52 468.426 2559.27 467.128C2558.01 465.862 2557.35 464.101 2557.35 461.815C2557.35 460.242 2557.76 455.485 2558.57 447.611C2559.33 439.767 2559.76 427.629 2559.76 411.292V291.56H2621.01L2608.94 254.902H2559.78V187.516H2516.86V254.872H2470.14V291.53H2516.86V423.275C2516.86 450.885 2523.57 471.42 2536.9 484.886C2550.26 498.35 2570.63 505.113 2598.02 505.113H2631.42V466.635H2614.7C2598.47 466.635 2586.46 467.035 2578.66 467.838L2578.62 467.87ZM2838.17 254.902L2767.06 464.874C2766.12 467.468 2764.61 470.834 2759.75 470.834C2754.88 470.834 2753.35 467.468 2752.38 464.874L2681.28 254.902H2637.48L2719.83 505.145H2748.96C2750.85 505.145 2752.31 505.331 2753.29 505.639C2754.24 505.948 2755.03 506.751 2755.67 508.047C2756.92 509.963 2756.77 512.865 2755.18 516.696L2741.82 553.261C2739.9 558.078 2736.25 560.487 2730.87 560.487C2728.94 560.487 2724.5 560.084 2717.51 559.281C2710.5 558.479 2701.47 558.078 2690.32 558.078H2655.47V596.557H2701.28C2728.01 596.557 2744.09 591.987 2757.94 582.845C2771.79 573.705 2782.5 557.583 2790.15 534.484L2879.09 264.507V254.902H2838.23H2838.17ZM2248.03 348.261L2180.74 254.902H2133.49V264.507L2214.12 372.781L2115.81 495.509V505.113H2164.02L2242.29 404.528L2315.31 505.113H2361.61V495.509L2276.16 380.009L2368.79 265.002V254.902H2320.58L2248.05 348.261H2248.03ZM2397.94 505.145H2440.9V254.933H2397.94V505.176V505.145ZM2115.22 425.715C2109.16 449.154 2096.86 469.444 2078.27 486.584C2059.64 503.755 2033.01 512.309 1998.3 512.309C1972.21 512.309 1949.24 506.936 1929.37 496.189C1909.46 485.441 1894.15 470.154 1883.31 450.235C1872.5 430.348 1867.11 406.937 1867.11 379.977C1867.11 353.016 1872.37 329.608 1882.85 309.718C1893.36 289.831 1908.06 274.512 1926.99 263.766C1945.9 253.019 1968.08 247.644 1993.56 247.644C2019.05 247.644 2040.11 252.957 2057.77 263.519C2075.42 274.111 2088.62 288.163 2097.37 305.611C2106.14 323.122 2110.48 342.269 2110.48 363.116V391.99H1912.44C1914.03 417.006 1922.38 436.926 1937.49 451.656C1952.59 466.417 1972.89 473.798 1998.34 473.798C2019.01 473.798 2034.88 469.569 2045.83 461.045C2056.79 452.521 2064.82 440.755 2069.9 425.653H2115.26L2115.22 425.715ZM1912.55 355.95H2062.4C2062.4 334.147 2056.83 317.039 2045.72 304.686C2034.56 292.363 2017.08 286.155 1993.22 286.155C1970.95 286.155 1952.74 292.178 1938.59 304.223C1924.44 316.236 1915.75 333.499 1912.59 355.95H1912.55Z" fill="#1A1D21"/>
</g>
</svg>
