<svg version="1.1" id="Layer_1" xmlns:x="ns_extend;" xmlns:i="ns_ai;" xmlns:graph="ns_graphs;" xmlns="http://www.w3.org/2000/svg" xmlns:xlink="http://www.w3.org/1999/xlink" x="0px" y="0px" viewBox="0 0 172 40" style="enable-background:new 0 0 172 40;" xml:space="preserve">
 <style type="text/css">
  .st0{fill:#282E3E;}
 </style>
 <metadata>
  <sfw xmlns="ns_sfw;">
   <slices>
   </slices>
   <sliceSourceBounds bottomLeftOrigin="true" height="40" width="172" x="114.3" y="-220.2">
   </sliceSourceBounds>
  </sfw>
 </metadata>
 <g>
  <path class="st0" d="M67.2,12.3h-7c-0.1,0-0.3,0.1-0.4,0.2c-0.1,0.1-0.2,0.2-0.2,0.4v14.7c0,3.7-2.3,4.9-4.9,4.9
		c-2.6,0-4.9-1.4-4.9-4.9V12.9c0-0.1-0.1-0.3-0.2-0.4c-0.1-0.1-0.2-0.2-0.4-0.2h-7c-0.1,0-0.3,0.1-0.4,0.2c-0.1,0.1-0.2,0.2-0.2,0.4
		v15.3c0,7.9,6.1,11.5,12.9,11.5s12.9-3.7,12.9-11.5V12.9c0-0.1-0.1-0.3-0.2-0.4C67.5,12.4,67.4,12.3,67.2,12.3z">
  </path>
  <path class="st0" d="M121.6,2.8h-6.9c-0.3,0-0.5,0.2-0.5,0.5v34.9c0,0.3,0.2,0.5,0.5,0.5h6.9c0.3,0,0.5-0.2,0.5-0.5V3.4
		C122.1,3.1,121.9,2.8,121.6,2.8z">
  </path>
  <path class="st0" d="M110.3,12.3H86.2c-0.1,0-0.3,0.1-0.4,0.2c-0.1,0.1-0.2,0.2-0.2,0.4v5.8c0,0.1,0.1,0.3,0.2,0.4
		c0.1,0.1,0.2,0.2,0.4,0.2h11.7L83.7,38c-0.1,0.1-0.1,0.2-0.1,0.3c0,0.1,0,0.2,0.1,0.3c0,0.1,0.1,0.2,0.2,0.2
		c0.1,0.1,0.2,0.1,0.3,0.1h25.3c0.1,0,0.3-0.1,0.4-0.2s0.2-0.2,0.2-0.4v-5.8c0-0.1-0.1-0.3-0.2-0.4c-0.1-0.1-0.2-0.2-0.4-0.2H96.8
		l13.9-18.7c0.1-0.1,0.1-0.2,0.1-0.3c0-0.1,0-0.2-0.1-0.3c0-0.1-0.1-0.2-0.2-0.2C110.5,12.4,110.4,12.3,110.3,12.3z">
  </path>
  <path class="st0" d="M171.5,12.4h-3.9v-9c0-0.1-0.1-0.3-0.2-0.4c-0.1-0.1-0.2-0.2-0.4-0.2h-6.9c-0.1,0-0.3,0.1-0.4,0.2
		c-0.1,0.1-0.2,0.2-0.2,0.4v9h-3.9c-0.1,0-0.3,0.1-0.4,0.2c-0.1,0.1-0.2,0.2-0.2,0.4v5.8c0,0.1,0.1,0.3,0.2,0.4
		c0.1,0.1,0.2,0.2,0.4,0.2h3.9v19c0,0.1,0.1,0.3,0.2,0.4c0.1,0.1,0.2,0.2,0.4,0.2h6.9c0.1,0,0.3-0.1,0.4-0.2
		c0.1-0.1,0.2-0.2,0.2-0.4v-19h3.9c0.1,0,0.3-0.1,0.4-0.2c0.1-0.1,0.2-0.2,0.2-0.4v-5.8c0-0.1-0.1-0.3-0.1-0.4
		C171.8,12.5,171.6,12.4,171.5,12.4z">
  </path>
  <path class="st0" d="M79.9,12.3h-6.8c-0.3,0-0.5,0.2-0.5,0.5v25.4c0,0.3,0.2,0.5,0.5,0.5h6.8c0.3,0,0.5-0.2,0.5-0.5V12.9
		C80.5,12.6,80.2,12.3,79.9,12.3z">
  </path>
  <path class="st0" d="M76.5,0c-0.9,0-1.8,0.3-2.5,0.8S72.7,2,72.3,2.9c-0.3,0.8-0.4,1.8-0.2,2.7c0.2,0.9,0.6,1.7,1.3,2.3
		s1.5,1.1,2.3,1.3c0.9,0.2,1.8,0.1,2.6-0.3c0.8-0.3,1.6-0.9,2.1-1.7c0.5-0.8,0.8-1.6,0.8-2.5c0-0.6-0.1-1.2-0.3-1.8
		c-0.2-0.6-0.6-1.1-1-1.5c-0.4-0.4-0.9-0.8-1.5-1C77.7,0.1,77.1,0,76.5,0z">
  </path>
  <path class="st0" d="M20.1,1.8c-2.9-0.2-5.8,0.3-8.5,1.4c-2.7,1.1-5.1,2.9-7,5.1c-1.9,2.2-3.3,4.8-4,7.7c-0.7,2.8-0.8,5.8-0.2,8.7
		c0.6,2.9,1.9,5.6,3.7,7.8c1.8,2.3,4.1,4.1,6.8,5.4c2.6,1.2,5.5,1.9,8.4,1.8c2.9-0.1,5.8-0.8,8.4-2.2c0.1,0,0.2-0.1,0.3-0.1
		s0.2,0,0.3,0.1c0.5,0.4,1.1,0.7,1.7,1c2,1,4.3,1.5,6.6,1.5c0.1,0,0.3-0.1,0.4-0.2c0.1-0.1,0.2-0.2,0.2-0.4V33c0-0.1,0-0.2-0.1-0.3
		c-0.1-0.1-0.2-0.2-0.3-0.2c-0.6-0.1-1.2-0.3-1.8-0.5c-0.1,0-0.1-0.1-0.2-0.1c-0.1-0.1-0.1-0.1-0.1-0.2c0-0.1,0-0.2,0-0.2
		c0-0.1,0-0.1,0.1-0.2c1.8-2.8,2.9-6,3.1-9.3c0.2-3.3-0.4-6.6-1.9-9.6s-3.7-5.5-6.4-7.4C26.6,3.1,23.4,2,20.1,1.8L20.1,1.8z
		 M7.5,20.7c0-2.3,0.7-4.5,1.9-6.4c1.3-1.9,3-3.4,5.1-4.2c2.1-0.9,4.4-1.1,6.6-0.7c2.2,0.4,4.3,1.5,5.9,3.1c1.6,1.6,2.7,3.7,3.1,5.9
		c0.4,2.2,0.2,4.5-0.7,6.6c-0.9,2.1-2.3,3.9-4.2,5.2c-1.9,1.3-4.1,1.9-6.4,1.9c-3,0-5.9-1.2-8.1-3.4C8.7,26.7,7.4,23.7,7.5,20.7
		L7.5,20.7z">
  </path>
  <path class="st0" d="M138.9,11.3c-2.3,0.2-4.6,0.9-6.5,2.2c-2,1.3-3.6,3-4.7,5c-1.1,2-1.8,4.3-1.8,6.7c0,2.3,0.5,4.7,1.5,6.8
		c1.1,2.1,2.6,3.9,4.5,5.2c1.9,1.3,4.1,2.2,6.5,2.4c2.3,0.3,4.7,0,6.8-0.9c2.2-0.9,4.1-2.3,5.6-4c0-0.1,0.1-0.1,0.1-0.2
		c0-0.1,0-0.1,0-0.2c0-0.1,0-0.1-0.1-0.2c0-0.1-0.1-0.1-0.1-0.2l-4.1-3.3c-0.1-0.1-0.2-0.1-0.4-0.1c-0.1,0-0.3,0.1-0.3,0.2
		c-0.9,1-2,1.8-3.3,2.3s-2.7,0.6-4,0.3c-1.3-0.2-2.6-0.8-3.6-1.7c-1-0.9-1.8-2-2.3-3.3h20.8c0.1,0,0.2,0,0.3-0.1
		c0.1-0.1,0.2-0.2,0.2-0.3c0.1-0.8,0.2-1.6,0.2-2.3c0-2-0.4-3.9-1.2-5.7c-0.8-1.8-1.9-3.4-3.4-4.8c-1.4-1.3-3.1-2.4-5-3
		C142.9,11.4,140.9,11.1,138.9,11.3z M132.7,22.7c0.6-1.5,1.6-2.8,2.9-3.7c1.3-0.9,2.9-1.4,4.5-1.4c1.6,0,3.2,0.5,4.5,1.4
		c1.3,0.9,2.3,2.2,2.9,3.7H132.7z">
  </path>
 </g>
</svg>