<svg xmlns="http://www.w3.org/2000/svg" version="1.1" viewBox="10 173 483 157" style="max-height: 500px" width="483" height="157">
<path transform="translate(295,198)" fill="#0C0C0C" d="M0 0 C3.57804633 1.19268211 4.01340063 2.42185106 5.67572021 5.65805054 C6.16688324 6.65102646 6.16688324 6.65102646 6.66796875 7.6640625 C7.19574921 8.70090683 7.19574921 8.70090683 7.73419189 9.75869751 C8.89446348 12.04294852 10.04089578 14.33386226 11.1875 16.625 C11.99320934 18.2176351 12.79994312 19.80975233 13.60766602 21.40136719 C14.84967055 23.84961717 16.09069077 26.29832878 17.3278656 28.74902344 C19.9727259 33.98782708 22.6486975 39.20902443 25.359375 44.4140625 C25.8747155 45.40386612 25.8747155 45.40386612 26.40046692 46.41366577 C26.73922348 47.06428986 27.07798004 47.71491394 27.42700195 48.38525391 C32.9218318 58.93964014 38.3281158 69.5326071 43.5 80.25 C43.9633374 81.20293945 44.4266748 82.15587891 44.90405273 83.13769531 C45.31727783 84.00491211 45.73050293 84.87212891 46.15625 85.765625 C46.51525391 86.51618164 46.87425781 87.26673828 47.24414062 88.04003906 C48 90 48 90 48 93 C38.43 93 28.86 93 19 93 C18.03578125 91.05996094 17.0715625 89.11992187 16.078125 87.12109375 C15.13200267 85.22102699 14.18517516 83.3213132 13.23828125 81.42163086 C12.58585205 80.11177609 11.93414448 78.8015616 11.28320312 77.4909668 C10.34178961 75.59586674 9.39769802 73.70212062 8.453125 71.80859375 C7.88754883 70.67220459 7.32197266 69.53581543 6.73925781 68.36499023 C4.92589482 64.85662666 2.9593971 61.42894493 1 58 C-4.61 69.55 -10.22 81.1 -16 93 C-23.35806045 93.39239569 -30.67956367 93.72948052 -38.03979492 93.93383789 C-40.53649063 94.01898373 -43.03234688 94.13475574 -45.52612305 94.2824707 C-65.7140576 95.447702 -65.7140576 95.447702 -71.20550537 91.3571167 C-75.3027006 86.81889592 -77.6797671 81.5938063 -80 76 C-81.33575921 73.03377847 -81.33575921 73.03377847 -83 71 C-84.32 71 -85.64 71 -87 71 C-86.99214478 71.94637329 -86.99214478 71.94637329 -86.98413086 72.91186523 C-86.96342174 75.75373347 -86.95035934 78.59558588 -86.9375 81.4375 C-86.92912109 82.43072266 -86.92074219 83.42394531 -86.91210938 84.44726562 C-86.90727539 85.86362305 -86.90727539 85.86362305 -86.90234375 87.30859375 C-86.89448853 88.62041626 -86.89448853 88.62041626 -86.88647461 89.95874023 C-87 92 -87 92 -88 93 C-97.24 93 -106.48 93 -116 93 C-116 65.94 -116 38.88 -116 11 C-103.686875 10.9071875 -103.686875 10.9071875 -91.125 10.8125 C-87.26772217 10.77153198 -87.26772217 10.77153198 -83.33251953 10.72973633 C-81.26595528 10.7209643 -79.19938579 10.71332206 -77.1328125 10.70703125 C-76.08279053 10.69168335 -75.03276855 10.67633545 -73.95092773 10.66052246 C-63.75302223 10.65694759 -54.6335587 12.43790293 -47.15234375 19.82421875 C-41.39375959 26.03213802 -39.60485778 31.36189132 -39.625 39.875 C-39.62661133 40.58245361 -39.62822266 41.28990723 -39.62988281 42.01879883 C-39.76099125 47.59412101 -40.69355336 51.53856173 -44 56 C-44.66 56.928125 -45.32 57.85625 -46 58.8125 C-47.88609533 60.87541677 -49.64066341 62.5057535 -52 64 C-52.66 64 -53.32 64 -54 64 C-50.37 69.94 -46.74 75.88 -43 82 C-40.12122864 78.4015358 -38.27278489 75.90563588 -36.3359375 71.9296875 C-35.85890381 70.9607959 -35.38187012 69.9919043 -34.89038086 68.99365234 C-34.39030518 67.96449707 -33.89022949 66.9353418 -33.375 65.875 C-32.3024257 63.69710603 -31.22818705 61.52003099 -30.15234375 59.34375 C-29.35352783 57.72726563 -29.35352783 57.72726563 -28.53857422 56.078125 C-26.40419118 51.80800419 -24.1820607 47.58797241 -21.9375 43.375 C-16.85410891 33.80898223 -12.0185928 24.12420198 -7.20263672 14.42138672 C-5.57913503 11.15263118 -3.94624553 7.88864695 -2.3125 4.625 C-1.85488281 3.70976562 -1.39726562 2.79453125 -0.92578125 1.8515625 C-0.62027344 1.24054688 -0.31476563 0.62953125 0 0 Z M-87 36 C-87 40.62 -87 45.24 -87 50 C-83.6896875 50.0928125 -83.6896875 50.0928125 -80.3125 50.1875 C-79.07113281 50.22230469 -77.82976562 50.25710937 -76.55078125 50.29296875 C-72.77031545 49.98104913 -70.95417767 49.33167073 -68 47 C-66.66449153 44.15372409 -66.66449153 44.15372409 -67 41 C-68.95841739 38.1650071 -68.95841739 38.1650071 -72 36 C-74.8387401 35.63228755 -77.01820151 35.51369196 -79.8125 35.6875 C-80.50537109 35.71005859 -81.19824219 35.73261719 -81.91210938 35.75585938 C-83.60901573 35.81437339 -85.30479861 35.9040452 -87 36 Z"/>
<path transform="translate(95,219)" fill="#101010" d="M0 0 C0 -3.3 0 -6.6 0 -10 C24.75 -10 49.5 -10 75 -10 C75 -1.75 75 6.5 75 15 C67.41 15 59.82 15 52 15 C52 33.81 52 52.62 52 72 C42.76 72 33.52 72 24 72 C24 53.19 24 34.38 24 15 C16.08 15 8.16 15 0 15 C-0.495 9.555 -0.495 9.555 -1 4 C-4.96 9.28 -8.92 14.56 -13 20 C-15.51639359 18.99344256 -18.03273797 17.98667348 -20.54296875 16.96484375 C-26.52047547 14.64271042 -32.5023342 12.63632468 -39 13 C-39.99 13.66 -40.98 14.32 -42 15 C-36.96382235 17.33704976 -32.23673909 18.71562312 -26.8125 19.8125 C-17.34571228 21.89251207 -7.08351574 24.95405983 -1 33 C2.52806675 39.20453118 3.021632 45.2664384 1.53125 52.171875 C-1.05561855 60.11725699 -5.72372326 64.58840758 -13.0625 68.375 C-26.42186661 74.80537724 -43.5097375 73.26948958 -57.4609375 69.27734375 C-64.29193032 66.81185296 -70.26678523 63.43140683 -76 59 C-74.68761832 56.15741394 -73.23292824 53.90591755 -71.1796875 51.546875 C-70.37724609 50.61875 -70.37724609 50.61875 -69.55859375 49.671875 C-69.00300781 49.03765625 -68.44742188 48.4034375 -67.875 47.75 C-67.03001953 46.77546875 -67.03001953 46.77546875 -66.16796875 45.78125 C-64.78235636 44.184273 -63.39167246 42.59169878 -62 41 C-58.75597745 41.74970128 -56.20412337 42.89163109 -53.25 44.4375 C-48.35187152 46.72108692 -43.81371562 47.73151409 -38.5 48.375 C-37.80551758 48.45935303 -37.11103516 48.54370605 -36.39550781 48.63061523 C-33.2065987 48.95976012 -31.07723056 49.02574352 -28 48 C-28 47.34 -28 46.68 -28 46 C-28.90878906 45.76925781 -29.81757812 45.53851563 -30.75390625 45.30078125 C-62.22437245 37.13459874 -62.22437245 37.13459874 -70.125 27.375 C-72.12711222 19.65256713 -72.2272573 11.23846853 -68.44140625 4.0625 C-63.71344784 -2.70270878 -57.62316137 -7.09428037 -49.703125 -9.37890625 C-31.3908626 -12.45026672 -15.81023473 -9.30763819 0 0 Z"/>
<path transform="translate(432,198)" fill="#0B0B0B" d="M0 0 C0.99 0 1.98 0 3 0 C12.99334442 19.31996193 22.94926498 38.64054277 32.30615234 58.27832031 C36.00778544 66.02447462 39.86950173 73.66019901 43.98291016 81.19628906 C44.35464355 81.88303711 44.72637695 82.56978516 45.109375 83.27734375 C45.42874023 83.85734131 45.74810547 84.43733887 46.07714844 85.03491211 C47.27934247 87.59482209 48.10566172 90.31698516 49 93 C39.43 93 29.86 93 20 93 C17.7725 88.7615625 17.7725 88.7615625 15.5 84.4375 C11.0315386 75.9413789 6.52923811 67.46385557 2 59 C-0.3142396 61.9260795 -2.09933228 64.89963914 -3.8125 68.2109375 C-4.33070313 69.20867187 -4.84890625 70.20640625 -5.3828125 71.234375 C-5.91648437 72.27078125 -6.45015625 73.3071875 -7 74.375 C-7.53367187 75.40367187 -8.06734375 76.43234375 -8.6171875 77.4921875 C-10.71169078 81.53530826 -12.80248783 85.5781761 -14.8125 89.6640625 C-16 92 -16 92 -17 93 C-19.14558827 93.08775605 -21.29404421 93.10695219 -23.44140625 93.09765625 C-24.74658203 93.09443359 -26.05175781 93.09121094 -27.39648438 93.08789062 C-28.7851569 93.07953401 -30.17382877 93.07106905 -31.5625 93.0625 C-32.95507656 93.05748666 -34.34765481 93.05292347 -35.74023438 93.04882812 C-39.1601987 93.03699434 -42.58007844 93.0205088 -46 93 C-44.6821438 88.77712009 -43.07761647 84.90885582 -41.09375 80.95703125 C-40.51995605 79.81081299 -39.94616211 78.66459473 -39.35498047 77.48364258 C-38.73681527 76.25984673 -38.11848476 75.03613438 -37.5 73.8125 C-36.86197591 72.54264525 -36.22411937 71.2727063 -35.58642578 70.00268555 C-31.71873672 62.31681767 -27.7484919 54.69064575 -23.69384766 47.10180664 C-19.67975377 39.52263919 -16.02476499 31.77679673 -12.34619141 24.03076172 C-8.46480717 15.88632169 -4.36467419 7.89492537 0 0 Z"/>
<path transform="translate(322.592041015625,208.886474609375)" fill="#0B0B0B" d="M0 0 C1.12591553 0.00523682 2.25183105 0.01047363 3.41186523 0.01586914 C4.62680664 0.0190918 5.84174805 0.02231445 7.09350586 0.02563477 C8.37290039 0.03401367 9.65229492 0.04239258 10.97045898 0.05102539 C12.2537207 0.05553711 13.53698242 0.06004883 14.85913086 0.06469727 C18.04211921 0.07652994 21.22501661 0.09301471 24.40795898 0.11352539 C30.07462565 11.44685872 35.74129232 22.78019206 41.40795898 34.11352539 C44.17655513 30.75453987 45.96514655 27.0913862 47.76342773 23.16040039 C48.06992752 22.50017883 48.37642731 21.83995728 48.69221497 21.159729 C49.66437376 19.06300294 50.6299958 16.96334165 51.59545898 14.86352539 C52.25583614 13.43624296 52.91663888 12.00915736 53.57788086 10.58227539 C55.1936511 7.0952932 56.80053717 3.6044124 58.40795898 0.11352539 C67.64795898 0.11352539 76.88795898 0.11352539 86.40795898 0.11352539 C85.51357807 4.58542997 84.18516079 8.02987728 82.19702148 12.04711914 C81.71128159 13.04545776 81.71128159 13.04545776 81.21572876 14.06396484 C80.16038995 16.22909739 79.09676968 18.39004461 78.03295898 20.55102539 C77.29782521 22.05545243 76.56312772 23.56009274 75.82885742 25.06494141 C71.40778595 34.11111973 66.90659105 43.11531169 62.36938477 52.10375977 C55.62603429 65.55471406 49.24751567 79.24457827 43.40795898 93.11352539 C42.41795898 93.11352539 41.42795898 93.11352539 40.40795898 93.11352539 C25.1087265 62.73366892 10.6558781 31.99831237 -3.59204102 1.11352539 C-2.59204102 0.11352539 -2.59204102 0.11352539 0 0 Z"/>
<path transform="translate(99.89161682128906,208.87974548339844)" fill="#060606" d="M0 0 C1.29461655 0.00222061 2.58923309 0.00444122 3.92308044 0.00672913 C4.99131546 0.00651009 4.99131546 0.00651009 6.08113098 0.00628662 C8.4457143 0.00698581 10.81021979 0.01477846 13.17478943 0.02259827 C14.81003781 0.02446243 16.44528675 0.02588634 18.08053589 0.02688599 C22.39273103 0.03071134 26.7048927 0.04054177 31.01707458 0.05158997 C35.41404263 0.06180371 39.81101607 0.06638353 44.20799255 0.07142639 C52.8414732 0.08216403 61.47492017 0.09976096 70.10838318 0.12025452 C70.10838318 8.04025452 70.10838318 15.96025452 70.10838318 24.12025452 C62.18838318 24.12025452 54.26838318 24.12025452 46.10838318 24.12025452 C46.10838318 42.93025452 46.10838318 61.74025452 46.10838318 81.12025452 C37.52838318 81.12025452 28.94838318 81.12025452 20.10838318 81.12025452 C20.10838318 62.31025452 20.10838318 43.50025452 20.10838318 24.12025452 C12.18838318 24.12025452 4.26838318 24.12025452 -3.89161682 24.12025452 C-3.91224182 20.34587952 -3.93286682 16.57150452 -3.95411682 12.68275452 C-3.96322083 11.4910968 -3.97232483 10.29943909 -3.98170471 9.07167053 C-3.98420227 8.14024231 -3.98669983 7.20881409 -3.98927307 6.24916077 C-3.99450989 5.29082336 -3.9997467 4.33248596 -4.00514221 3.34510803 C-3.83206377 -0.0468573 -3.4474228 0.14336898 0 0 Z"/>
<path transform="translate(0,0)" fill="#FFFFFF" d=""/>
<path transform="translate(0,0)" fill="#FFFFFF" d=""/>
<path transform="translate(0,0)" fill="#FFFFFF" d=""/>
<path transform="translate(0,0)" fill="#FFFFFF" d=""/>
<path transform="translate(0,0)" fill="#FFFFFF" d=""/>
<path transform="translate(0,0)" fill="#FFFFFF" d=""/>
<path transform="translate(0,0)" fill="#FFFFFF" d=""/>
<path transform="translate(0,0)" fill="#FFFFFF" d=""/>
<path transform="translate(0,0)" fill="#FFFFFF" d=""/>
<path transform="translate(0,0)" fill="#FFFFFF" d=""/>
<path transform="translate(0,0)" fill="#FFFFFF" d=""/>
<path transform="translate(0,0)" fill="#FFFFFF" d=""/>
<path transform="translate(0,0)" fill="#FFFFFF" d=""/>
<path transform="translate(0,0)" fill="#FFFFFF" d=""/>
<path transform="translate(0,0)" fill="#FFFFFF" d=""/>
<path transform="translate(0,0)" fill="#FFFFFF" d=""/>
<path transform="translate(0,0)" fill="#FFFFFF" d=""/>
<path transform="translate(0,0)" fill="#FFFFFF" d=""/>
<path transform="translate(0,0)" fill="#FFFFFF" d=""/>
<path transform="translate(0,0)" fill="#FFFFFF" d=""/>
<path transform="translate(0,0)" fill="#FFFFFF" d=""/>
<path transform="translate(0,0)" fill="#FFFFFF" d=""/>
<path transform="translate(0,0)" fill="#FFFFFF" d=""/>
<path transform="translate(0,0)" fill="#FFFFFF" d=""/>
<path transform="translate(0,0)" fill="#FFFFFF" d=""/>
<path transform="translate(0,0)" fill="#FFFFFF" d=""/>
<path transform="translate(0,0)" fill="#FFFFFF" d=""/>
<path transform="translate(0,0)" fill="#FFFFFF" d=""/>
<path transform="translate(0,0)" fill="#FFFFFF" d=""/>
<path transform="translate(0,0)" fill="#FFFFFF" d=""/>
<path transform="translate(0,0)" fill="#FFFFFF" d=""/>
<path transform="translate(0,0)" fill="#FFFFFF" d=""/>
<path transform="translate(0,0)" fill="#FFFFFF" d=""/>
<path transform="translate(0,0)" fill="#FFFFFF" d=""/>
<path transform="translate(0,0)" fill="#FFFFFF" d=""/>
<path transform="translate(0,0)" fill="#FFFFFF" d=""/>
<path transform="translate(0,0)" fill="#FFFFFF" d=""/>
<path transform="translate(0,0)" fill="#FFFFFF" d=""/>
<path transform="translate(0,0)" fill="#FFFFFF" d=""/>
<path transform="translate(0,0)" fill="#FFFFFF" d=""/>
<path transform="translate(0,0)" fill="#FFFFFF" d=""/>
<path transform="translate(0,0)" fill="#FFFFFF" d=""/>
<path transform="translate(0,0)" fill="#FFFFFF" d=""/>
<path transform="translate(0,0)" fill="#FFFFFF" d=""/>
<path transform="translate(0,0)" fill="#FFFFFF" d=""/>
<path transform="translate(0,0)" fill="#FFFFFF" d=""/>
<path transform="translate(0,0)" fill="#FFFFFF" d=""/>
<path transform="translate(0,0)" fill="#FFFFFF" d=""/>
<path transform="translate(0,0)" fill="#FFFFFF" d=""/>
<path transform="translate(0,0)" fill="#FFFFFF" d=""/>
<path transform="translate(0,0)" fill="#FFFFFF" d=""/>
<path transform="translate(0,0)" fill="#FFFFFF" d=""/>
<path transform="translate(0,0)" fill="#FFFFFF" d=""/>
<path transform="translate(0,0)" fill="#FFFFFF" d=""/>
<path transform="translate(0,0)" fill="#FFFFFF" d=""/>
<path transform="translate(0,0)" fill="#FFFFFF" d=""/>
<path transform="translate(0,0)" fill="#FFFFFF" d=""/>
<path transform="translate(0,0)" fill="#FFFFFF" d=""/>
<path transform="translate(0,0)" fill="#FFFFFF" d=""/>
<path transform="translate(0,0)" fill="#FFFFFF" d=""/>
<path transform="translate(0,0)" fill="#FFFFFF" d=""/>
<path transform="translate(0,0)" fill="#FFFFFF" d=""/>
<path transform="translate(0,0)" fill="#FFFFFF" d=""/>
<path transform="translate(0,0)" fill="#FFFFFF" d=""/>
<path transform="translate(0,0)" fill="#FFFFFF" d=""/>
<path transform="translate(0,0)" fill="#FFFFFF" d=""/>
<path transform="translate(0,0)" fill="#FFFFFF" d=""/>
<path transform="translate(0,0)" fill="#FFFFFF" d=""/>
<path transform="translate(0,0)" fill="#FFFFFF" d=""/>
<path transform="translate(0,0)" fill="#FFFFFF" d=""/>
<path transform="translate(0,0)" fill="#FFFFFF" d=""/>
<path transform="translate(0,0)" fill="#FFFFFF" d=""/>
<path transform="translate(0,0)" fill="#FFFFFF" d=""/>
<path transform="translate(0,0)" fill="#FFFFFF" d=""/>
<path transform="translate(0,0)" fill="#FFFFFF" d=""/>
<path transform="translate(0,0)" fill="#FFFFFF" d=""/>
<path transform="translate(0,0)" fill="#FFFFFF" d=""/>
<path transform="translate(0,0)" fill="#FFFFFF" d=""/>
<path transform="translate(0,0)" fill="#FFFFFF" d=""/>
<path transform="translate(0,0)" fill="#FFFFFF" d=""/>
<path transform="translate(0,0)" fill="#FFFFFF" d=""/>
<path transform="translate(0,0)" fill="#FFFFFF" d=""/>
<path transform="translate(0,0)" fill="#FFFFFF" d=""/>
<path transform="translate(0,0)" fill="#FFFFFF" d=""/>
</svg>