<svg width="128" height="22" viewBox="0 0 128 22" fill="none" xmlns="http://www.w3.org/2000/svg">
<g clip-path="url(#clip0_5306_5872)">
<path fill-rule="evenodd" clip-rule="evenodd" d="M34.2194 0.000488281L23.2871 21.3338H13.0397L17.597 12.4844H17.3863C13.6456 17.3832 8.00823 20.5964 0 21.3338V12.6161C0 12.6161 5.13686 12.3264 8.13995 9.13958H0V0.000488281H9.14098V7.533H9.35172L13.0924 0.000488281H20.0206V7.48032H20.2313L24.0774 0.000488281H34.2194Z" fill="#0C0E1C"/>
<path d="M93.7285 18.9904H96.6789V2.08179H93.7285V18.9904Z" fill="#0C0E1C"/>
<path fill-rule="evenodd" clip-rule="evenodd" d="M77.5004 18.8061C78.1326 19.0694 78.7912 19.2011 79.4498 19.2011C80.5562 19.2011 81.5309 18.9378 82.3738 18.411C83.2432 17.8843 83.9017 17.1468 84.3759 16.1987C84.8501 15.2505 85.0872 14.197 85.0872 12.9855C85.0872 11.774 84.8501 10.7205 84.3496 9.77232C83.849 8.82417 83.1905 8.11306 82.3212 7.58631C81.4518 7.05956 80.4508 6.79619 79.3444 6.82253C78.6332 6.82253 77.9746 6.95422 77.316 7.24393C76.6574 7.5073 76.1306 7.90236 75.7091 8.40277C75.6828 8.42911 75.6564 8.48179 75.6037 8.50812V2.08179H72.6533V18.9641H75.5774V17.3838C75.6564 17.4892 75.7354 17.5682 75.8145 17.6472C76.2886 18.1476 76.8418 18.5427 77.5004 18.8061ZM80.5035 16.067C80.0293 16.3567 79.4761 16.5147 78.8439 16.5147C78.238 16.5147 77.6585 16.3567 77.158 16.067C76.6574 15.7509 76.236 15.3295 75.9462 14.8028C75.6564 14.276 75.4984 13.6703 75.4984 12.9855C75.4984 12.3007 75.6301 11.695 75.9198 11.1682C76.2096 10.6415 76.6311 10.2201 77.1316 9.90401C77.6321 9.6143 78.2117 9.45627 78.8176 9.45627C79.4234 9.45627 79.9766 9.58796 80.4772 9.87767C80.9777 10.1674 81.3465 10.5888 81.6099 11.1155C81.8733 11.6423 82.005 12.248 82.005 12.9592C82.005 13.6439 81.8733 14.2497 81.6099 14.8028C81.3728 15.3559 81.004 15.7773 80.5035 16.067Z" fill="#0C0E1C"/>
<path d="M38.4873 3.10791H41.8592L44.8623 14.0906L48.0761 3.10791H50.8685L54.3457 13.8799L57.2434 3.10791H60.3255L55.7682 18.9894H52.8705L49.3406 8.45441L46.1004 18.9894H43.1763L38.4873 3.10791Z" fill="#0C0E1C"/>
<path fill-rule="evenodd" clip-rule="evenodd" d="M65.2775 19.2531C64.0921 19.2531 63.0384 18.9897 62.1164 18.4893C61.168 17.9626 60.4568 17.2251 59.9036 16.277C59.3767 15.3288 59.1133 14.249 59.1133 13.0638C59.1133 11.8786 59.3767 10.8251 59.9299 9.87698C60.4831 8.92883 61.2207 8.19138 62.1427 7.66464C63.0911 7.13789 64.1184 6.87451 65.2775 6.87451C66.5683 6.87451 67.7011 7.16422 68.6757 7.74365C69.6504 8.32307 70.388 9.13953 70.8622 10.193C71.3627 11.2465 71.5208 12.4581 71.3891 13.8013H62.1427C62.1691 14.3543 62.3008 14.8284 62.5379 15.2762C62.8013 15.7766 63.1964 16.1453 63.6706 16.4087C64.1711 16.672 64.698 16.8301 65.3039 16.8301C65.7517 16.8301 66.1995 16.7511 66.5947 16.593C66.9898 16.435 67.3323 16.2243 67.5957 15.9609C67.8855 15.6976 68.0699 15.3815 68.2016 15.0655H71.2837C71.0993 15.8819 70.7305 16.6194 70.1509 17.2778C69.5977 17.9099 68.8865 18.4103 68.0435 18.779C67.2269 19.0951 66.3049 19.2794 65.2775 19.2531ZM62.5642 10.7988C62.3798 11.0885 62.2744 11.4309 62.1954 11.7733H68.3333C68.2806 11.3255 68.1489 10.9305 67.9381 10.5881C67.6747 10.1667 67.3323 9.82431 66.8844 9.61361C66.4366 9.37657 65.9361 9.24488 65.3829 9.24488C64.777 9.24488 64.2501 9.37657 63.7496 9.66628C63.2491 9.92966 62.854 10.2984 62.5642 10.7988Z" fill="#0C0E1C"/>
<path d="M87.2736 7.08569C87.2736 6.1112 87.4844 5.2684 87.9322 4.53096C88.38 3.76717 88.9859 3.18775 89.7762 2.76635C90.5665 2.34495 91.5148 2.13425 92.5686 2.10791V4.74166C92.068 4.74166 91.6466 4.84701 91.3041 5.0577C90.9616 5.24207 90.6982 5.53178 90.5138 5.9005C90.3294 6.24289 90.2504 6.63795 90.224 7.08569H92.5159V9.58775H90.224V18.9902H87.2736V9.58775H85.377V7.08569H87.2736Z" fill="#0C0E1C"/>
<path fill-rule="evenodd" clip-rule="evenodd" d="M104.16 19.2267C102.949 19.2267 101.895 18.9633 100.946 18.4366C99.9981 17.9098 99.2605 17.1724 98.7336 16.2242C98.2068 15.2761 97.9434 14.2226 97.9434 13.011C97.9434 11.7995 98.2068 10.746 98.7336 9.79788C99.2605 8.84973 100.024 8.11228 100.946 7.58553C101.895 7.05878 102.975 6.79541 104.16 6.79541C105.372 6.79541 106.452 7.05878 107.4 7.58553C108.349 8.11228 109.113 8.84973 109.64 9.79788C110.166 10.746 110.43 11.8259 110.456 13.011C110.456 14.1962 110.166 15.2761 109.64 16.2242C109.113 17.1724 108.375 17.8835 107.427 18.4366C106.452 18.9633 105.372 19.2267 104.16 19.2267ZM104.16 16.5403C104.793 16.5403 105.346 16.4086 105.846 16.1189C106.347 15.8292 106.716 15.4078 106.979 14.881C107.242 14.3543 107.374 13.7485 107.374 13.0637C107.374 12.3789 107.242 11.7732 106.979 11.2201C106.716 10.6934 106.347 10.272 105.846 9.98224C105.346 9.69253 104.793 9.53451 104.16 9.53451C103.528 9.53451 102.975 9.69253 102.501 9.98224C102.027 10.272 101.658 10.667 101.368 11.2201C101.105 11.7469 100.973 12.3526 100.973 13.0637C100.973 13.7485 101.105 14.3543 101.368 14.881C101.631 15.4078 102.027 15.8292 102.501 16.1189C102.975 16.3822 103.528 16.5403 104.16 16.5403Z" fill="#0C0E1C"/>
<path d="M113.617 7.08496H110.324L113.881 18.9631H116.752L119.096 11.378L121.625 18.9631H124.444L128 7.08496H125.024L123.021 14.4858L120.782 7.08496H117.911L115.698 14.6438L113.617 7.08496Z" fill="#0C0E1C"/>
</g>
<defs>
<clipPath id="clip0_5306_5872">
<rect width="128" height="21.3333" fill="white"/>
</clipPath>
</defs>
</svg>
