<svg width="699" height="164" viewBox="0 0 699 164" fill="none" xmlns="http://www.w3.org/2000/svg">
<g clip-path="url(#clip0_2561_308)">
<path d="M82.9364 143.449C97.7358 169 122.418 169 137.242 143.449L145.139 128.721L70.0986 0H0L82.9364 143.449Z" fill="black"/>
<path d="M239.896 88.4168C233.961 98.2518 221.149 98.2518 216.207 88.4168L164.881 0H93.7891L176.725 143.449C191.525 169 216.207 169 231.031 143.449L286.331 47.1737L258.669 0H187.577L239.896 88.4168Z" fill="black"/>
<path d="M335.669 75.6411H350.469C359.358 42.2315 363.307 28.492 364.3 19.6454C365.293 28.492 369.241 43.2199 378.131 75.6411H392.93L413.664 0H399.833C390.944 34.398 386.996 48.1375 386.002 56.9841C384.016 47.149 380.068 31.4327 372.171 0H358.34C349.451 34.398 345.503 49.1259 344.509 57.9725C342.523 49.1259 338.575 33.4096 329.71 0H315.879L335.669 75.6411Z" fill="black"/>
<path d="M436.359 76.6295C447.21 76.6295 458.087 70.7235 462.035 61.9016L452.152 56.9841C451.159 59.9247 446.217 65.8307 437.352 65.8307C428.463 65.8307 422.553 60.9132 421.56 53.055H464.99V52.0666C464.99 41.2678 462.035 32.4211 457.093 26.5152C452.152 21.5976 445.249 18.657 437.352 18.657C429.456 18.657 422.553 21.5976 416.618 27.5036C411.677 32.4211 408.722 40.2793 408.722 48.1375C407.729 64.8423 419.598 76.6295 436.359 76.6295ZM435.391 30.4689C443.287 30.4689 449.222 35.3865 450.19 42.2562H420.567C421.56 35.3618 427.494 30.4689 435.391 30.4689Z" fill="black"/>
<path d="M491.659 76.6295C505.49 76.6295 514.355 69.7598 514.355 59.9247C514.355 47.149 502.51 44.2084 493.621 42.2315C487.686 40.2546 481.776 39.2909 481.776 35.3618C481.776 32.4211 484.731 29.4558 489.673 29.4558C494.614 29.4558 498.562 32.3964 499.555 36.3255V38.3024L510.407 36.3255C510.407 25.5267 501.517 18.6323 488.679 18.6323C475.842 18.6323 467.945 25.502 467.945 35.3371C467.945 47.1243 478.797 50.0649 487.686 52.0418C494.589 54.0187 499.531 54.9825 499.531 59.9C499.531 63.8291 495.582 65.806 490.641 65.806C483.738 65.806 478.797 62.8654 478.797 56.9594V55.9709L467.945 58.9116C467.97 70.7482 480.808 76.6295 491.659 76.6295Z" fill="black"/>
<path d="M524.236 65.8307C524.236 71.7367 528.185 77.618 535.088 77.618C542.984 77.618 545.939 76.6295 545.939 76.6295V65.8307C545.939 65.8307 543.953 65.8307 540.004 65.8307C538.018 65.8307 537.049 64.8423 537.049 62.8901V30.469H545.939V19.6454H537.049V3.92909L524.212 6.86973V19.6454H517.309V30.4442H524.212V65.8307H524.236Z" fill="black"/>
<path d="M621.972 27.5036V20.6339H611.121V76.6295H623.959V42.2562C623.959 39.3156 624.952 36.3502 626.914 34.398C629.869 32.4211 633.817 31.4574 639.752 32.4211H640.745V20.6339H639.752C632.848 18.657 625.921 21.6223 621.972 27.5036Z" fill="black"/>
<path d="M677.272 19.6454C669.375 19.6454 661.479 22.5861 658.524 28.4921V20.6339H646.68V76.6295H659.517V47.149C659.517 37.314 664.459 31.4327 673.348 31.4327C679.283 31.4327 686.186 34.3733 686.186 46.1606V76.6295H699.024V44.2084C698.974 25.5514 688.123 19.6454 677.272 19.6454Z" fill="black"/>
<path d="M369.243 130.673C369.243 143.449 363.308 150.318 352.457 150.318C341.606 150.318 335.671 143.449 335.671 130.673V86.4646H321.84V130.673C321.84 151.307 333.684 163.094 352.457 163.094C371.229 163.094 383.074 151.307 383.074 130.673V86.4646H369.243V130.673Z" fill="black"/>
<path d="M420.569 105.122C412.672 105.122 404.776 108.062 401.821 113.968V106.11H389.977V162.106H402.814V132.625C402.814 122.79 407.756 116.909 416.645 116.909C422.58 116.909 429.483 119.849 429.483 131.637V162.106H442.321V129.685C442.296 111.028 431.445 105.122 420.569 105.122Z" fill="black"/>
<path d="M464.021 106.11H451.184V162.106H464.021V106.11Z" fill="black"/>
<path d="M457.096 85.4761C453.147 85.4761 449.199 88.4168 449.199 93.3343C449.199 97.2634 452.154 101.192 457.096 101.192C461.044 101.192 464.992 98.2518 464.992 93.3343C465.017 88.4168 462.037 85.4761 457.096 85.4761Z" fill="black"/>
<path d="M499.556 105.122C491.66 105.122 483.764 108.062 478.822 112.98C473.881 117.897 470.926 125.755 470.926 133.614C470.926 150.318 483.764 162.106 500.549 162.106C517.335 162.106 530.173 150.318 530.173 133.614C530.173 125.755 527.218 117.897 521.284 112.98C515.349 108.062 508.446 105.122 499.556 105.122ZM499.556 150.318C489.673 150.318 482.77 143.449 482.77 133.614C482.77 123.779 489.673 116.909 499.556 116.909C509.439 116.909 516.342 123.779 516.342 133.614C516.342 143.449 509.439 150.318 499.556 150.318Z" fill="black"/>
<path d="M565.705 105.122C557.809 105.122 549.913 108.062 546.958 113.968V106.11H535.113V162.106H547.951V132.625C547.951 122.79 552.892 116.909 561.782 116.909C567.717 116.909 574.62 119.849 574.62 131.637V162.106H587.458V129.685C588.401 111.028 576.557 105.122 565.705 105.122Z" fill="black"/>
<path d="M577.552 19.6454C569.656 19.6454 562.753 22.5861 556.818 28.4921C551.877 33.4096 548.922 41.2678 548.922 49.1259C548.922 65.8307 560.766 77.618 577.552 77.618C588.404 77.618 599.28 71.712 603.228 62.8901L593.345 57.9725C592.352 60.9132 587.41 66.8192 578.546 66.8192C569.681 66.8192 563.746 61.9016 562.753 54.0435H606.183V53.055C606.183 42.2562 603.228 33.4096 598.286 27.5036C592.352 21.6223 585.449 19.6454 577.552 19.6454ZM561.76 42.2562C562.753 35.3865 568.663 30.4689 576.559 30.4689C584.455 30.4689 590.39 35.3865 591.358 42.2562H561.76Z" fill="black"/>
</g>
<defs>
<clipPath id="clip0_2561_308">
<rect width="698.975" height="163.094" fill="white"/>
</clipPath>
</defs>
</svg>
